<svg xmlns="http://www.w3.org/2000/svg" xmlns:xlink="http://www.w3.org/1999/xlink" width="50" zoomAndPan="magnify" viewBox="0 0 37.5 37.499999" height="50" preserveAspectRatio="xMidYMid meet" version="1.0"><defs><clipPath id="id1"><path d="M 6 4 L 32 4 L 32 37.007812 L 6 37.007812 Z M 6 4 " clip-rule="nonzero"/></clipPath><clipPath id="id2"><path d="M 3.511719 7 L 9 7 L 9 12 L 3.511719 12 Z M 3.511719 7 " clip-rule="nonzero"/></clipPath><clipPath id="id3"><path d="M 29 7 L 34.261719 7 L 34.261719 12 L 29 12 Z M 29 7 " clip-rule="nonzero"/></clipPath></defs><g clip-path="url(#id1)"><path fill="rgb(19.219971%, 0%, 0%)" d="M 14.996094 5.253906 C 10.796875 6.703125 7.417969 10.21875 6.703125 14.84375 C 5.554688 22.320312 9.503906 29.34375 14.648438 34.472656 C 15.546875 35.367188 16.597656 36.222656 17.789062 36.703125 C 19.773438 37.507812 21.890625 36.757812 23.480469 35.476562 C 26.703125 32.878906 28.777344 28.503906 30.027344 24.675781 C 31.65625 19.695312 32.195312 14.164062 29.167969 9.585938 C 27.894531 7.660156 26.019531 6.160156 23.816406 5.335938 C 20.875 4.238281 17.757812 4.300781 14.996094 5.253906 Z M 14.996094 5.253906 " fill-opacity="1" fill-rule="nonzero"/></g><path fill="rgb(19.219971%, 0%, 0%)" d="M 16.492188 18.738281 C 16.492188 18.832031 15.074219 19.871094 13.320312 19.871094 C 11.566406 19.871094 10.148438 18.738281 10.148438 18.738281 C 10.148438 18.738281 11.566406 17.605469 13.320312 17.605469 C 15.074219 17.605469 16.492188 18.738281 16.492188 18.738281 Z M 16.492188 18.738281 " fill-opacity="1" fill-rule="nonzero"/><path fill="rgb(99.21875%, 96.078491%, 73.728943%)" d="M 15.613281 19.160156 C 15.644531 19.605469 15.609375 20.042969 15.503906 20.464844 C 15.402344 20.886719 15.242188 21.261719 15.023438 21.59375 C 14.800781 21.925781 14.539062 22.1875 14.238281 22.382812 C 13.933594 22.574219 13.609375 22.679688 13.269531 22.703125 C 12.929688 22.726562 12.597656 22.660156 12.269531 22.511719 C 11.941406 22.359375 11.648438 22.136719 11.386719 21.835938 C 11.125 21.535156 10.914062 21.179688 10.757812 20.777344 C 10.597656 20.371094 10.503906 19.945312 10.472656 19.496094 C 10.445312 19.050781 10.480469 18.617188 10.582031 18.191406 C 10.683594 17.769531 10.847656 17.394531 11.066406 17.0625 C 11.285156 16.730469 11.546875 16.46875 11.851562 16.277344 C 12.15625 16.082031 12.476562 15.976562 12.816406 15.953125 C 13.160156 15.929688 13.492188 15.996094 13.820312 16.144531 C 14.144531 16.296875 14.4375 16.523438 14.703125 16.824219 C 14.964844 17.125 15.175781 17.476562 15.332031 17.878906 C 15.492188 18.285156 15.585938 18.710938 15.613281 19.160156 Z M 15.613281 19.160156 " fill-opacity="1" fill-rule="nonzero"/><path fill="rgb(99.21875%, 96.078491%, 73.728943%)" d="M 25.402344 15.703125 C 24.066406 15.703125 22.980469 17.003906 22.980469 18.609375 C 22.980469 20.214844 24.066406 21.519531 25.402344 21.519531 C 26.738281 21.519531 27.824219 20.214844 27.824219 18.609375 C 27.824219 17.003906 26.738281 15.703125 25.402344 15.703125 Z M 25.402344 15.703125 " fill-opacity="1" fill-rule="nonzero"/><path fill="rgb(0.779724%, 54.119873%, 34.118652%)" d="M 29.367188 21.835938 C 28.925781 26.289062 26.371094 29.429688 24.679688 31.054688 C 24.328125 31.390625 23.757812 31.035156 23.90625 30.574219 C 24.871094 27.597656 24.703125 24.183594 24.589844 22.878906 C 24.566406 22.601562 24.789062 22.363281 25.066406 22.371094 C 26.640625 22.425781 27.898438 21.859375 28.648438 21.394531 C 28.984375 21.191406 29.40625 21.449219 29.367188 21.835938 Z M 29.367188 21.835938 " fill-opacity="1" fill-rule="nonzero"/><path fill="rgb(94.898987%, 16.468811%, 13.729858%)" d="M 14.277344 25.597656 C 14.191406 26.644531 14.121094 28.941406 14.890625 31.042969 C 15.0625 31.519531 14.496094 31.917969 14.097656 31.601562 C 12.507812 30.34375 10.269531 28.054688 9.746094 24.867188 C 9.679688 24.464844 10.09375 24.152344 10.464844 24.332031 C 11.183594 24.675781 12.335938 25.078125 13.757812 25.054688 C 14.0625 25.046875 14.300781 25.296875 14.277344 25.597656 Z M 14.277344 25.597656 " fill-opacity="1" fill-rule="nonzero"/><path fill="rgb(0.779724%, 54.119873%, 34.118652%)" d="M 21.195312 25.132812 C 22.65625 25.515625 23.296875 26.6875 23.5625 27.441406 C 23.675781 27.765625 23.421875 28.105469 23.070312 28.105469 C 22.957031 27.710938 22.667969 27.488281 22.394531 27.359375 C 22.117188 27.234375 21.800781 27.429688 21.800781 27.722656 L 21.800781 28.105469 L 16.722656 28.105469 L 16.738281 27.761719 C 16.753906 27.429688 16.371094 27.222656 16.089844 27.414062 C 15.683594 27.683594 15.464844 28.105469 15.464844 28.105469 L 15.398438 28.105469 C 15.046875 28.105469 14.796875 27.769531 14.90625 27.441406 C 15.605469 25.367188 17.265625 24.992188 17.265625 24.992188 L 19.132812 12.539062 Z M 21.195312 25.132812 " fill-opacity="1" fill-rule="nonzero"/><path fill="rgb(0.779724%, 54.119873%, 34.118652%)" d="M 10.6875 26.320312 C 11.054688 27.632812 11.804688 28.726562 12.542969 29.542969 C 13.007812 30.058594 13.859375 29.648438 13.753906 28.96875 C 13.601562 28.007812 13.589844 27.074219 13.609375 26.457031 C 13.625 26.082031 13.332031 25.761719 12.953125 25.746094 C 12.425781 25.71875 11.964844 25.613281 11.585938 25.488281 C 11.0625 25.308594 10.542969 25.789062 10.6875 26.320312 Z M 10.6875 26.320312 " fill-opacity="1" fill-rule="nonzero"/><path fill="rgb(94.898987%, 16.468811%, 13.729858%)" d="M 22.394531 32.113281 C 22.390625 32.207031 22.339844 32.296875 22.25 32.363281 L 19.902344 34.074219 C 19.746094 34.1875 19.511719 34.1875 19.351562 34.074219 L 16.96875 32.359375 C 16.878906 32.292969 16.828125 32.207031 16.820312 32.113281 C 18.65625 32.113281 20.53125 32.113281 22.394531 32.113281 Z M 22.394531 32.113281 " fill-opacity="1" fill-rule="nonzero"/><path fill="rgb(94.898987%, 16.468811%, 13.729858%)" d="M 25.308594 24.046875 C 25.34375 24.859375 25.355469 26.199219 25.1875 27.566406 C 25.089844 28.339844 26.105469 28.71875 26.554688 28.082031 C 27.324219 26.984375 28.09375 25.523438 28.417969 23.765625 C 28.527344 23.1875 27.9375 22.722656 27.390625 22.949219 C 27.007812 23.105469 26.546875 23.234375 26.023438 23.269531 C 25.609375 23.292969 25.292969 23.636719 25.308594 24.046875 Z M 25.308594 24.046875 " fill-opacity="1" fill-rule="nonzero"/><path fill="rgb(94.898987%, 16.468811%, 13.729858%)" d="M 8.140625 15.832031 C 7.355469 15.832031 7.355469 17.015625 8.140625 17.015625 C 8.925781 17.015625 8.925781 15.832031 8.140625 15.832031 Z M 8.140625 15.832031 " fill-opacity="1" fill-rule="nonzero"/><path fill="rgb(94.898987%, 16.468811%, 13.729858%)" d="M 10.285156 14.753906 C 9.585938 14.753906 9.585938 15.804688 10.285156 15.804688 C 10.984375 15.804688 10.984375 14.753906 10.285156 14.753906 Z M 10.285156 14.753906 " fill-opacity="1" fill-rule="nonzero"/><path fill="rgb(94.898987%, 16.468811%, 13.729858%)" d="M 12.359375 13.875 C 11.75 13.875 11.75 14.796875 12.359375 14.796875 C 12.972656 14.796875 12.972656 13.875 12.359375 13.875 Z M 12.359375 13.875 " fill-opacity="1" fill-rule="nonzero"/><path fill="rgb(94.898987%, 16.468811%, 13.729858%)" d="M 14.089844 13 C 13.566406 13 13.566406 13.792969 14.089844 13.792969 C 14.613281 13.792969 14.617188 13 14.089844 13 Z M 14.089844 13 " fill-opacity="1" fill-rule="nonzero"/><path fill="rgb(94.898987%, 16.468811%, 13.729858%)" d="M 15.335938 12.390625 C 14.988281 12.390625 14.988281 12.917969 15.335938 12.917969 C 15.6875 12.917969 15.6875 12.390625 15.335938 12.390625 Z M 15.335938 12.390625 " fill-opacity="1" fill-rule="nonzero"/><path fill="rgb(94.898987%, 16.468811%, 13.729858%)" d="M 9.21875 7.933594 C 10.039062 8.039062 11.109375 6.554688 11.644531 6.03125 C 11.695312 5.980469 11.75 5.921875 11.773438 5.855469 C 11.808594 5.742188 11.75 5.625 11.695312 5.519531 C 11.339844 4.84375 10.984375 4.164062 10.628906 3.488281 C 10.460938 3.167969 10.273438 2.828125 9.9375 2.683594 C 9.707031 2.585938 9.441406 2.597656 9.199219 2.648438 C 8.132812 2.886719 7.429688 3.851562 6.84375 4.746094 C 6.648438 5.039062 6.453125 5.394531 6.589844 5.71875 C 6.648438 5.855469 6.757812 5.960938 6.867188 6.0625 C 7.402344 6.558594 8.460938 7.835938 9.21875 7.933594 Z M 9.21875 7.933594 " fill-opacity="1" fill-rule="nonzero"/><path fill="rgb(94.898987%, 16.468811%, 13.729858%)" d="M 17.503906 3.695312 C 18.042969 4.117188 19.875 3.6875 20.550781 3.652344 C 20.824219 3.636719 21.113281 3.617188 21.34375 3.472656 C 21.648438 3.277344 21.777344 2.90625 21.882812 2.566406 C 22.105469 1.84375 22.332031 1.105469 22.3125 0.347656 C 20.726562 0.00390625 19.074219 0.113281 17.449219 0.222656 C 17.34375 0.230469 17.234375 0.238281 17.152344 0.300781 C 17.007812 0.410156 17.015625 0.621094 17.035156 0.800781 C 17.105469 1.410156 16.996094 3.296875 17.503906 3.695312 Z M 17.503906 3.695312 " fill-opacity="1" fill-rule="nonzero"/><path fill="rgb(94.898987%, 16.468811%, 13.729858%)" d="M 26.5625 5.484375 C 26.550781 6.128906 27.796875 7.035156 28.21875 7.480469 C 28.351562 7.617188 28.496094 7.765625 28.683594 7.804688 C 28.867188 7.839844 29.050781 7.769531 29.222656 7.699219 C 29.992188 7.386719 30.785156 7.0625 31.367188 6.480469 C 31.429688 6.414062 31.492188 6.34375 31.507812 6.257812 C 31.519531 6.183594 31.492188 6.109375 31.464844 6.039062 C 30.984375 4.859375 29.898438 4.035156 28.855469 3.269531 C 28.746094 3.1875 28.625 3.105469 28.488281 3.121094 C 28.34375 3.136719 28.242188 3.253906 28.152344 3.363281 C 27.765625 3.839844 26.570312 4.867188 26.5625 5.484375 Z M 26.5625 5.484375 " fill-opacity="1" fill-rule="nonzero"/><path fill="rgb(100%, 47.44873%, 14.509583%)" d="M 22.390625 31.671875 C 20.265625 31.671875 18.128906 31.671875 16.035156 31.671875 C 16.027344 31.582031 16.0625 31.488281 16.148438 31.417969 L 17.632812 30.113281 C 17.808594 29.957031 18.132812 29.945312 18.335938 30.089844 L 18.890625 30.488281 C 19.089844 30.632812 19.410156 30.625 19.589844 30.46875 L 19.984375 30.128906 C 20.175781 29.964844 20.515625 29.964844 20.707031 30.125 L 22.269531 31.414062 C 22.355469 31.488281 22.398438 31.582031 22.390625 31.671875 Z M 22.390625 31.671875 " fill-opacity="1" fill-rule="nonzero"/><path fill="rgb(100%, 47.44873%, 14.509583%)" d="M 19.234375 5.175781 C 16.992188 5.175781 15.171875 5.609375 15.171875 6.144531 C 15.171875 6.679688 16.992188 7.113281 19.234375 7.113281 C 21.476562 7.113281 23.292969 6.679688 23.292969 6.144531 C 23.292969 5.609375 21.476562 5.175781 19.234375 5.175781 Z M 19.234375 5.175781 " fill-opacity="1" fill-rule="nonzero"/><path fill="rgb(100%, 47.44873%, 14.509583%)" d="M 21.566406 8.683594 C 21.566406 8.769531 21.484375 8.847656 21.324219 8.929688 C 21.160156 9.007812 20.929688 9.074219 20.628906 9.136719 C 20.332031 9.195312 19.984375 9.242188 19.59375 9.273438 C 19.203125 9.304688 18.792969 9.324219 18.371094 9.324219 C 17.945312 9.324219 17.539062 9.304688 17.148438 9.273438 C 16.753906 9.242188 16.410156 9.195312 16.109375 9.136719 C 15.808594 9.074219 15.578125 9.007812 15.417969 8.929688 C 15.253906 8.847656 15.171875 8.769531 15.171875 8.683594 C 15.171875 8.597656 15.253906 8.515625 15.417969 8.4375 C 15.578125 8.359375 15.808594 8.292969 16.109375 8.230469 C 16.410156 8.171875 16.753906 8.125 17.148438 8.09375 C 17.539062 8.058594 17.945312 8.042969 18.371094 8.042969 C 18.792969 8.042969 19.203125 8.058594 19.59375 8.09375 C 19.984375 8.125 20.332031 8.171875 20.628906 8.230469 C 20.929688 8.292969 21.160156 8.359375 21.324219 8.4375 C 21.484375 8.515625 21.566406 8.597656 21.566406 8.683594 Z M 21.566406 8.683594 " fill-opacity="1" fill-rule="nonzero"/><path fill="rgb(100%, 47.44873%, 14.509583%)" d="M 24.066406 10.632812 C 24.074219 10.734375 23.972656 10.84375 23.761719 10.960938 C 23.546875 11.074219 23.238281 11.191406 22.832031 11.304688 C 22.429688 11.417969 21.957031 11.519531 21.421875 11.609375 C 20.886719 11.703125 20.328125 11.777344 19.746094 11.835938 C 19.164062 11.894531 18.601562 11.929688 18.058594 11.945312 C 17.515625 11.957031 17.035156 11.949219 16.617188 11.917969 C 16.195312 11.886719 15.871094 11.835938 15.636719 11.761719 C 15.40625 11.691406 15.28125 11.605469 15.273438 11.5 C 15.261719 11.398438 15.363281 11.289062 15.578125 11.171875 C 15.792969 11.058594 16.101562 10.941406 16.503906 10.828125 C 16.910156 10.714844 17.378906 10.613281 17.914062 10.519531 C 18.449219 10.429688 19.007812 10.355469 19.589844 10.296875 C 20.175781 10.238281 20.738281 10.203125 21.28125 10.1875 C 21.824219 10.175781 22.304688 10.183594 22.722656 10.214844 C 23.140625 10.246094 23.46875 10.296875 23.699219 10.371094 C 23.933594 10.441406 24.054688 10.527344 24.066406 10.632812 Z M 24.066406 10.632812 " fill-opacity="1" fill-rule="nonzero"/><path fill="rgb(100%, 47.44873%, 14.509583%)" d="M 21.726562 16.296875 C 22.511719 16.296875 22.511719 15.109375 21.726562 15.109375 C 20.941406 15.109375 20.941406 16.296875 21.726562 16.296875 Z M 21.726562 16.296875 " fill-opacity="1" fill-rule="nonzero"/><path fill="rgb(100%, 47.44873%, 14.509583%)" d="M 23.9375 14.863281 C 24.632812 14.863281 24.632812 13.8125 23.9375 13.8125 C 23.238281 13.8125 23.238281 14.863281 23.9375 14.863281 Z M 23.9375 14.863281 " fill-opacity="1" fill-rule="nonzero"/><path fill="rgb(100%, 47.44873%, 14.509583%)" d="M 26.292969 14.160156 C 26.90625 14.160156 26.90625 13.238281 26.292969 13.238281 C 25.683594 13.238281 25.683594 14.160156 26.292969 14.160156 Z M 26.292969 14.160156 " fill-opacity="1" fill-rule="nonzero"/><path fill="rgb(100%, 47.44873%, 14.509583%)" d="M 28.582031 14.753906 C 29.105469 14.753906 29.105469 13.960938 28.582031 13.960938 C 28.058594 13.960938 28.058594 14.753906 28.582031 14.753906 Z M 28.582031 14.753906 " fill-opacity="1" fill-rule="nonzero"/><path fill="rgb(100%, 47.44873%, 14.509583%)" d="M 29.761719 15.964844 C 30.113281 15.964844 30.113281 15.4375 29.761719 15.4375 C 29.414062 15.4375 29.414062 15.964844 29.761719 15.964844 Z M 29.761719 15.964844 " fill-opacity="1" fill-rule="nonzero"/><g clip-path="url(#id2)"><path fill="rgb(100%, 47.44873%, 14.509583%)" d="M 6.152344 7.285156 C 6.035156 7.207031 5.90625 7.128906 5.765625 7.117188 C 5.496094 7.097656 5.28125 7.320312 5.117188 7.53125 C 4.425781 8.425781 3.902344 9.4375 3.574219 10.511719 C 3.558594 10.5625 3.542969 10.617188 3.554688 10.667969 C 3.582031 10.765625 3.691406 10.808594 3.789062 10.84375 C 4.710938 11.140625 5.640625 11.445312 6.609375 11.523438 C 6.707031 11.53125 6.8125 11.535156 6.90625 11.496094 C 7.015625 11.449219 7.085938 11.347656 7.152344 11.25 C 7.476562 10.773438 8.640625 9.570312 8.464844 8.996094 C 8.285156 8.40625 6.667969 7.617188 6.152344 7.285156 Z M 6.152344 7.285156 " fill-opacity="1" fill-rule="nonzero"/></g><path fill="rgb(100%, 47.44873%, 14.509583%)" d="M 12.828125 4.90625 C 13.464844 5.320312 14.96875 4.496094 15.601562 4.238281 C 15.667969 4.210938 15.742188 4.179688 15.78125 4.117188 C 15.835938 4.035156 15.828125 3.929688 15.816406 3.828125 C 15.699219 2.867188 15.523438 1.914062 15.289062 0.976562 C 15.242188 0.789062 15.1875 0.59375 15.054688 0.460938 C 14.855469 0.265625 14.550781 0.28125 14.285156 0.332031 C 13.367188 0.507812 12.523438 0.953125 11.691406 1.390625 C 11.597656 1.441406 11.496094 1.496094 11.433594 1.59375 C 11.308594 1.796875 11.417969 2.070312 11.527344 2.285156 C 11.847656 2.925781 12.242188 4.527344 12.828125 4.90625 Z M 12.828125 4.90625 " fill-opacity="1" fill-rule="nonzero"/><path fill="rgb(100%, 47.44873%, 14.509583%)" d="M 22.75 3.660156 C 23.050781 4.261719 24.871094 5.414062 25.515625 5.132812 C 25.652344 5.074219 25.75 4.960938 25.847656 4.851562 C 26.351562 4.273438 26.855469 3.695312 27.363281 3.117188 C 27.480469 2.980469 27.605469 2.8125 27.546875 2.644531 C 27.511719 2.546875 27.421875 2.476562 27.335938 2.417969 C 26.625 1.910156 25.855469 1.488281 25.070312 1.09375 C 24.640625 0.878906 24.097656 0.675781 23.699219 0.941406 C 23.070312 1.363281 22.390625 2.949219 22.75 3.660156 Z M 22.75 3.660156 " fill-opacity="1" fill-rule="nonzero"/><g clip-path="url(#id3)"><path fill="rgb(100%, 47.44873%, 14.509583%)" d="M 29.78125 8.796875 C 29.652344 9.148438 30.25 10.066406 30.382812 10.433594 C 30.527344 10.824219 30.699219 11.269531 31.097656 11.417969 C 31.320312 11.503906 31.566406 11.472656 31.800781 11.4375 C 32.453125 11.335938 33.097656 11.183594 33.730469 10.992188 C 33.871094 10.945312 34.023438 10.894531 34.109375 10.773438 C 34.230469 10.605469 34.175781 10.378906 34.113281 10.183594 C 33.824219 9.230469 33.515625 8.246094 32.84375 7.496094 C 32.789062 7.433594 32.726562 7.367188 32.648438 7.335938 C 32.5625 7.296875 32.46875 7.296875 32.378906 7.308594 C 31.984375 7.351562 31.636719 7.574219 31.304688 7.789062 C 31.003906 7.984375 29.894531 8.476562 29.78125 8.796875 Z M 29.78125 8.796875 " fill-opacity="1" fill-rule="nonzero"/></g><path fill="rgb(19.219971%, 0%, 0%)" d="M 25.632812 16.949219 C 27.25 17.058594 27.242188 20.175781 25.625 20.273438 C 25.574219 20.273438 25.527344 20.277344 25.476562 20.277344 C 25.425781 20.277344 25.375 20.273438 25.324219 20.269531 C 23.710938 20.164062 23.710938 17.058594 25.324219 16.949219 C 25.375 16.945312 25.425781 16.945312 25.476562 16.945312 C 25.527344 16.945312 25.578125 16.945312 25.632812 16.949219 Z M 25.632812 16.949219 " fill-opacity="1" fill-rule="nonzero"/><path fill="rgb(19.219971%, 0%, 0%)" d="M 12.90625 17.4375 C 12.683594 17.464844 12.472656 17.535156 12.296875 17.65625 C 11.273438 18.355469 11.351562 20.386719 12.347656 21.082031 C 13.542969 21.917969 14.472656 20.160156 14.5625 19.210938 C 14.660156 18.148438 14.027344 17.300781 12.90625 17.4375 Z M 12.90625 17.4375 " fill-opacity="1" fill-rule="nonzero"/></svg>