<svg xmlns="http://www.w3.org/2000/svg" xmlns:xlink="http://www.w3.org/1999/xlink" width="50" zoomAndPan="magnify" viewBox="0 0 37.5 37.499999" height="50" preserveAspectRatio="xMidYMid meet" version="1.0"><defs><clipPath id="id1"><path d="M 4.566406 0 L 33 0 L 33 37 L 4.566406 37 Z M 4.566406 0 " clip-rule="nonzero"/></clipPath><clipPath id="id2"><path d="M 14 33 L 26 33 L 26 37.007812 L 14 37.007812 Z M 14 33 " clip-rule="nonzero"/></clipPath></defs><g clip-path="url(#id1)"><path fill="rgb(19.219971%, 0%, 0%)" d="M 32.46875 18.820312 C 32.472656 18.976562 32.480469 19.128906 32.484375 19.296875 C 30.070312 22.449219 25.117188 24.632812 26.050781 29.507812 C 26.324219 30.929688 26.734375 31.828125 27.289062 33.148438 C 26.414062 34.085938 24.671875 35.511719 23.710938 36.140625 C 22.628906 35.359375 21.867188 34.984375 20.441406 34.742188 C 18.335938 34.480469 16.535156 34.898438 14.996094 36.230469 C 14.011719 35.613281 12.195312 34.292969 11.265625 33.378906 C 11.921875 30.523438 13.015625 29.066406 11.84375 26.03125 C 10.582031 22.890625 7.738281 24.859375 5.316406 22.148438 C 5.3125 22.015625 4.949219 18.964844 4.945312 18.832031 C 4.578125 8.425781 7.851562 0 18.046875 0 C 28.925781 0 32.105469 8.425781 32.46875 18.820312 Z M 32.46875 18.820312 " fill-opacity="1" fill-rule="nonzero"/></g><g clip-path="url(#id2)"><path fill="rgb(100%, 50.19989%, 9.799194%)" d="M 20.789062 33.769531 C 21.40625 33.773438 22.019531 33.820312 22.625 33.910156 C 23.128906 33.980469 23.625 34.097656 24.105469 34.257812 C 24.207031 34.292969 25.421875 34.84375 25.386719 34.882812 C 23.585938 36.820312 20.878906 37.5 19.328125 37.480469 C 17.753906 37.460938 16.050781 36.90625 14.375 35.871094 C 15.859375 34.582031 17.757812 33.941406 19.703125 33.800781 C 20.0625 33.777344 20.425781 33.765625 20.789062 33.769531 Z M 20.789062 33.769531 " fill-opacity="1" fill-rule="nonzero"/></g><path fill="rgb(100%, 50.19989%, 9.799194%)" d="M 22.550781 29.574219 C 21.839844 28.835938 20.925781 28.703125 20.058594 29.199219 C 19.546875 29.496094 18.996094 29.894531 18.375 29.539062 C 17.957031 29.308594 17.609375 28.902344 17.097656 28.914062 C 16.535156 28.921875 16.003906 29.230469 15.617188 29.597656 C 15.292969 29.894531 15.019531 30.246094 14.71875 30.566406 L 23.390625 30.730469 C 23.464844 30.644531 22.644531 29.683594 22.550781 29.574219 Z M 22.550781 29.574219 " fill-opacity="1" fill-rule="nonzero"/><path fill="rgb(100%, 50.19989%, 9.799194%)" d="M 23.394531 31.152344 C 23.363281 31.207031 22.527344 32.605469 20.730469 32.648438 C 20.390625 32.660156 20.117188 32.484375 19.804688 32.386719 C 19.511719 32.296875 19.199219 32.277344 18.902344 32.332031 C 18.375 32.429688 17.941406 32.671875 17.386719 32.640625 C 16.898438 32.605469 16.414062 32.429688 15.992188 32.152344 C 15.871094 32.078125 14.636719 31.0625 14.691406 31.007812 C 14.703125 30.996094 14.710938 30.984375 14.722656 30.972656 Z M 23.394531 31.152344 " fill-opacity="1" fill-rule="nonzero"/><path fill="rgb(100%, 50.19989%, 9.799194%)" d="M 28.511719 17.4375 L 26.40625 15.648438 C 25.417969 14.804688 24.308594 14.824219 23.390625 15.683594 L 21.523438 17.417969 Z M 28.511719 17.4375 " fill-opacity="1" fill-rule="nonzero"/><path fill="rgb(100%, 50.19989%, 9.799194%)" d="M 10.152344 16.289062 C 11.230469 15.757812 12.527344 15.746094 13.640625 16.265625 L 16.039062 17.367188 L 7.960938 17.367188 Z M 10.152344 16.289062 " fill-opacity="1" fill-rule="nonzero"/><path fill="rgb(100%, 50.19989%, 9.799194%)" d="M 18.703125 17.785156 L 19.785156 18.902344 L 20.789062 24.492188 L 20.265625 26.585938 L 17.371094 26.585938 L 16.722656 24.546875 L 17.363281 19.109375 L 18.316406 17.808594 C 18.410156 17.6875 18.601562 17.675781 18.703125 17.785156 Z M 18.703125 17.785156 " fill-opacity="1" fill-rule="nonzero"/><path fill="rgb(0.389099%, 54.508972%, 32.939148%)" d="M 11.480469 33.585938 C 8.035156 30.222656 6.125 27.378906 5.101562 20.914062 C 8.171875 22.4375 11.289062 22.1875 12.550781 25.339844 C 13.734375 28.359375 13.011719 31.128906 11.480469 33.585938 Z M 11.480469 33.585938 " fill-opacity="1" fill-rule="nonzero"/><path fill="rgb(0.389099%, 54.508972%, 32.939148%)" d="M 15.046875 9.730469 C 14.945312 9.378906 14.867188 9.042969 14.789062 8.691406 C 14.414062 6.976562 14.480469 4.796875 15.90625 3.476562 C 16.910156 2.542969 18.671875 2.269531 20.089844 2.988281 C 21.761719 3.84375 22.207031 5.660156 22.097656 7.085938 C 21.960938 8.785156 21.394531 10.421875 20.644531 11.960938 C 20.277344 12.722656 19.851562 13.453125 19.429688 14.1875 C 19.15625 14.667969 18.875 15.425781 18.09375 15.472656 C 17.355469 15.523438 16.859375 14.714844 16.675781 14.246094 C 16.085938 12.789062 15.46875 11.25 15.046875 9.730469 Z M 15.046875 9.730469 " fill-opacity="1" fill-rule="nonzero"/><path fill="rgb(96.078491%, 16.468811%, 13.729858%)" d="M 32.367188 17.367188 C 33.074219 24.613281 30.148438 30.101562 27.011719 33.457031 C 26.464844 32.132812 25.808594 30.820312 25.527344 29.398438 C 24.589844 24.523438 28.472656 19.683594 32.367188 17.367188 Z M 32.367188 17.367188 " fill-opacity="1" fill-rule="nonzero"/><path fill="rgb(96.078491%, 16.468811%, 13.729858%)" d="M 28.527344 18.117188 L 21.539062 18.117188 L 23.644531 19.90625 C 24.632812 20.746094 25.742188 20.726562 26.660156 19.871094 Z M 28.527344 18.117188 " fill-opacity="1" fill-rule="nonzero"/><path fill="rgb(96.078491%, 16.468811%, 13.729858%)" d="M 13.855469 18.855469 C 12.777344 19.386719 11.480469 19.398438 10.363281 18.878906 L 7.964844 17.777344 L 16.042969 17.777344 Z M 13.855469 18.855469 " fill-opacity="1" fill-rule="nonzero"/><path fill="rgb(96.078491%, 16.468811%, 13.729858%)" d="M 16.011719 9.800781 C 15.914062 9.546875 15.828125 9.285156 15.738281 9.03125 C 15.328125 7.742188 15.214844 6.074219 16.207031 4.960938 C 16.898438 4.179688 18.21875 3.835938 19.339844 4.289062 C 20.679688 4.816406 21.148438 6.1875 21.164062 7.277344 C 21.1875 8.589844 20.878906 9.867188 20.410156 11.113281 C 20.1875 11.722656 19.921875 12.304688 19.65625 12.902344 C 19.480469 13.285156 19.324219 13.894531 18.726562 13.980469 C 18.167969 14.070312 17.734375 13.484375 17.570312 13.144531 C 17.019531 12.0625 16.449219 10.9375 16.011719 9.800781 Z M 16.011719 9.800781 " fill-opacity="1" fill-rule="nonzero"/><path fill="rgb(96.078491%, 16.468811%, 13.729858%)" d="M 17.59375 26.574219 C 17.171875 26.597656 16.753906 26.597656 16.332031 26.574219 C 15.742188 26.542969 15.332031 25.945312 15.582031 25.4375 L 15.582031 25.429688 C 15.746094 25.097656 16.035156 24.832031 16.375 24.699219 C 16.507812 24.644531 16.648438 24.613281 16.78125 24.613281 C 16.875 24.699219 17.023438 24.84375 17.082031 24.953125 C 17.140625 25.054688 17.199219 25.164062 17.238281 25.273438 C 17.453125 25.714844 17.609375 26.089844 17.59375 26.574219 Z M 17.59375 26.574219 " fill-opacity="1" fill-rule="nonzero"/><path fill="rgb(96.078491%, 16.468811%, 13.729858%)" d="M 20.289062 25.175781 C 20.328125 25.0625 20.371094 24.933594 20.433594 24.832031 C 20.496094 24.714844 20.632812 24.554688 20.71875 24.464844 C 20.863281 24.464844 21 24.507812 21.132812 24.566406 C 21.480469 24.726562 21.792969 25.027344 21.957031 25.394531 L 21.960938 25.40625 C 22.234375 25.980469 21.8125 26.636719 21.191406 26.648438 C 20.792969 26.660156 20.394531 26.648438 19.996094 26.613281 C 19.964844 26.082031 20.117188 25.671875 20.289062 25.175781 Z M 20.289062 25.175781 " fill-opacity="1" fill-rule="nonzero"/><path fill="rgb(96.078491%, 16.468811%, 13.729858%)" d="M 15.125 14.335938 C 15.722656 14.335938 15.753906 15.230469 15.15625 15.230469 C 14.570312 15.230469 14.539062 14.335938 15.125 14.335938 Z M 15.125 14.335938 " fill-opacity="1" fill-rule="nonzero"/><path fill="rgb(96.078491%, 16.468811%, 13.729858%)" d="M 13.585938 13.375 C 14.183594 13.375 14.214844 14.269531 13.617188 14.269531 C 13.015625 14.269531 12.984375 13.375 13.585938 13.375 Z M 13.585938 13.375 " fill-opacity="1" fill-rule="nonzero"/><path fill="rgb(96.078491%, 16.468811%, 13.729858%)" d="M 11.625 12.75 C 12.222656 12.75 12.253906 13.640625 11.65625 13.640625 C 11.066406 13.640625 11.035156 12.75 11.625 12.75 Z M 11.625 12.75 " fill-opacity="1" fill-rule="nonzero"/><path fill="rgb(96.078491%, 16.468811%, 13.729858%)" d="M 9.914062 12.375 C 10.511719 12.375 10.542969 13.265625 9.945312 13.265625 C 9.347656 13.265625 9.316406 12.375 9.914062 12.375 Z M 9.914062 12.375 " fill-opacity="1" fill-rule="nonzero"/><path fill="rgb(96.078491%, 16.468811%, 13.729858%)" d="M 8.183594 12.605469 C 8.78125 12.605469 8.8125 13.496094 8.214844 13.496094 C 7.617188 13.496094 7.585938 12.605469 8.183594 12.605469 Z M 8.183594 12.605469 " fill-opacity="1" fill-rule="nonzero"/><path fill="rgb(96.078491%, 16.468811%, 13.729858%)" d="M 9.730469 30.1875 L 11.882812 28.015625 L 12.476562 28.601562 L 10.328125 30.773438 Z M 9.730469 30.1875 " fill-opacity="1" fill-rule="nonzero"/><path fill="rgb(96.078491%, 16.468811%, 13.729858%)" d="M 8.015625 25.878906 L 10.519531 23.664062 L 9.96875 23.046875 L 7.464844 25.261719 Z M 8.015625 25.878906 " fill-opacity="1" fill-rule="nonzero"/><path fill="rgb(98.039246%, 95.289612%, 72.938538%)" d="M 16.847656 9.542969 C 16.789062 9.363281 16.726562 9.199219 16.664062 9.023438 C 16.390625 8.164062 16.316406 7.039062 16.980469 6.289062 C 17.449219 5.757812 18.324219 5.527344 19.089844 5.835938 C 19.988281 6.199219 20.308594 7.117188 20.3125 7.84375 C 20.332031 8.726562 20.121094 9.585938 19.804688 10.421875 C 19.652344 10.832031 19.46875 11.226562 19.292969 11.625 C 19.179688 11.878906 19.074219 12.285156 18.675781 12.351562 C 18.300781 12.410156 18.011719 12.023438 17.890625 11.789062 C 17.535156 11.0625 17.140625 10.300781 16.847656 9.542969 Z M 16.847656 9.542969 " fill-opacity="1" fill-rule="nonzero"/><path fill="rgb(98.039246%, 95.289612%, 72.938538%)" d="M 30.109375 27.027344 L 27.488281 24.613281 L 26.941406 25.195312 L 29.566406 27.613281 Z M 30.109375 27.027344 " fill-opacity="1" fill-rule="nonzero"/><path fill="rgb(98.039246%, 95.289612%, 72.938538%)" d="M 9.1875 28.554688 L 11.640625 26.140625 L 11.054688 25.558594 L 8.601562 27.972656 Z M 9.1875 28.554688 " fill-opacity="1" fill-rule="nonzero"/><path fill="rgb(0.389099%, 54.508972%, 32.939148%)" d="M 22.273438 15.398438 C 21.59375 15.558594 21.21875 14.105469 21.898438 13.949219 C 22.578125 13.789062 22.957031 15.242188 22.273438 15.398438 Z M 22.273438 15.398438 " fill-opacity="1" fill-rule="nonzero"/><path fill="rgb(0.389099%, 54.508972%, 32.939148%)" d="M 23.582031 13.445312 C 22.902344 13.601562 22.523438 12.152344 23.207031 11.992188 C 23.886719 11.835938 24.265625 13.285156 23.582031 13.445312 Z M 23.582031 13.445312 " fill-opacity="1" fill-rule="nonzero"/><path fill="rgb(0.389099%, 54.508972%, 32.939148%)" d="M 25.523438 11.910156 C 24.84375 12.070312 24.464844 10.617188 25.144531 10.460938 C 25.824219 10.300781 26.203125 11.753906 25.523438 11.910156 Z M 25.523438 11.910156 " fill-opacity="1" fill-rule="nonzero"/><path fill="rgb(0.389099%, 54.508972%, 32.939148%)" d="M 27.292969 10.855469 C 26.613281 11.011719 26.234375 9.5625 26.914062 9.402344 C 27.59375 9.246094 27.972656 10.695312 27.292969 10.855469 Z M 27.292969 10.855469 " fill-opacity="1" fill-rule="nonzero"/><path fill="rgb(0.389099%, 54.508972%, 32.939148%)" d="M 29.382812 10.769531 C 28.699219 10.925781 28.324219 9.476562 29.003906 9.316406 C 29.683594 9.160156 30.050781 10.613281 29.382812 10.769531 Z M 29.382812 10.769531 " fill-opacity="1" fill-rule="nonzero"/><path fill="rgb(0.389099%, 54.508972%, 32.939148%)" d="M 27.039062 30.902344 L 27.464844 27.773438 L 28.265625 27.878906 L 27.839844 31.011719 Z M 27.039062 30.902344 " fill-opacity="1" fill-rule="nonzero"/><path fill="rgb(0.389099%, 54.508972%, 32.939148%)" d="M 30.671875 24.894531 L 29.554688 21.628906 L 28.796875 21.890625 L 29.914062 25.160156 Z M 30.671875 24.894531 " fill-opacity="1" fill-rule="nonzero"/></svg>