<svg xmlns="http://www.w3.org/2000/svg" xmlns:xlink="http://www.w3.org/1999/xlink" width="50" zoomAndPan="magnify" viewBox="0 0 37.5 37.499999" height="50" preserveAspectRatio="xMidYMid meet" version="1.0"><path fill="rgb(0%, 55.688477%, 27.839661%)" d="M 18.535156 13.226562 C 20.464844 10.027344 24.757812 6.640625 28.285156 5.261719 C 26.761719 3.527344 24.363281 1.53125 22.089844 0.714844 C 20.609375 0.179688 19.015625 -0.00390625 17.453125 0.195312 C 16.863281 0.269531 16.265625 0.410156 15.671875 0.605469 C 12.730469 1.570312 9.722656 4.21875 7.898438 6.671875 C 12.066406 6.914062 15.726562 9.988281 18.535156 13.226562 Z M 18.535156 13.226562 " fill-opacity="1" fill-rule="nonzero"/><path fill="rgb(18.818665%, 7.449341%, 7.449341%)" d="M 27.773438 4.648438 C 24.246094 6.027344 20.464844 8.503906 18.535156 11.703125 C 15.726562 8.460938 12.566406 6.199219 8.398438 5.957031 C 7.230469 7.53125 6.34375 9.3125 5.808594 11.191406 C 4.632812 15.296875 4.980469 19.738281 6.128906 23.804688 C 7.207031 27.628906 8.996094 31.96875 12.179688 34.527344 C 14.925781 36.726562 18.796875 37.496094 22.203125 36.679688 C 29.710938 34.875 32.757812 27.269531 32.902344 20.25 C 33.007812 14.96875 31.425781 8.796875 27.773438 4.648438 Z M 27.773438 4.648438 " fill-opacity="1" fill-rule="nonzero"/><path fill="rgb(97.24884%, 96.859741%, 80.778503%)" d="M 28.761719 27.84375 C 28.761719 28.324219 28.703125 28.800781 28.582031 29.269531 C 28.464844 29.742188 28.292969 30.199219 28.0625 30.640625 C 27.828125 31.085938 27.546875 31.507812 27.210938 31.90625 C 26.875 32.304688 26.496094 32.671875 26.070312 33.011719 C 25.640625 33.351562 25.179688 33.65625 24.675781 33.921875 C 24.175781 34.1875 23.644531 34.414062 23.085938 34.597656 C 22.53125 34.78125 21.957031 34.917969 21.363281 35.011719 C 20.769531 35.105469 20.171875 35.152344 19.570312 35.152344 C 18.96875 35.152344 18.371094 35.105469 17.777344 35.011719 C 17.1875 34.917969 16.609375 34.78125 16.054688 34.597656 C 15.496094 34.414062 14.964844 34.1875 14.464844 33.921875 C 13.960938 33.65625 13.5 33.351562 13.070312 33.011719 C 12.644531 32.671875 12.265625 32.304688 11.929688 31.90625 C 11.59375 31.507812 11.3125 31.085938 11.078125 30.640625 C 10.847656 30.199219 10.675781 29.742188 10.558594 29.269531 C 10.4375 28.800781 10.378906 28.324219 10.378906 27.84375 C 10.378906 27.363281 10.4375 26.890625 10.558594 26.417969 C 10.675781 25.949219 10.847656 25.492188 11.078125 25.046875 C 11.3125 24.605469 11.59375 24.183594 11.929688 23.785156 C 12.265625 23.386719 12.644531 23.015625 13.070312 22.675781 C 13.5 22.335938 13.960938 22.035156 14.464844 21.769531 C 14.964844 21.5 15.496094 21.277344 16.054688 21.09375 C 16.609375 20.910156 17.1875 20.769531 17.777344 20.675781 C 18.371094 20.582031 18.96875 20.535156 19.570312 20.535156 C 20.171875 20.535156 20.769531 20.582031 21.363281 20.675781 C 21.957031 20.769531 22.53125 20.910156 23.085938 21.09375 C 23.644531 21.277344 24.175781 21.5 24.675781 21.769531 C 25.179688 22.035156 25.640625 22.335938 26.070312 22.675781 C 26.496094 23.015625 26.875 23.386719 27.210938 23.785156 C 27.546875 24.183594 27.828125 24.605469 28.0625 25.046875 C 28.292969 25.492188 28.464844 25.949219 28.582031 26.417969 C 28.703125 26.890625 28.761719 27.363281 28.761719 27.84375 Z M 28.761719 27.84375 " fill-opacity="1" fill-rule="nonzero"/><path fill="rgb(88.62915%, 18.429565%, 16.468811%)" d="M 18.339844 2.304688 C 18.269531 2.667969 16.242188 25.492188 16.242188 25.492188 L 22.394531 25.492188 Z M 18.339844 2.304688 " fill-opacity="1" fill-rule="nonzero"/><path fill="rgb(0%, 55.688477%, 27.839661%)" d="M 18.535156 27.84375 L 15.425781 27.84375 L 15.425781 27.453125 C 15.425781 26.808594 15.953125 26.285156 16.601562 26.285156 L 17.355469 26.285156 C 18.007812 26.285156 18.535156 26.808594 18.535156 27.453125 Z M 18.535156 27.84375 " fill-opacity="1" fill-rule="nonzero"/><path fill="rgb(0%, 55.688477%, 27.839661%)" d="M 23.671875 27.84375 L 20.355469 27.84375 L 20.355469 27.09375 C 20.355469 26.449219 20.882812 25.925781 21.535156 25.925781 L 22.496094 25.925781 C 23.144531 25.925781 23.671875 26.449219 23.671875 27.09375 Z M 23.671875 27.84375 " fill-opacity="1" fill-rule="nonzero"/><path fill="rgb(95.689392%, 50.19989%, 12.548828%)" d="M 23.519531 29.097656 L 15.816406 29.507812 C 15.007812 29.550781 14.378906 30.207031 14.398438 30.980469 L 25.089844 30.445312 C 25.042969 29.65625 24.339844 29.054688 23.519531 29.097656 Z M 23.519531 29.097656 " fill-opacity="1" fill-rule="nonzero"/><path fill="rgb(88.62915%, 18.429565%, 16.468811%)" d="M 14.421875 31.417969 C 14.421875 31.429688 14.421875 31.445312 14.421875 31.457031 L 14.433594 31.675781 C 14.476562 32.46875 15.179688 33.074219 16.007812 33.03125 L 23.707031 32.621094 C 24.53125 32.578125 25.167969 31.898438 25.125 31.105469 L 25.113281 30.890625 C 25.113281 30.886719 25.113281 30.882812 25.113281 30.882812 Z M 14.421875 31.417969 " fill-opacity="1" fill-rule="nonzero"/><path fill="rgb(95.689392%, 50.19989%, 12.548828%)" d="M 15.425781 14.871094 C 15.425781 15.179688 15.3125 15.480469 15.085938 15.765625 C 14.859375 16.054688 14.539062 16.304688 14.121094 16.527344 C 13.703125 16.746094 13.222656 16.914062 12.675781 17.035156 C 12.132812 17.152344 11.5625 17.210938 10.972656 17.210938 C 10.382812 17.210938 9.816406 17.152344 9.269531 17.035156 C 8.726562 16.914062 8.246094 16.746094 7.828125 16.527344 C 7.410156 16.304688 7.089844 16.054688 6.863281 15.765625 C 6.636719 15.480469 6.523438 15.179688 6.523438 14.871094 C 6.523438 14.5625 6.636719 14.261719 6.863281 13.976562 C 7.089844 13.6875 7.410156 13.4375 7.828125 13.214844 C 8.246094 12.996094 8.726562 12.828125 9.269531 12.710938 C 9.816406 12.589844 10.382812 12.53125 10.972656 12.53125 C 11.5625 12.53125 12.132812 12.589844 12.675781 12.710938 C 13.222656 12.828125 13.703125 12.996094 14.121094 13.214844 C 14.539062 13.4375 14.859375 13.6875 15.085938 13.976562 C 15.3125 14.261719 15.425781 14.5625 15.425781 14.871094 Z M 15.425781 14.871094 " fill-opacity="1" fill-rule="nonzero"/><path fill="rgb(88.62915%, 18.429565%, 16.468811%)" d="M 13.664062 14.871094 C 13.664062 15.058594 13.597656 15.238281 13.460938 15.414062 C 13.324219 15.585938 13.128906 15.738281 12.875 15.871094 C 12.625 16.003906 12.332031 16.105469 12.003906 16.179688 C 11.675781 16.25 11.332031 16.285156 10.972656 16.285156 C 10.617188 16.285156 10.273438 16.25 9.945312 16.179688 C 9.613281 16.105469 9.324219 16.003906 9.070312 15.871094 C 8.820312 15.738281 8.625 15.585938 8.488281 15.414062 C 8.351562 15.238281 8.285156 15.058594 8.285156 14.871094 C 8.285156 14.683594 8.351562 14.503906 8.488281 14.328125 C 8.625 14.15625 8.820312 14.003906 9.070312 13.871094 C 9.324219 13.738281 9.613281 13.636719 9.945312 13.5625 C 10.273438 13.492188 10.617188 13.457031 10.972656 13.457031 C 11.332031 13.457031 11.675781 13.492188 12.003906 13.5625 C 12.332031 13.636719 12.625 13.738281 12.875 13.871094 C 13.128906 14.003906 13.324219 14.15625 13.460938 14.328125 C 13.597656 14.503906 13.664062 14.683594 13.664062 14.871094 Z M 13.664062 14.871094 " fill-opacity="1" fill-rule="nonzero"/><path fill="rgb(95.689392%, 50.19989%, 12.548828%)" d="M 31.292969 14.332031 C 31.292969 14.714844 31.179688 15.082031 30.953125 15.433594 C 30.730469 15.785156 30.40625 16.097656 29.988281 16.367188 C 29.574219 16.636719 29.089844 16.847656 28.546875 16.992188 C 28 17.136719 27.433594 17.210938 26.84375 17.210938 C 26.253906 17.210938 25.683594 17.136719 25.140625 16.992188 C 24.59375 16.847656 24.113281 16.636719 23.695312 16.367188 C 23.277344 16.097656 22.957031 15.785156 22.730469 15.433594 C 22.503906 15.082031 22.394531 14.714844 22.394531 14.332031 C 22.394531 13.949219 22.503906 13.582031 22.730469 13.230469 C 22.957031 12.875 23.277344 12.566406 23.695312 12.292969 C 24.113281 12.023438 24.59375 11.816406 25.140625 11.671875 C 25.683594 11.523438 26.253906 11.449219 26.84375 11.449219 C 27.433594 11.449219 28 11.523438 28.546875 11.671875 C 29.089844 11.816406 29.574219 12.023438 29.988281 12.292969 C 30.40625 12.566406 30.730469 12.875 30.953125 13.230469 C 31.179688 13.582031 31.292969 13.949219 31.292969 14.332031 Z M 31.292969 14.332031 " fill-opacity="1" fill-rule="nonzero"/><path fill="rgb(88.62915%, 18.429565%, 16.468811%)" d="M 29.535156 14.332031 C 29.535156 14.5625 29.464844 14.785156 29.328125 14.996094 C 29.191406 15.210938 28.996094 15.398438 28.746094 15.5625 C 28.492188 15.726562 28.203125 15.851562 27.871094 15.941406 C 27.542969 16.027344 27.199219 16.074219 26.84375 16.074219 C 26.484375 16.074219 26.144531 16.027344 25.8125 15.941406 C 25.484375 15.851562 25.191406 15.726562 24.941406 15.5625 C 24.6875 15.398438 24.492188 15.210938 24.359375 14.996094 C 24.222656 14.785156 24.152344 14.5625 24.152344 14.332031 C 24.152344 14.101562 24.222656 13.878906 24.359375 13.664062 C 24.492188 13.453125 24.6875 13.261719 24.941406 13.101562 C 25.191406 12.9375 25.484375 12.8125 25.8125 12.722656 C 26.144531 12.632812 26.484375 12.589844 26.84375 12.589844 C 27.199219 12.589844 27.542969 12.632812 27.871094 12.722656 C 28.203125 12.8125 28.492188 12.9375 28.746094 13.101562 C 28.996094 13.261719 29.191406 13.453125 29.328125 13.664062 C 29.464844 13.878906 29.535156 14.101562 29.535156 14.332031 Z M 29.535156 14.332031 " fill-opacity="1" fill-rule="nonzero"/><path fill="rgb(0%, 55.688477%, 27.839661%)" d="M 13.90625 17.671875 C 11.929688 18.714844 9.558594 18.703125 7.589844 17.648438 C 7.027344 17.347656 6.527344 18.199219 7.089844 18.503906 C 9.378906 19.726562 12.109375 19.734375 14.40625 18.523438 C 14.96875 18.226562 14.46875 17.375 13.90625 17.671875 Z M 13.90625 17.671875 " fill-opacity="1" fill-rule="nonzero"/><path fill="rgb(0%, 55.688477%, 27.839661%)" d="M 12.578125 20.101562 C 11.679688 20.304688 10.773438 20.328125 9.867188 20.167969 C 9.242188 20.054688 8.972656 21.007812 9.601562 21.121094 C 10.691406 21.3125 11.761719 21.296875 12.839844 21.054688 C 13.464844 20.914062 13.199219 19.960938 12.578125 20.101562 Z M 12.578125 20.101562 " fill-opacity="1" fill-rule="nonzero"/><path fill="rgb(0%, 55.688477%, 27.839661%)" d="M 28.785156 17.714844 C 27.71875 18 26.652344 18.023438 25.570312 17.785156 C 24.949219 17.648438 24.683594 18.597656 25.308594 18.738281 C 26.558594 19.015625 27.808594 18.996094 29.050781 18.667969 C 29.667969 18.507812 29.40625 17.554688 28.785156 17.714844 Z M 28.785156 17.714844 " fill-opacity="1" fill-rule="nonzero"/><path fill="rgb(0%, 55.688477%, 27.839661%)" d="M 31.1875 17.75 C 30.25 18.726562 29.03125 19.320312 27.671875 19.417969 C 27.039062 19.464844 27.035156 20.453125 27.671875 20.40625 C 29.292969 20.289062 30.761719 19.621094 31.886719 18.449219 C 32.328125 17.988281 31.628906 17.289062 31.1875 17.75 Z M 31.1875 17.75 " fill-opacity="1" fill-rule="nonzero"/><path fill="rgb(0%, 55.688477%, 27.839661%)" d="M 11.210938 9.210938 C 11.25 9.453125 11.265625 9.6875 11.25 9.917969 C 11.238281 10.148438 11.203125 10.355469 11.136719 10.539062 C 11.074219 10.726562 10.992188 10.875 10.886719 10.984375 C 10.78125 11.097656 10.667969 11.164062 10.535156 11.1875 C 10.40625 11.207031 10.273438 11.183594 10.140625 11.109375 C 10.003906 11.039062 9.878906 10.925781 9.757812 10.769531 C 9.636719 10.613281 9.535156 10.429688 9.449219 10.214844 C 9.359375 10.003906 9.296875 9.777344 9.257812 9.535156 C 9.21875 9.292969 9.203125 9.058594 9.214844 8.828125 C 9.226562 8.597656 9.265625 8.390625 9.328125 8.207031 C 9.390625 8.019531 9.476562 7.871094 9.578125 7.761719 C 9.683594 7.648438 9.800781 7.582031 9.929688 7.5625 C 10.058594 7.539062 10.191406 7.566406 10.328125 7.636719 C 10.460938 7.710938 10.589844 7.824219 10.710938 7.976562 C 10.828125 8.132812 10.933594 8.316406 11.019531 8.53125 C 11.105469 8.746094 11.167969 8.972656 11.210938 9.210938 Z M 11.210938 9.210938 " fill-opacity="1" fill-rule="nonzero"/><path fill="rgb(0%, 55.688477%, 27.839661%)" d="M 14.921875 10.75 C 14.929688 10.9375 14.910156 11.117188 14.871094 11.289062 C 14.828125 11.464844 14.761719 11.617188 14.675781 11.753906 C 14.585938 11.886719 14.484375 11.992188 14.367188 12.070312 C 14.25 12.144531 14.125 12.1875 13.992188 12.191406 C 13.863281 12.199219 13.734375 12.167969 13.609375 12.101562 C 13.484375 12.039062 13.375 11.941406 13.277344 11.8125 C 13.179688 11.6875 13.101562 11.539062 13.042969 11.371094 C 12.984375 11.199219 12.953125 11.023438 12.945312 10.835938 C 12.933594 10.652344 12.953125 10.472656 12.996094 10.300781 C 13.039062 10.125 13.101562 9.972656 13.191406 9.835938 C 13.277344 9.699219 13.378906 9.59375 13.496094 9.519531 C 13.617188 9.441406 13.738281 9.402344 13.871094 9.394531 C 14.003906 9.390625 14.128906 9.421875 14.253906 9.488281 C 14.378906 9.550781 14.488281 9.648438 14.589844 9.777344 C 14.6875 9.902344 14.765625 10.050781 14.824219 10.21875 C 14.878906 10.390625 14.914062 10.566406 14.921875 10.75 Z M 14.921875 10.75 " fill-opacity="1" fill-rule="nonzero"/><path fill="rgb(0%, 55.688477%, 27.839661%)" d="M 23.78125 8.300781 C 23.910156 8.332031 24.019531 8.40625 24.117188 8.515625 C 24.214844 8.625 24.289062 8.761719 24.339844 8.929688 C 24.390625 9.097656 24.417969 9.285156 24.414062 9.488281 C 24.414062 9.691406 24.386719 9.894531 24.332031 10.097656 C 24.277344 10.304688 24.203125 10.496094 24.101562 10.671875 C 24.003906 10.851562 23.890625 11 23.761719 11.121094 C 23.636719 11.242188 23.503906 11.328125 23.363281 11.375 C 23.226562 11.425781 23.09375 11.433594 22.96875 11.398438 C 22.839844 11.367188 22.726562 11.292969 22.632812 11.183594 C 22.535156 11.074219 22.460938 10.9375 22.410156 10.769531 C 22.359375 10.601562 22.332031 10.414062 22.335938 10.210938 C 22.335938 10.007812 22.363281 9.804688 22.417969 9.601562 C 22.472656 9.394531 22.546875 9.203125 22.644531 9.027344 C 22.746094 8.847656 22.859375 8.699219 22.984375 8.578125 C 23.113281 8.457031 23.246094 8.371094 23.386719 8.324219 C 23.523438 8.273438 23.65625 8.265625 23.78125 8.300781 Z M 23.78125 8.300781 " fill-opacity="1" fill-rule="nonzero"/><path fill="rgb(0%, 55.688477%, 27.839661%)" d="M 28.285156 8.839844 C 28.285156 9.003906 28.261719 9.160156 28.210938 9.308594 C 28.160156 9.457031 28.089844 9.589844 27.996094 9.703125 C 27.902344 9.816406 27.796875 9.90625 27.675781 9.96875 C 27.554688 10.027344 27.425781 10.058594 27.296875 10.058594 C 27.164062 10.058594 27.039062 10.027344 26.917969 9.96875 C 26.796875 9.90625 26.6875 9.816406 26.59375 9.703125 C 26.503906 9.589844 26.429688 9.457031 26.378906 9.308594 C 26.332031 9.160156 26.304688 9.003906 26.304688 8.839844 C 26.304688 8.679688 26.332031 8.523438 26.378906 8.375 C 26.429688 8.226562 26.503906 8.09375 26.59375 7.980469 C 26.6875 7.867188 26.796875 7.777344 26.917969 7.714844 C 27.039062 7.652344 27.164062 7.621094 27.296875 7.621094 C 27.425781 7.621094 27.554688 7.652344 27.675781 7.714844 C 27.796875 7.777344 27.902344 7.867188 27.996094 7.980469 C 28.089844 8.09375 28.160156 8.226562 28.210938 8.375 C 28.261719 8.523438 28.285156 8.679688 28.285156 8.839844 Z M 28.285156 8.839844 " fill-opacity="1" fill-rule="nonzero"/></svg>