<svg xmlns="http://www.w3.org/2000/svg" xmlns:xlink="http://www.w3.org/1999/xlink" width="50" zoomAndPan="magnify" viewBox="0 0 37.5 37.499999" height="50" preserveAspectRatio="xMidYMid meet" version="1.0"><defs><clipPath id="id1"><path d="M 2.523438 9 L 10 9 L 10 16 L 2.523438 16 Z M 2.523438 9 " clip-rule="nonzero"/></clipPath><clipPath id="id2"><path d="M 27 16 L 34.773438 16 L 34.773438 27 L 27 27 Z M 27 16 " clip-rule="nonzero"/></clipPath><clipPath id="id3"><path d="M 2.523438 19 L 9 19 L 9 27 L 2.523438 27 Z M 2.523438 19 " clip-rule="nonzero"/></clipPath><clipPath id="id4"><path d="M 4 7 L 31 7 L 31 37.007812 L 4 37.007812 Z M 4 7 " clip-rule="nonzero"/></clipPath></defs><path fill="rgb(2.349854%, 54.508972%, 31.369019%)" d="M 20.722656 4.320312 C 20.722656 6.714844 19.886719 8.640625 18.863281 8.640625 C 17.839844 8.640625 17 6.703125 17 4.320312 C 17 1.9375 17.828125 0 18.851562 0 C 19.886719 0 20.722656 1.9375 20.722656 4.320312 Z M 20.722656 4.320312 " fill-opacity="1" fill-rule="nonzero"/><path fill="rgb(96.078491%, 16.079712%, 10.198975%)" d="M 10.707031 6.289062 C 12.316406 8.039062 13.019531 10.027344 12.265625 10.738281 C 11.515625 11.445312 9.589844 10.585938 7.976562 8.832031 C 6.367188 7.082031 5.664062 5.09375 6.414062 4.382812 C 7.167969 3.675781 9.09375 4.535156 10.707031 6.289062 Z M 10.707031 6.289062 " fill-opacity="1" fill-rule="nonzero"/><path fill="rgb(96.078491%, 16.079712%, 10.198975%)" d="M 25.980469 7.617188 C 25.679688 9.867188 26.183594 11.832031 27.105469 12 C 28.027344 12.167969 29.015625 10.484375 29.316406 8.230469 C 29.617188 5.980469 29.109375 4.015625 28.191406 3.847656 C 27.269531 3.679688 26.277344 5.363281 25.980469 7.617188 Z M 25.980469 7.617188 " fill-opacity="1" fill-rule="nonzero"/><g clip-path="url(#id1)"><path fill="rgb(100%, 50.588989%, 10.978699%)" d="M 7.628906 10.96875 C 9.339844 12.617188 10.152344 14.574219 9.441406 15.3125 C 8.730469 16.058594 6.761719 15.320312 5.046875 13.667969 C 3.335938 12.015625 2.523438 10.070312 3.234375 9.324219 C 3.945312 8.574219 5.914062 9.316406 7.628906 10.96875 Z M 7.628906 10.96875 " fill-opacity="1" fill-rule="nonzero"/></g><path fill="rgb(100%, 50.588989%, 10.978699%)" d="M 13.707031 1.46875 C 12.691406 1.648438 12.191406 3.691406 12.597656 6.042969 C 13 8.398438 14.148438 10.167969 15.164062 9.988281 C 16.175781 9.808594 16.675781 7.765625 16.269531 5.410156 C 15.867188 3.054688 14.722656 1.289062 13.707031 1.46875 Z M 13.707031 1.46875 " fill-opacity="1" fill-rule="nonzero"/><path fill="rgb(100%, 50.588989%, 10.978699%)" d="M 28.984375 11.15625 C 26.890625 12.28125 25.585938 13.9375 26.074219 14.855469 C 26.558594 15.773438 28.652344 15.59375 30.738281 14.464844 C 32.832031 13.34375 34.136719 11.6875 33.648438 10.769531 C 33.164062 9.851562 31.074219 10.019531 28.984375 11.15625 Z M 28.984375 11.15625 " fill-opacity="1" fill-rule="nonzero"/><path fill="rgb(100%, 50.588989%, 10.978699%)" d="M 22.132812 4.820312 C 20.984375 6.910156 20.789062 9.015625 21.683594 9.515625 C 22.578125 10.019531 24.242188 8.722656 25.390625 6.632812 C 26.542969 4.546875 26.738281 2.441406 25.84375 1.941406 C 24.949219 1.4375 23.289062 2.722656 22.132812 4.820312 Z M 22.132812 4.820312 " fill-opacity="1" fill-rule="nonzero"/><g clip-path="url(#id2)"><path fill="rgb(100%, 50.588989%, 10.978699%)" d="M 27.789062 25.316406 C 28.378906 26.144531 29.527344 26.523438 30.492188 26.207031 C 31.519531 25.878906 32.191406 24.917969 32.769531 24.007812 C 33.789062 22.410156 34.765625 20.609375 34.539062 18.726562 C 34.449219 17.980469 34.113281 17.203125 33.441406 16.886719 C 33.023438 16.691406 32.535156 16.703125 32.101562 16.8125 C 30.71875 17.171875 29.800781 18.441406 28.988281 19.628906 " fill-opacity="1" fill-rule="nonzero"/></g><g clip-path="url(#id3)"><path fill="rgb(100%, 50.588989%, 10.978699%)" d="M 7.285156 21.507812 C 6.667969 20.59375 5.953125 19.621094 4.886719 19.335938 C 4.539062 19.25 4.164062 19.242188 3.851562 19.390625 C 3.332031 19.636719 3.074219 20.246094 3.003906 20.8125 C 2.828125 22.265625 3.582031 23.65625 4.367188 24.886719 C 4.816406 25.589844 5.339844 26.324219 6.125 26.582031 C 6.871094 26.820312 7.75 26.535156 8.210938 25.898438 " fill-opacity="1" fill-rule="nonzero"/></g><g clip-path="url(#id4)"><path fill="rgb(17.248535%, 0.779724%, 0.779724%)" d="M 26.699219 8.667969 C 30.03125 10.078125 30.570312 13.765625 30.503906 16.914062 C 30.339844 24.589844 29.320312 36.035156 19.421875 37.394531 C 18.886719 37.46875 18.347656 37.5 17.808594 37.484375 C 13.292969 37.355469 9.816406 34.429688 7.847656 30.621094 C 7.605469 30.152344 7.386719 29.675781 7.1875 29.1875 C 6.21875 26.832031 5.660156 24.316406 5.347656 21.8125 C 4.992188 18.890625 4.691406 15.4375 5.523438 12.59375 C 6.742188 8.441406 10.933594 7.722656 14.785156 7.308594 C 15.851562 7.195312 16.925781 7.128906 18.007812 7.117188 C 20.988281 7.089844 23.992188 7.515625 26.699219 8.667969 Z M 26.699219 8.667969 " fill-opacity="1" fill-rule="nonzero"/></g><path fill="rgb(2.349854%, 54.508972%, 31.369019%)" d="M 23.398438 31.398438 L 13.792969 31.363281 L 13.792969 31.230469 C 13.792969 30.445312 14.464844 29.8125 15.292969 29.8125 L 21.902344 29.8125 C 22.730469 29.8125 23.40625 30.445312 23.40625 31.230469 L 23.40625 31.398438 Z M 23.398438 31.398438 " fill-opacity="1" fill-rule="nonzero"/><path fill="rgb(100%, 50.588989%, 10.978699%)" d="M 13.792969 31.902344 L 13.792969 32.175781 C 13.792969 32.960938 14.464844 33.59375 15.292969 33.59375 L 21.902344 33.59375 C 22.730469 33.59375 23.40625 32.960938 23.40625 32.175781 L 23.40625 31.949219 Z M 13.792969 31.902344 " fill-opacity="1" fill-rule="nonzero"/><path fill="rgb(99.21875%, 87.838745%, 75.289917%)" d="M 16.050781 21.257812 C 16.28125 23.667969 14.578125 25.742188 12.234375 25.890625 C 9.890625 26.035156 7.808594 24.199219 7.578125 21.792969 C 7.347656 19.382812 9.050781 17.308594 11.394531 17.160156 C 13.738281 17.015625 15.820312 18.851562 16.050781 21.257812 Z M 16.050781 21.257812 " fill-opacity="1" fill-rule="nonzero"/><path fill="rgb(99.21875%, 87.838745%, 75.289917%)" d="M 21.097656 21.09375 C 21.335938 23.917969 23.296875 26.070312 25.496094 25.886719 C 27.695312 25.699219 29.28125 23.257812 29.046875 20.433594 C 28.8125 17.605469 26.847656 15.457031 24.648438 15.640625 C 22.453125 15.824219 20.863281 18.265625 21.097656 21.09375 Z M 21.097656 21.09375 " fill-opacity="1" fill-rule="nonzero"/><path fill="rgb(17.248535%, 0.779724%, 0.779724%)" d="M 15.148438 21.128906 C 15.148438 21.128906 13.644531 21.992188 11.804688 21.992188 C 9.960938 21.992188 8.457031 21.132812 8.457031 21.132812 C 8.457031 21.132812 9.960938 20.269531 11.804688 20.269531 C 13.644531 20.269531 15.148438 21.128906 15.148438 21.128906 Z M 15.148438 21.128906 " fill-opacity="1" fill-rule="nonzero"/><path fill="rgb(17.248535%, 0.779724%, 0.779724%)" d="M 21.890625 20.8125 C 21.890625 20.8125 23.445312 21.582031 25.152344 21.304688 C 26.855469 21.027344 28.089844 19.804688 28.089844 19.804688 C 28.089844 19.804688 26.535156 19.03125 24.828125 19.308594 C 23.121094 19.585938 21.890625 20.8125 21.890625 20.8125 Z M 21.890625 20.8125 " fill-opacity="1" fill-rule="nonzero"/><path fill="rgb(96.078491%, 16.079712%, 10.198975%)" d="M 21.765625 25.820312 C 21.675781 27.414062 20.308594 28.644531 18.722656 28.554688 C 17.136719 28.464844 15.914062 27.089844 16.003906 25.492188 C 16.046875 24.683594 16.425781 23.964844 16.992188 23.464844 L 17.644531 24.222656 C 17.28125 24.542969 17.027344 25.011719 17 25.539062 C 16.941406 26.589844 17.738281 27.476562 18.769531 27.535156 C 19.800781 27.59375 20.691406 26.792969 20.75 25.753906 C 20.78125 25.207031 20.574219 24.691406 20.21875 24.332031 L 20.9375 23.632812 C 21.488281 24.203125 21.8125 24.980469 21.765625 25.820312 Z M 21.765625 25.820312 " fill-opacity="1" fill-rule="nonzero"/><path fill="rgb(96.078491%, 16.079712%, 10.198975%)" d="M 10.242188 23.167969 C 10.703125 23.296875 11.191406 23.351562 11.683594 23.367188 C 11.921875 23.367188 12.175781 23.367188 12.414062 23.34375 C 12.65625 23.328125 12.894531 23.289062 13.136719 23.25 C 13.375 23.207031 13.605469 23.136719 13.828125 23.078125 C 14.046875 23.007812 14.265625 22.925781 14.476562 22.828125 C 14.226562 22.828125 13.996094 22.855469 13.765625 22.871094 L 13.417969 22.894531 C 13.296875 22.902344 13.1875 22.910156 13.066406 22.910156 C 12.835938 22.917969 12.605469 22.933594 12.375 22.933594 C 12.144531 22.941406 11.914062 22.933594 11.695312 22.933594 C 11.242188 22.917969 10.78125 22.894531 10.332031 22.828125 C 9.878906 22.773438 9.429688 22.691406 8.96875 22.570312 C 9.328125 22.863281 9.78125 23.039062 10.242188 23.167969 Z M 10.242188 23.167969 " fill-opacity="1" fill-rule="nonzero"/><path fill="rgb(96.078491%, 16.079712%, 10.198975%)" d="M 27.882812 20.898438 C 27.523438 21.183594 27.160156 21.417969 26.785156 21.628906 C 26.414062 21.839844 26.027344 22.019531 25.628906 22.1875 C 25.425781 22.265625 25.238281 22.34375 25.03125 22.410156 C 24.828125 22.484375 24.617188 22.542969 24.414062 22.609375 C 24.304688 22.648438 24.203125 22.667969 24.097656 22.707031 L 23.777344 22.792969 C 23.570312 22.851562 23.347656 22.902344 23.136719 22.980469 C 23.359375 23.019531 23.585938 23.035156 23.808594 23.042969 C 24.035156 23.03125 24.269531 23.035156 24.488281 23.003906 C 24.714844 22.972656 24.941406 22.9375 25.160156 22.875 C 25.382812 22.824219 25.601562 22.742188 25.8125 22.664062 C 26.238281 22.488281 26.644531 22.253906 27.003906 21.972656 C 27.363281 21.667969 27.6875 21.324219 27.882812 20.898438 Z M 27.882812 20.898438 " fill-opacity="1" fill-rule="nonzero"/><path fill="rgb(100%, 50.588989%, 10.978699%)" d="M 8.898438 23.957031 C 9.359375 24.078125 9.808594 24.15625 10.261719 24.214844 C 10.710938 24.269531 11.164062 24.304688 11.625 24.320312 C 11.855469 24.320312 12.074219 24.328125 12.304688 24.320312 C 12.535156 24.320312 12.765625 24.304688 12.996094 24.296875 C 13.117188 24.296875 13.226562 24.277344 13.347656 24.277344 L 13.695312 24.253906 C 13.925781 24.238281 14.167969 24.214844 14.40625 24.214844 C 14.195312 24.3125 13.976562 24.390625 13.757812 24.464844 C 13.527344 24.519531 13.296875 24.59375 13.066406 24.632812 C 12.824219 24.671875 12.585938 24.714844 12.34375 24.730469 C 12.105469 24.753906 11.855469 24.753906 11.613281 24.753906 C 11.121094 24.738281 10.632812 24.671875 10.171875 24.550781 C 9.691406 24.414062 9.238281 24.238281 8.898438 23.957031 Z M 8.898438 23.957031 " fill-opacity="1" fill-rule="nonzero"/><path fill="rgb(100%, 50.588989%, 10.978699%)" d="M 28.359375 22.445312 C 28 22.730469 27.636719 22.964844 27.261719 23.175781 C 26.890625 23.382812 26.503906 23.566406 26.105469 23.734375 C 25.902344 23.808594 25.710938 23.890625 25.507812 23.957031 C 25.304688 24.03125 25.09375 24.089844 24.886719 24.15625 C 24.78125 24.195312 24.679688 24.214844 24.574219 24.253906 L 24.253906 24.339844 C 24.046875 24.398438 23.824219 24.449219 23.613281 24.527344 C 23.835938 24.566406 24.0625 24.582031 24.285156 24.589844 C 24.511719 24.578125 24.746094 24.582031 24.964844 24.550781 C 25.191406 24.519531 25.417969 24.484375 25.636719 24.421875 C 25.859375 24.371094 26.078125 24.289062 26.289062 24.210938 C 26.714844 24.03125 27.121094 23.800781 27.480469 23.519531 C 27.839844 23.214844 28.164062 22.871094 28.359375 22.445312 Z M 28.359375 22.445312 " fill-opacity="1" fill-rule="nonzero"/><path fill="rgb(100%, 50.588989%, 10.978699%)" d="M 8.523438 13.964844 C 7.886719 13.964844 7.875 14.964844 8.523438 14.964844 C 9.164062 14.964844 9.171875 13.964844 8.523438 13.964844 Z M 8.523438 13.964844 " fill-opacity="1" fill-rule="nonzero"/><path fill="rgb(100%, 50.588989%, 10.978699%)" d="M 10.796875 13.105469 C 10.160156 13.105469 10.148438 14.105469 10.796875 14.105469 C 11.4375 14.117188 11.4375 13.105469 10.796875 13.105469 Z M 10.796875 13.105469 " fill-opacity="1" fill-rule="nonzero"/><path fill="rgb(100%, 50.588989%, 10.978699%)" d="M 13.0625 12.308594 C 12.425781 12.308594 12.414062 13.3125 13.0625 13.3125 C 13.710938 13.3125 13.710938 12.308594 13.0625 12.308594 Z M 13.0625 12.308594 " fill-opacity="1" fill-rule="nonzero"/><path fill="rgb(100%, 50.588989%, 10.978699%)" d="M 15.449219 11.394531 C 14.8125 11.394531 14.800781 12.394531 15.449219 12.394531 C 16.089844 12.40625 16.089844 11.394531 15.449219 11.394531 Z M 15.449219 11.394531 " fill-opacity="1" fill-rule="nonzero"/><path fill="rgb(100%, 50.588989%, 10.978699%)" d="M 21.121094 13.9375 C 20.480469 13.9375 20.472656 14.9375 21.121094 14.9375 C 21.769531 14.9375 21.769531 13.9375 21.121094 13.9375 Z M 21.121094 13.9375 " fill-opacity="1" fill-rule="nonzero"/><path fill="rgb(100%, 50.588989%, 10.978699%)" d="M 23.765625 12.308594 C 23.125 12.308594 23.117188 13.3125 23.765625 13.3125 C 24.402344 13.3125 24.402344 12.308594 23.765625 12.308594 Z M 23.765625 12.308594 " fill-opacity="1" fill-rule="nonzero"/><path fill="rgb(100%, 50.588989%, 10.978699%)" d="M 26.453125 12.933594 C 25.816406 12.933594 25.804688 13.9375 26.453125 13.9375 C 27.101562 13.945312 27.101562 12.933594 26.453125 12.933594 Z M 26.453125 12.933594 " fill-opacity="1" fill-rule="nonzero"/><path fill="rgb(100%, 50.588989%, 10.978699%)" d="M 28.332031 14.019531 C 27.695312 14.019531 27.683594 15.023438 28.332031 15.023438 C 28.972656 15.023438 28.972656 14.019531 28.332031 14.019531 Z M 28.332031 14.019531 " fill-opacity="1" fill-rule="nonzero"/><path fill="rgb(100%, 50.588989%, 10.978699%)" d="M 8.804688 11.675781 C 8.375 11.675781 8.375 12.347656 8.804688 12.347656 C 9.238281 12.347656 9.238281 11.675781 8.804688 11.675781 Z M 8.804688 11.675781 " fill-opacity="1" fill-rule="nonzero"/><path fill="rgb(100%, 50.588989%, 10.978699%)" d="M 10.855469 10.757812 C 10.421875 10.757812 10.421875 11.429688 10.855469 11.429688 C 11.277344 11.429688 11.277344 10.757812 10.855469 10.757812 Z M 10.855469 10.757812 " fill-opacity="1" fill-rule="nonzero"/><path fill="rgb(100%, 50.588989%, 10.978699%)" d="M 13.121094 10.023438 C 12.6875 10.023438 12.6875 10.691406 13.121094 10.691406 C 13.550781 10.691406 13.550781 10.023438 13.121094 10.023438 Z M 13.121094 10.023438 " fill-opacity="1" fill-rule="nonzero"/><path fill="rgb(100%, 50.588989%, 10.978699%)" d="M 15.101562 9.160156 C 14.671875 9.160156 14.671875 9.832031 15.101562 9.832031 C 15.535156 9.832031 15.535156 9.160156 15.101562 9.160156 Z M 15.101562 9.160156 " fill-opacity="1" fill-rule="nonzero"/><path fill="rgb(100%, 50.588989%, 10.978699%)" d="M 22.140625 10.648438 C 21.707031 10.648438 21.707031 11.320312 22.140625 11.320312 C 22.574219 11.320312 22.574219 10.648438 22.140625 10.648438 Z M 22.140625 10.648438 " fill-opacity="1" fill-rule="nonzero"/><path fill="rgb(100%, 50.588989%, 10.978699%)" d="M 24.246094 9.625 C 23.8125 9.625 23.8125 10.296875 24.246094 10.296875 C 24.667969 10.285156 24.667969 9.625 24.246094 9.625 Z M 24.246094 9.625 " fill-opacity="1" fill-rule="nonzero"/><path fill="rgb(100%, 50.588989%, 10.978699%)" d="M 26.453125 10.53125 C 26.023438 10.53125 26.023438 11.203125 26.453125 11.203125 C 26.886719 11.203125 26.886719 10.53125 26.453125 10.53125 Z M 26.453125 10.53125 " fill-opacity="1" fill-rule="nonzero"/></svg>