<svg xmlns="http://www.w3.org/2000/svg" xmlns:xlink="http://www.w3.org/1999/xlink" width="50" zoomAndPan="magnify" viewBox="0 0 37.5 37.499999" height="50" preserveAspectRatio="xMidYMid meet" version="1.0"><defs><filter x="0%" y="0%" width="100%" height="100%" id="id1"><feColorMatrix values="0 0 0 0 1 0 0 0 0 1 0 0 0 0 1 0 0 0 1 0" color-interpolation-filters="sRGB"/></filter><clipPath id="id2"><path d="M 0 3.75 L 18 3.75 L 18 9 L 0 9 Z M 0 3.75 " clip-rule="nonzero"/></clipPath><mask id="id3"><g filter="url(#id1)"><rect x="-3.75" width="45" fill="rgb(0%, 0%, 0%)" y="-3.75" height="44.999999" fill-opacity="0.1098"/></g></mask><clipPath id="id4"><path d="M 11 22 L 13 22 L 13 22.761719 L 11 22.761719 Z M 11 22 " clip-rule="nonzero"/></clipPath><clipPath id="id5"><path d="M 3 0.261719 L 5 0.261719 L 5 2 L 3 2 Z M 3 0.261719 " clip-rule="nonzero"/></clipPath><clipPath id="id6"><path d="M 10 0.261719 L 11 0.261719 L 11 1 L 10 1 Z M 10 0.261719 " clip-rule="nonzero"/></clipPath><clipPath id="id7"><path d="M 8 21 L 10 21 L 10 22.761719 L 8 22.761719 Z M 8 21 " clip-rule="nonzero"/></clipPath><clipPath id="id8"><path d="M 8 22 L 9 22 L 9 22.761719 L 8 22.761719 Z M 8 22 " clip-rule="nonzero"/></clipPath><clipPath id="id9"><path d="M 0.65625 2 L 1 2 L 1 4 L 0.65625 4 Z M 0.65625 2 " clip-rule="nonzero"/></clipPath><clipPath id="id10"><path d="M 2 0.261719 L 4 0.261719 L 4 2 L 2 2 Z M 2 0.261719 " clip-rule="nonzero"/></clipPath><clipPath id="id11"><path d="M 0.65625 4 L 2 4 L 2 6 L 0.65625 6 Z M 0.65625 4 " clip-rule="nonzero"/></clipPath><clipPath id="id12"><path d="M 15 2 L 16.527344 2 L 16.527344 4 L 15 4 Z M 15 2 " clip-rule="nonzero"/></clipPath><clipPath id="id13"><path d="M 15 3 L 16.527344 3 L 16.527344 4 L 15 4 Z M 15 3 " clip-rule="nonzero"/></clipPath><clipPath id="id14"><rect x="0" width="17" y="0" height="23"/></clipPath><clipPath id="id15"><path d="M 15 15 L 37.007812 15 L 37.007812 34 L 15 34 Z M 15 15 " clip-rule="nonzero"/></clipPath><clipPath id="id16"><path d="M 12 18 L 22 18 L 22 34.5 L 12 34.5 Z M 12 18 " clip-rule="nonzero"/></clipPath><clipPath id="id17"><path d="M 20 21 L 37.007812 21 L 37.007812 28 L 20 28 Z M 20 21 " clip-rule="nonzero"/></clipPath><clipPath id="id18"><path d="M 20 23 L 37.007812 23 L 37.007812 24 L 20 24 Z M 20 23 " clip-rule="nonzero"/></clipPath><clipPath id="id19"><path d="M 21 26 L 37.007812 26 L 37.007812 29 L 21 29 Z M 21 26 " clip-rule="nonzero"/></clipPath><clipPath id="id20"><path d="M 20 26 L 37.007812 26 L 37.007812 29 L 20 29 Z M 20 26 " clip-rule="nonzero"/></clipPath><clipPath id="id21"><path d="M 20 24 L 37.007812 24 L 37.007812 31 L 20 31 Z M 20 24 " clip-rule="nonzero"/></clipPath><clipPath id="id22"><path d="M 15 18 L 22 18 L 22 34.5 L 15 34.5 Z M 15 18 " clip-rule="nonzero"/></clipPath><mask id="id23"><g filter="url(#id1)"><rect x="-3.75" width="45" fill="rgb(0%, 0%, 0%)" y="-3.75" height="44.999999" fill-opacity="0.1098"/></g></mask><clipPath id="id24"><path d="M 0.738281 6 L 2 6 L 2 7 L 0.738281 7 Z M 0.738281 6 " clip-rule="nonzero"/></clipPath><clipPath id="id25"><path d="M 17 3 L 18.261719 3 L 18.261719 5 L 17 5 Z M 17 3 " clip-rule="nonzero"/></clipPath><clipPath id="id26"><path d="M 4 13 L 5 13 L 5 13.210938 L 4 13.210938 Z M 4 13 " clip-rule="nonzero"/></clipPath><clipPath id="id27"><path d="M 4 0.421875 L 5 0.421875 L 5 1 L 4 1 Z M 4 0.421875 " clip-rule="nonzero"/></clipPath><clipPath id="id28"><path d="M 7 0.421875 L 8 0.421875 L 8 1 L 7 1 Z M 7 0.421875 " clip-rule="nonzero"/></clipPath><clipPath id="id29"><rect x="0" width="19" y="0" height="14"/></clipPath></defs><path fill="rgb(87.838745%, 16.859436%, 4.309082%)" d="M 15.144531 10.789062 C 15.121094 10.710938 15.078125 10.636719 15.023438 10.574219 L 15 10.546875 C 14.957031 10.496094 14.902344 10.472656 14.84375 10.445312 C 14.78125 10.417969 14.71875 10.402344 14.652344 10.402344 C 14.582031 10.402344 14.519531 10.417969 14.460938 10.445312 C 14.398438 10.472656 14.347656 10.496094 14.304688 10.546875 C 14.277344 10.574219 14.25 10.617188 14.234375 10.644531 C 14.191406 10.710938 14.164062 10.808594 14.164062 10.894531 C 14.171875 10.9375 14.183594 10.980469 14.183594 11.023438 C 14.207031 11.101562 14.25 11.179688 14.304688 11.238281 C 14.3125 11.246094 14.320312 11.257812 14.328125 11.265625 C 14.375 11.316406 14.425781 11.34375 14.484375 11.367188 C 14.546875 11.394531 14.609375 11.410156 14.675781 11.410156 C 14.746094 11.410156 14.808594 11.394531 14.867188 11.367188 C 14.929688 11.34375 14.980469 11.316406 15.023438 11.265625 C 15.050781 11.238281 15.078125 11.195312 15.09375 11.171875 C 15.136719 11.101562 15.164062 11.007812 15.164062 10.917969 C 15.15625 10.875 15.15625 10.832031 15.144531 10.789062 Z M 15.144531 10.789062 " fill-opacity="1" fill-rule="nonzero"/><path fill="rgb(87.838745%, 16.859436%, 4.309082%)" d="M 12.453125 20.710938 C 12.671875 22.609375 12.835938 24.75 13.054688 26.640625 C 13.121094 27.285156 13.199219 27.917969 13.269531 28.5625 C 13.355469 29.359375 13.546875 30.125 13.433594 30.917969 C 13.347656 31.539062 12.636719 31.84375 12.011719 31.980469 C 9.683594 32.515625 7.21875 32.4375 4.933594 31.773438 C 4.699219 31.703125 4.457031 31.625 4.257812 31.472656 C 4.058594 31.316406 3.910156 30.988281 3.945312 30.746094 C 4.386719 27.476562 4.855469 24.207031 5.367188 20.945312 C 7.589844 19.761719 10.316406 19.382812 12.453125 20.710938 Z M 12.453125 20.710938 " fill-opacity="1" fill-rule="nonzero"/><path fill="rgb(98.81897%, 81.959534%, 27.059937%)" d="M 17.734375 5.769531 C 17.726562 10.453125 16.058594 14.964844 14.277344 19.304688 C 14.15625 19.617188 14.015625 19.9375 13.78125 20.175781 C 13.523438 20.453125 13.15625 20.617188 12.792969 20.738281 C 10.820312 21.4375 8.667969 21.386719 6.582031 21.160156 C 5.8125 21.082031 4.976562 20.945312 4.421875 20.402344 C 4.101562 20.089844 3.910156 19.667969 3.726562 19.253906 C 1.964844 15.15625 0.808594 10.789062 0.347656 6.355469 C 1.148438 5.941406 1.867188 5.363281 2.738281 5.113281 C 5.445312 4.34375 8.292969 4.292969 11.117188 4.269531 C 11.960938 4.257812 12.800781 4.25 13.625 4.386719 C 14.234375 4.492188 14.808594 4.671875 15.390625 4.855469 C 16.308594 5.148438 16.804688 5.476562 17.734375 5.769531 Z M 17.734375 5.769531 " fill-opacity="1" fill-rule="nonzero"/><g clip-path="url(#id2)"><path fill="rgb(87.838745%, 16.859436%, 4.309082%)" d="M 17.90625 6.054688 C 17.90625 6.203125 17.851562 6.355469 17.738281 6.503906 C 17.625 6.652344 17.457031 6.796875 17.234375 6.933594 C 17.011719 7.074219 16.742188 7.207031 16.417969 7.332031 C 16.09375 7.460938 15.730469 7.574219 15.320312 7.683594 C 14.90625 7.789062 14.460938 7.886719 13.980469 7.96875 C 13.496094 8.054688 12.988281 8.125 12.449219 8.183594 C 11.914062 8.238281 11.363281 8.285156 10.792969 8.3125 C 10.222656 8.34375 9.648438 8.355469 9.066406 8.355469 C 8.488281 8.355469 7.914062 8.34375 7.34375 8.3125 C 6.773438 8.285156 6.222656 8.238281 5.683594 8.183594 C 5.148438 8.125 4.640625 8.054688 4.15625 7.96875 C 3.671875 7.886719 3.226562 7.789062 2.816406 7.683594 C 2.40625 7.574219 2.039062 7.460938 1.71875 7.332031 C 1.394531 7.207031 1.121094 7.074219 0.898438 6.933594 C 0.679688 6.796875 0.511719 6.652344 0.398438 6.503906 C 0.285156 6.355469 0.226562 6.203125 0.226562 6.054688 C 0.226562 5.902344 0.285156 5.753906 0.398438 5.605469 C 0.511719 5.457031 0.679688 5.3125 0.898438 5.171875 C 1.121094 5.03125 1.394531 4.898438 1.71875 4.773438 C 2.039062 4.648438 2.40625 4.53125 2.816406 4.425781 C 3.226562 4.316406 3.671875 4.222656 4.15625 4.136719 C 4.640625 4.054688 5.148438 3.984375 5.683594 3.925781 C 6.222656 3.867188 6.773438 3.824219 7.34375 3.792969 C 7.914062 3.765625 8.488281 3.75 9.066406 3.75 C 9.648438 3.75 10.222656 3.765625 10.792969 3.792969 C 11.363281 3.824219 11.914062 3.867188 12.449219 3.925781 C 12.988281 3.984375 13.496094 4.054688 13.980469 4.136719 C 14.460938 4.222656 14.90625 4.316406 15.320312 4.425781 C 15.730469 4.53125 16.09375 4.648438 16.417969 4.773438 C 16.742188 4.898438 17.011719 5.03125 17.234375 5.171875 C 17.457031 5.3125 17.625 5.457031 17.738281 5.605469 C 17.851562 5.753906 17.90625 5.902344 17.90625 6.054688 Z M 17.90625 6.054688 " fill-opacity="1" fill-rule="nonzero"/></g><path fill="rgb(20.779419%, 32.159424%, 16.859436%)" d="M 17.671875 5.398438 C 17.265625 5.785156 16.753906 6.019531 16.242188 6.207031 C 15.675781 6.425781 15.101562 6.589844 14.511719 6.710938 C 13.339844 6.96875 12.132812 7.070312 10.933594 7.070312 C 9.703125 7.089844 8.476562 7.003906 7.253906 6.882812 C 6.105469 6.769531 4.941406 6.667969 3.804688 6.46875 C 2.726562 6.277344 1.660156 5.984375 0.730469 5.390625 C 0.609375 5.320312 0.503906 5.234375 0.390625 5.15625 C 0.304688 5.085938 0.175781 5.140625 0.125 5.226562 C 0.0625 5.328125 0.105469 5.433594 0.191406 5.492188 C 1.105469 6.175781 2.199219 6.546875 3.292969 6.769531 C 4.449219 7.003906 5.628906 7.113281 6.800781 7.234375 C 8.042969 7.363281 9.285156 7.460938 10.542969 7.476562 C 11.777344 7.496094 13.027344 7.410156 14.234375 7.175781 C 14.84375 7.054688 15.433594 6.90625 16.007812 6.71875 C 16.5625 6.527344 17.136719 6.3125 17.613281 5.976562 C 17.734375 5.890625 17.855469 5.792969 17.96875 5.683594 C 18.140625 5.5 17.855469 5.214844 17.671875 5.398438 Z M 17.671875 5.398438 " fill-opacity="1" fill-rule="nonzero"/><g mask="url(#id3)"><g transform="matrix(1, 0, 0, 1, 1, 4)"><g clip-path="url(#id14)"><g clip-path="url(#id4)"><path fill="rgb(0%, 0%, 0%)" d="M 12.042969 22.40625 C 12.019531 22.371094 11.984375 22.339844 11.984375 22.292969 C 11.941406 22 11.898438 21.976562 11.566406 22.085938 C 11.585938 22.234375 11.59375 22.371094 11.601562 22.519531 C 11.75 22.519531 11.898438 22.519531 12.042969 22.511719 C 12.042969 22.484375 12.042969 22.449219 12.042969 22.40625 Z M 12.042969 22.40625 " fill-opacity="1" fill-rule="nonzero"/></g><g clip-path="url(#id5)"><path fill="rgb(0%, 0%, 0%)" d="M 4.203125 0.492188 C 4.308594 0.890625 4.308594 0.890625 4.480469 0.984375 C 4.410156 1.007812 4.359375 1.019531 4.308594 1.042969 C 4.246094 1.0625 4.195312 1.078125 4.175781 1.078125 C 4.109375 1.027344 4.046875 1 4.011719 0.949219 C 3.976562 0.90625 3.960938 0.835938 3.941406 0.785156 C 3.996094 0.769531 4.046875 0.757812 4.109375 0.75 C 4.097656 0.683594 4.089844 0.59375 4.074219 0.5 C 4.109375 0.492188 4.160156 0.492188 4.203125 0.492188 Z M 4.203125 0.492188 " fill-opacity="1" fill-rule="nonzero"/></g><g clip-path="url(#id6)"><path fill="rgb(0%, 0%, 0%)" d="M 10.726562 0.441406 C 10.621094 0.59375 10.523438 0.75 10.421875 0.90625 C 10.386719 0.742188 10.351562 0.59375 10.308594 0.441406 C 10.445312 0.449219 10.585938 0.441406 10.726562 0.441406 Z M 10.726562 0.441406 " fill-opacity="1" fill-rule="nonzero"/></g><path fill="rgb(0%, 0%, 0%)" d="M 11.835938 21.390625 C 11.566406 21.640625 11.558594 21.691406 11.664062 21.871094 C 11.765625 21.898438 11.855469 21.933594 11.949219 21.96875 C 11.914062 21.777344 11.878906 21.578125 11.835938 21.390625 Z M 11.835938 21.390625 " fill-opacity="1" fill-rule="nonzero"/><path fill="rgb(0%, 0%, 0%)" d="M 7.746094 10.550781 C 7.773438 10.699219 7.808594 10.835938 7.824219 10.984375 C 7.746094 11.050781 7.632812 11.140625 7.519531 11.214844 C 7.519531 11.191406 7.539062 11.148438 7.511719 11.105469 C 7.484375 11.035156 7.449219 10.957031 7.390625 10.921875 C 7.261719 10.84375 7.105469 10.785156 6.972656 10.699219 C 6.949219 10.671875 6.980469 10.519531 7 10.519531 C 7.261719 10.492188 7.519531 10.355469 7.789062 10.527344 C 7.78125 10.527344 7.761719 10.542969 7.746094 10.550781 Z M 7.746094 10.550781 " fill-opacity="1" fill-rule="nonzero"/><path fill="rgb(0%, 0%, 0%)" d="M 9.058594 4.167969 C 9.222656 4.203125 9.378906 4.226562 9.578125 4.269531 C 9.5 4.375 9.421875 4.453125 9.308594 4.589844 C 9.441406 4.589844 9.535156 4.574219 9.621094 4.589844 C 9.675781 4.597656 9.71875 4.625 9.769531 4.652344 C 9.742188 4.683594 9.71875 4.761719 9.691406 4.769531 C 9.570312 4.796875 9.449219 4.804688 9.285156 4.824219 C 9.285156 4.839844 9.292969 4.902344 9.257812 4.953125 C 9.230469 4.988281 9.171875 5.03125 9.117188 5.03125 C 9.082031 5.03125 8.996094 4.96875 8.996094 4.945312 C 9.003906 4.703125 9.03125 4.453125 9.058594 4.167969 Z M 9.058594 4.167969 " fill-opacity="1" fill-rule="nonzero"/><path fill="rgb(0%, 0%, 0%)" d="M 9.394531 19.085938 C 9.648438 19.078125 10.054688 19.386719 10.097656 19.550781 C 10.132812 19.707031 10.019531 19.808594 9.855469 19.757812 C 9.605469 19.679688 9.363281 19.578125 9.316406 19.292969 C 9.308594 19.222656 9.371094 19.144531 9.394531 19.085938 Z M 9.394531 19.085938 " fill-opacity="1" fill-rule="nonzero"/><path fill="rgb(0%, 0%, 0%)" d="M 7.875 19.972656 C 7.746094 20 7.597656 20.121094 7.5625 19.894531 C 7.546875 19.835938 7.5625 19.777344 7.5625 19.714844 C 7.625 19.730469 7.683594 19.75 7.746094 19.75 C 7.917969 19.722656 8.09375 19.6875 8.285156 19.664062 C 8.285156 19.828125 8.667969 19.878906 8.421875 20.101562 C 8.257812 20.25 8.144531 20.214844 7.875 19.972656 Z M 7.875 19.972656 " fill-opacity="1" fill-rule="nonzero"/><path fill="rgb(0%, 0%, 0%)" d="M 9.300781 2.734375 C 9.160156 3.011719 9.082031 3.304688 9.171875 3.632812 C 8.960938 3.5625 8.996094 3.554688 8.96875 3.363281 C 8.953125 3.203125 8.910156 3.054688 9.015625 2.898438 C 9.03125 2.875 8.945312 2.785156 8.890625 2.734375 C 9.074219 2.683594 9.257812 2.605469 9.429688 2.605469 C 9.519531 2.605469 9.613281 2.761719 9.699219 2.847656 C 9.628906 2.863281 9.5625 2.90625 9.507812 2.898438 C 9.441406 2.855469 9.378906 2.796875 9.300781 2.734375 Z M 9.300781 2.734375 " fill-opacity="1" fill-rule="nonzero"/><g clip-path="url(#id7)"><path fill="rgb(0%, 0%, 0%)" d="M 9.570312 22.085938 C 9.449219 22.113281 9.386719 22.121094 9.316406 22.132812 C 9.316406 22.191406 9.34375 22.261719 9.308594 22.292969 C 9.273438 22.347656 9.195312 22.398438 9.144531 22.40625 C 9.101562 22.414062 9.03125 22.347656 9.003906 22.292969 C 8.960938 22.207031 8.945312 22.105469 8.917969 22.019531 C 9.066406 22 9.195312 21.898438 9.273438 21.726562 C 9.308594 21.65625 9.378906 21.585938 9.441406 21.554688 C 9.484375 21.527344 9.570312 21.578125 9.640625 21.585938 C 9.613281 21.640625 9.605469 21.699219 9.5625 21.734375 C 9.421875 21.835938 9.363281 21.941406 9.570312 22.085938 Z M 9.570312 22.085938 " fill-opacity="1" fill-rule="nonzero"/></g><path fill="rgb(0%, 0%, 0%)" d="M 9.570312 7.324219 C 9.519531 7.542969 9.492188 7.695312 9.441406 7.84375 C 9.421875 7.878906 9.371094 7.921875 9.328125 7.921875 C 9.292969 7.921875 9.25 7.878906 9.214844 7.84375 C 9.171875 7.78125 9.117188 7.722656 9.101562 7.652344 C 9.082031 7.558594 9.066406 7.4375 9.109375 7.359375 C 9.160156 7.28125 9.273438 7.195312 9.386719 7.171875 C 9.429688 7.171875 9.519531 7.289062 9.570312 7.324219 Z M 9.570312 7.324219 " fill-opacity="1" fill-rule="nonzero"/><path fill="rgb(0%, 0%, 0%)" d="M 2.527344 6.679688 C 2.5 6.765625 2.484375 6.832031 2.457031 6.953125 C 2.320312 6.746094 2.207031 6.601562 2.074219 6.402344 C 2.335938 6.417969 2.535156 6.429688 2.746094 6.460938 C 2.789062 6.472656 2.847656 6.558594 2.855469 6.617188 C 2.875 6.667969 2.839844 6.746094 2.804688 6.773438 C 2.761719 6.800781 2.683594 6.773438 2.621094 6.757812 C 2.578125 6.738281 2.5625 6.710938 2.527344 6.679688 Z M 2.527344 6.679688 " fill-opacity="1" fill-rule="nonzero"/><path fill="rgb(0%, 0%, 0%)" d="M 2.996094 3.898438 C 2.769531 3.777344 2.726562 3.648438 2.777344 3.433594 C 2.804688 3.332031 2.726562 3.21875 2.699219 3.082031 C 2.71875 3.070312 2.789062 3.046875 2.796875 3.054688 C 2.910156 3.21875 3.023438 3.375 3.089844 3.546875 C 3.125 3.648438 3.046875 3.777344 2.996094 3.898438 Z M 2.996094 3.898438 " fill-opacity="1" fill-rule="nonzero"/><path fill="rgb(0%, 0%, 0%)" d="M 4.367188 4.640625 C 4.253906 4.597656 4.238281 4.582031 4.203125 4.582031 C 3.820312 4.460938 3.820312 4.460938 4.0625 4.140625 C 4.125 4.0625 4.210938 3.984375 4.28125 3.917969 C 4.308594 3.933594 4.324219 3.941406 4.34375 3.953125 C 4.316406 4.019531 4.28125 4.097656 4.265625 4.167969 C 4.28125 4.167969 4.296875 4.160156 4.316406 4.160156 C 4.332031 4.304688 4.351562 4.445312 4.367188 4.640625 Z M 4.367188 4.640625 " fill-opacity="1" fill-rule="nonzero"/><path fill="rgb(0%, 0%, 0%)" d="M 10.726562 7.28125 C 10.34375 7.257812 10.019531 7.230469 9.691406 7.203125 C 9.648438 7.195312 9.613281 7.160156 9.570312 7.136719 C 9.605469 7.101562 9.628906 7.023438 9.675781 7.015625 C 9.742188 6.988281 9.839844 6.988281 9.917969 6.996094 C 10.109375 7.023438 10.308594 7.058594 10.492188 7.109375 C 10.578125 7.125 10.628906 7.203125 10.726562 7.28125 Z M 10.726562 7.28125 " fill-opacity="1" fill-rule="nonzero"/><path fill="rgb(0%, 0%, 0%)" d="M 4.0625 3.703125 C 4.039062 3.71875 3.996094 3.789062 3.933594 3.8125 C 3.890625 3.832031 3.820312 3.753906 3.769531 3.726562 C 3.734375 3.703125 3.699219 3.640625 3.65625 3.625 C 3.5 3.597656 3.527344 3.496094 3.578125 3.417969 C 3.613281 3.363281 3.707031 3.3125 3.777344 3.320312 C 3.917969 3.332031 4.074219 3.519531 4.0625 3.703125 Z M 4.0625 3.703125 " fill-opacity="1" fill-rule="nonzero"/><path fill="rgb(0%, 0%, 0%)" d="M 15.457031 4.195312 C 15.535156 4.210938 15.640625 4.195312 15.710938 4.226562 C 15.742188 4.253906 15.742188 4.347656 15.769531 4.402344 C 15.789062 4.460938 15.820312 4.519531 15.839844 4.574219 C 15.855469 4.632812 15.867188 4.695312 15.875 4.753906 C 15.742188 4.753906 15.613281 4.753906 15.492188 4.738281 C 15.476562 4.738281 15.457031 4.582031 15.492188 4.5625 C 15.683594 4.433594 15.605469 4.332031 15.429688 4.226562 C 15.429688 4.21875 15.449219 4.210938 15.457031 4.195312 Z M 15.457031 4.195312 " fill-opacity="1" fill-rule="nonzero"/><path fill="rgb(0%, 0%, 0%)" d="M 10.949219 19.785156 C 10.914062 19.671875 10.882812 19.578125 10.855469 19.480469 C 10.949219 19.421875 11.046875 19.335938 11.160156 19.300781 C 11.21875 19.285156 11.324219 19.335938 11.382812 19.378906 C 11.402344 19.394531 11.375 19.507812 11.351562 19.535156 C 11.21875 19.636719 11.089844 19.707031 10.949219 19.785156 Z M 10.949219 19.785156 " fill-opacity="1" fill-rule="nonzero"/><path fill="rgb(0%, 0%, 0%)" d="M 13.886719 5.652344 C 14.179688 5.6875 14.25 5.738281 14.257812 5.980469 C 14.257812 6.023438 14.222656 6.089844 14.191406 6.109375 C 14.164062 6.132812 14.085938 6.125 14.050781 6.089844 C 13.851562 6.003906 13.808594 5.867188 13.886719 5.652344 Z M 13.886719 5.652344 " fill-opacity="1" fill-rule="nonzero"/><path fill="rgb(0%, 0%, 0%)" d="M 10.273438 15.617188 C 10.28125 15.539062 10.289062 15.453125 10.289062 15.375 C 10.210938 15.296875 10.117188 15.195312 9.988281 15.066406 C 10.160156 15.046875 10.289062 15.039062 10.4375 15.03125 C 10.414062 15.210938 10.558594 15.425781 10.367188 15.617188 C 10.34375 15.625 10.300781 15.617188 10.273438 15.617188 Z M 10.273438 15.617188 " fill-opacity="1" fill-rule="nonzero"/><path fill="rgb(0%, 0%, 0%)" d="M 14.535156 11.734375 C 14.570312 11.683594 14.613281 11.640625 14.660156 11.605469 C 14.625 11.578125 14.582031 11.5625 14.535156 11.542969 C 14.492188 11.527344 14.433594 11.542969 14.378906 11.542969 C 14.398438 11.597656 14.40625 11.65625 14.441406 11.691406 C 14.476562 11.707031 14.503906 11.726562 14.535156 11.734375 Z M 14.535156 11.734375 " fill-opacity="1" fill-rule="nonzero"/><path fill="rgb(0%, 0%, 0%)" d="M 9.363281 15.488281 C 9.214844 15.390625 9.082031 15.316406 8.9375 15.21875 C 8.917969 15.054688 9.039062 14.945312 9.25 14.960938 C 9.136719 15.210938 9.171875 15.238281 9.472656 15.21875 C 9.429688 15.324219 9.394531 15.402344 9.363281 15.488281 Z M 9.363281 15.488281 " fill-opacity="1" fill-rule="nonzero"/><path fill="rgb(0%, 0%, 0%)" d="M 3.515625 6.160156 C 3.648438 6.074219 3.71875 5.953125 3.855469 6.101562 C 3.898438 6.144531 4.0625 6.109375 4.195312 6.109375 C 4.117188 6.222656 4.046875 6.308594 3.976562 6.402344 C 3.820312 6.324219 3.683594 6.253906 3.515625 6.160156 Z M 3.515625 6.160156 " fill-opacity="1" fill-rule="nonzero"/><path fill="rgb(0%, 0%, 0%)" d="M 6.949219 5.652344 C 7.015625 5.625 7.078125 5.582031 7.15625 5.574219 C 7.339844 5.546875 7.527344 5.539062 7.710938 5.53125 C 7.746094 5.53125 7.78125 5.574219 7.808594 5.601562 C 7.773438 5.632812 7.746094 5.6875 7.710938 5.695312 C 7.484375 5.730469 7.269531 5.738281 7.050781 5.765625 C 7.007812 5.730469 6.980469 5.6875 6.949219 5.652344 Z M 6.949219 5.652344 " fill-opacity="1" fill-rule="nonzero"/><path fill="rgb(0%, 0%, 0%)" d="M 12.703125 1.5 C 12.488281 1.585938 12.289062 1.570312 12.253906 1.441406 C 12.234375 1.378906 12.277344 1.269531 12.332031 1.234375 C 12.460938 1.183594 12.644531 1.328125 12.703125 1.5 Z M 12.703125 1.5 " fill-opacity="1" fill-rule="nonzero"/><path fill="rgb(0%, 0%, 0%)" d="M 6.347656 21.078125 C 6.382812 20.941406 6.417969 20.800781 6.453125 20.671875 C 6.46875 20.671875 6.488281 20.664062 6.511719 20.664062 C 6.546875 20.75 6.582031 20.835938 6.625 20.929688 C 6.695312 20.921875 6.78125 20.914062 6.871094 20.90625 C 6.746094 21.113281 6.539062 21.171875 6.347656 21.078125 Z M 6.347656 21.078125 " fill-opacity="1" fill-rule="nonzero"/><path fill="rgb(0%, 0%, 0%)" d="M 7.078125 2.390625 C 7.15625 2.449219 7.242188 2.503906 7.355469 2.570312 C 7.347656 2.605469 7.328125 2.691406 7.3125 2.820312 C 7.214844 2.804688 7.058594 2.804688 7.042969 2.761719 C 6.992188 2.648438 7.007812 2.511719 6.980469 2.390625 C 7.035156 2.390625 7.050781 2.390625 7.078125 2.390625 Z M 7.078125 2.390625 " fill-opacity="1" fill-rule="nonzero"/><path fill="rgb(0%, 0%, 0%)" d="M 11.59375 19.121094 C 11.59375 19.015625 11.609375 18.921875 11.628906 18.828125 C 11.59375 18.808594 11.558594 18.800781 11.515625 18.785156 C 11.542969 18.964844 11.566406 19.09375 11.585938 19.222656 L 11.59375 19.222656 C 11.601562 19.199219 11.59375 19.164062 11.59375 19.121094 Z M 11.59375 19.121094 " fill-opacity="1" fill-rule="nonzero"/><path fill="rgb(0%, 0%, 0%)" d="M 10.003906 2.40625 C 10.132812 2.554688 10.132812 2.8125 10.019531 2.925781 C 9.996094 2.949219 9.953125 2.976562 9.925781 2.960938 C 9.890625 2.941406 9.855469 2.898438 9.847656 2.875 C 9.8125 2.699219 9.847656 2.535156 10.003906 2.40625 Z M 10.003906 2.40625 " fill-opacity="1" fill-rule="nonzero"/><path fill="rgb(0%, 0%, 0%)" d="M 11.21875 21.363281 C 11.21875 21.363281 11.167969 21.335938 11.148438 21.328125 C 11.261719 21.191406 11.367188 21.0625 11.472656 20.929688 C 11.496094 20.90625 11.558594 20.878906 11.601562 20.898438 C 11.636719 20.90625 11.6875 20.964844 11.679688 20.976562 C 11.601562 21.070312 11.644531 21.242188 11.453125 21.257812 C 11.402344 21.25 11.339844 21.300781 11.21875 21.363281 Z M 11.21875 21.363281 " fill-opacity="1" fill-rule="nonzero"/><path fill="rgb(0%, 0%, 0%)" d="M 2.414062 3.660156 C 2.285156 3.546875 2.328125 3.210938 2.484375 3.175781 C 2.535156 3.15625 2.621094 3.203125 2.648438 3.234375 C 2.675781 3.269531 2.65625 3.347656 2.621094 3.390625 C 2.570312 3.476562 2.492188 3.5625 2.414062 3.660156 Z M 2.414062 3.660156 " fill-opacity="1" fill-rule="nonzero"/><path fill="rgb(0%, 0%, 0%)" d="M 14.101562 8.652344 C 14.164062 8.445312 14.214844 8.265625 14.269531 8.074219 C 14.441406 8.09375 14.398438 8.230469 14.390625 8.328125 C 14.390625 8.550781 14.347656 8.601562 14.101562 8.652344 Z M 14.101562 8.652344 " fill-opacity="1" fill-rule="nonzero"/><g clip-path="url(#id8)"><path fill="rgb(0%, 0%, 0%)" d="M 8.335938 22.183594 C 8.492188 22.121094 8.589844 22.085938 8.726562 22.042969 C 8.761719 22.085938 8.804688 22.15625 8.859375 22.226562 C 8.761719 22.261719 8.675781 22.285156 8.597656 22.304688 C 8.527344 22.328125 8.449219 22.339844 8.378906 22.363281 C 8.363281 22.292969 8.355469 22.21875 8.335938 22.183594 Z M 8.335938 22.183594 " fill-opacity="1" fill-rule="nonzero"/></g><path fill="rgb(0%, 0%, 0%)" d="M 4.402344 3.210938 C 4.429688 3.289062 4.453125 3.339844 4.453125 3.390625 C 4.464844 3.496094 4.453125 3.597656 4.4375 3.703125 C 4.429688 3.734375 4.410156 3.796875 4.386719 3.804688 C 4.316406 3.824219 4.238281 3.8125 4.167969 3.796875 C 4.152344 3.789062 4.132812 3.726562 4.140625 3.683594 C 4.195312 3.554688 4.253906 3.425781 4.308594 3.296875 C 4.316406 3.289062 4.34375 3.277344 4.402344 3.210938 Z M 4.402344 3.210938 " fill-opacity="1" fill-rule="nonzero"/><g clip-path="url(#id9)"><path fill="rgb(0%, 0%, 0%)" d="M 0.921875 3.027344 C 0.9375 2.96875 0.9375 2.90625 0.929688 2.839844 C 0.921875 2.898438 0.921875 2.960938 0.921875 3.027344 Z M 0.921875 3.027344 " fill-opacity="1" fill-rule="nonzero"/></g><path fill="rgb(0%, 0%, 0%)" d="M 1.492188 4.140625 C 1.632812 4.0625 1.71875 4.003906 1.816406 3.976562 C 1.839844 3.96875 1.945312 4.089844 1.9375 4.097656 C 1.867188 4.175781 1.789062 4.253906 1.703125 4.3125 C 1.695312 4.3125 1.597656 4.238281 1.492188 4.140625 Z M 1.492188 4.140625 " fill-opacity="1" fill-rule="nonzero"/><path fill="rgb(0%, 0%, 0%)" d="M 9.5625 15.761719 C 9.683594 15.917969 9.8125 16.082031 9.933594 16.238281 C 9.898438 16.265625 9.875 16.289062 9.839844 16.316406 C 9.796875 16.253906 9.769531 16.175781 9.707031 16.152344 C 9.648438 16.125 9.550781 16.160156 9.421875 16.167969 C 9.484375 16.101562 9.535156 16.046875 9.542969 15.988281 C 9.5625 15.925781 9.527344 15.867188 9.519531 15.796875 C 9.527344 15.789062 9.542969 15.773438 9.5625 15.761719 Z M 9.5625 15.761719 " fill-opacity="1" fill-rule="nonzero"/><path fill="rgb(0%, 0%, 0%)" d="M 14.3125 9.851562 C 14.457031 9.929688 14.605469 10.007812 14.738281 10.085938 C 14.761719 10.105469 14.753906 10.179688 14.761719 10.222656 C 14.710938 10.222656 14.648438 10.25 14.625 10.222656 C 14.492188 10.128906 14.371094 10.015625 14.25 9.914062 C 14.277344 9.894531 14.292969 9.878906 14.3125 9.851562 Z M 14.3125 9.851562 " fill-opacity="1" fill-rule="nonzero"/><path fill="rgb(0%, 0%, 0%)" d="M 7.148438 18.214844 C 7.261719 18.351562 7.328125 18.445312 7.390625 18.550781 C 7.398438 18.566406 7.304688 18.621094 7.261719 18.652344 C 7.191406 18.566406 7.105469 18.480469 7.050781 18.386719 C 7.035156 18.367188 7.085938 18.308594 7.148438 18.214844 Z M 7.148438 18.214844 " fill-opacity="1" fill-rule="nonzero"/><path fill="rgb(0%, 0%, 0%)" d="M 5.105469 11.25 C 5.28125 11.277344 5.410156 11.3125 5.382812 11.484375 C 5.375 11.527344 5.269531 11.605469 5.246094 11.597656 C 5.070312 11.535156 5.0625 11.414062 5.105469 11.25 Z M 5.105469 11.25 " fill-opacity="1" fill-rule="nonzero"/><path fill="rgb(0%, 0%, 0%)" d="M 8.3125 5.625 C 8.121094 5.511719 7.953125 5.445312 8.03125 5.238281 C 8.121094 5.246094 8.214844 5.253906 8.328125 5.261719 C 8.3125 5.359375 8.3125 5.46875 8.3125 5.625 Z M 8.3125 5.625 " fill-opacity="1" fill-rule="nonzero"/><path fill="rgb(0%, 0%, 0%)" d="M 12.558594 2.890625 C 12.625 2.992188 12.6875 3.046875 12.6875 3.105469 C 12.695312 3.140625 12.601562 3.234375 12.574219 3.226562 C 12.488281 3.203125 12.410156 3.148438 12.324219 3.097656 C 12.390625 3.039062 12.453125 2.984375 12.558594 2.890625 Z M 12.558594 2.890625 " fill-opacity="1" fill-rule="nonzero"/><path fill="rgb(0%, 0%, 0%)" d="M 12.949219 9.378906 C 13.207031 9.363281 13.425781 9.351562 13.675781 9.34375 C 13.511719 9.542969 13.121094 9.558594 12.949219 9.378906 Z M 12.949219 9.378906 " fill-opacity="1" fill-rule="nonzero"/><path fill="rgb(0%, 0%, 0%)" d="M 9.953125 17.28125 C 9.933594 17.167969 9.917969 17.074219 9.898438 16.980469 C 9.996094 17.015625 10.089844 17.050781 10.1875 17.09375 C 10.230469 17.117188 10.265625 17.144531 10.316406 17.160156 C 10.308594 17.1875 10.300781 17.195312 10.289062 17.222656 C 10.195312 17.238281 10.097656 17.257812 9.953125 17.28125 Z M 9.953125 17.28125 " fill-opacity="1" fill-rule="nonzero"/><g clip-path="url(#id10)"><path fill="rgb(0%, 0%, 0%)" d="M 3.300781 1.164062 C 3.136719 1.214844 2.933594 0.863281 2.902344 1.285156 C 2.839844 1.128906 2.777344 0.984375 2.933594 0.921875 C 3.167969 0.828125 3.160156 1.070312 3.300781 1.164062 Z M 3.300781 1.164062 " fill-opacity="1" fill-rule="nonzero"/></g><path fill="rgb(0%, 0%, 0%)" d="M 2.277344 4.804688 C 2.09375 4.769531 2.066406 4.652344 2.109375 4.53125 C 2.128906 4.496094 2.207031 4.46875 2.257812 4.445312 C 2.285156 4.496094 2.335938 4.546875 2.335938 4.597656 C 2.328125 4.660156 2.292969 4.71875 2.277344 4.804688 Z M 2.277344 4.804688 " fill-opacity="1" fill-rule="nonzero"/><g clip-path="url(#id11)"><path fill="rgb(0%, 0%, 0%)" d="M 0.910156 4.726562 C 0.902344 4.761719 0.894531 4.796875 0.886719 4.839844 C 0.910156 4.945312 0.921875 5.046875 0.921875 5.152344 C 1.078125 5.054688 1.078125 4.882812 0.910156 4.726562 Z M 0.910156 4.726562 " fill-opacity="1" fill-rule="nonzero"/></g><path fill="rgb(0%, 0%, 0%)" d="M 7.347656 6.472656 C 7.269531 6.652344 7.214844 6.78125 7.15625 6.917969 C 7.015625 6.808594 7.027344 6.6875 7.09375 6.582031 C 7.128906 6.539062 7.242188 6.523438 7.347656 6.472656 Z M 7.347656 6.472656 " fill-opacity="1" fill-rule="nonzero"/><path fill="rgb(0%, 0%, 0%)" d="M 5.269531 4.726562 C 5.21875 4.574219 5.0625 4.417969 5.246094 4.238281 C 5.480469 4.410156 5.269531 4.574219 5.269531 4.726562 Z M 5.269531 4.726562 " fill-opacity="1" fill-rule="nonzero"/><path fill="rgb(0%, 0%, 0%)" d="M 5.652344 1.40625 C 5.550781 1.433594 5.445312 1.457031 5.339844 1.46875 C 5.324219 1.46875 5.304688 1.335938 5.289062 1.269531 C 5.402344 1.277344 5.515625 1.285156 5.636719 1.285156 C 5.628906 1.320312 5.644531 1.363281 5.652344 1.40625 Z M 5.652344 1.40625 " fill-opacity="1" fill-rule="nonzero"/><path fill="rgb(0%, 0%, 0%)" d="M 7.339844 10.3125 C 7.25 10.34375 7.164062 10.378906 7.035156 10.429688 C 7.015625 10.328125 7.015625 10.25 7.007812 10.15625 C 7.15625 10.136719 7.3125 10.09375 7.339844 10.3125 Z M 7.339844 10.3125 " fill-opacity="1" fill-rule="nonzero"/><path fill="rgb(0%, 0%, 0%)" d="M 10.769531 8.257812 C 10.699219 8.328125 10.628906 8.394531 10.558594 8.464844 C 10.515625 8.386719 10.472656 8.300781 10.429688 8.214844 C 10.535156 8.195312 10.636719 8.1875 10.734375 8.179688 C 10.734375 8.207031 10.75 8.230469 10.769531 8.257812 Z M 10.769531 8.257812 " fill-opacity="1" fill-rule="nonzero"/><path fill="rgb(0%, 0%, 0%)" d="M 6.78125 14.132812 C 6.765625 14.105469 6.746094 14.097656 6.722656 14.074219 C 6.730469 14.089844 6.738281 14.097656 6.738281 14.117188 C 6.746094 14.183594 6.746094 14.246094 6.746094 14.3125 C 6.757812 14.324219 6.757812 14.324219 6.765625 14.332031 C 6.78125 14.324219 6.800781 14.3125 6.824219 14.3125 C 6.808594 14.261719 6.816406 14.175781 6.78125 14.132812 Z M 6.78125 14.132812 " fill-opacity="1" fill-rule="nonzero"/><path fill="rgb(0%, 0%, 0%)" d="M 3.785156 7.773438 C 3.75 7.878906 3.726562 7.980469 3.691406 8.085938 C 3.628906 8.058594 3.542969 8.03125 3.535156 8 C 3.507812 7.867188 3.585938 7.792969 3.699219 7.738281 C 3.726562 7.738281 3.761719 7.757812 3.785156 7.773438 Z M 3.785156 7.773438 " fill-opacity="1" fill-rule="nonzero"/><path fill="rgb(0%, 0%, 0%)" d="M 2.71875 8.074219 C 2.632812 7.988281 2.554688 7.921875 2.5 7.84375 C 2.484375 7.816406 2.476562 7.757812 2.5 7.730469 C 2.527344 7.703125 2.597656 7.703125 2.621094 7.714844 C 2.726562 7.816406 2.855469 7.894531 2.71875 8.074219 Z M 2.71875 8.074219 " fill-opacity="1" fill-rule="nonzero"/><path fill="rgb(0%, 0%, 0%)" d="M 6.554688 19.957031 C 6.496094 19.785156 6.460938 19.65625 6.417969 19.5 C 6.703125 19.613281 6.730469 19.679688 6.554688 19.957031 Z M 6.554688 19.957031 " fill-opacity="1" fill-rule="nonzero"/><path fill="rgb(0%, 0%, 0%)" d="M 6.859375 15.839844 C 7.15625 15.816406 6.972656 16.074219 7.128906 16.125 C 6.914062 16.1875 6.886719 16.167969 6.859375 15.839844 Z M 6.859375 15.839844 " fill-opacity="1" fill-rule="nonzero"/><path fill="rgb(0%, 0%, 0%)" d="M 11.402344 21.613281 C 11.464844 21.691406 11.53125 21.742188 11.523438 21.777344 C 11.496094 21.835938 11.4375 21.890625 11.375 21.90625 C 11.351562 21.914062 11.253906 21.828125 11.253906 21.785156 C 11.261719 21.742188 11.332031 21.699219 11.402344 21.613281 Z M 11.402344 21.613281 " fill-opacity="1" fill-rule="nonzero"/><g clip-path="url(#id12)"><path fill="rgb(0%, 0%, 0%)" d="M 15.953125 2.71875 C 15.996094 2.8125 16.046875 2.90625 16.082031 3.011719 C 16.089844 3.027344 16.003906 3.070312 15.960938 3.097656 C 15.933594 3.0625 15.898438 3.027344 15.890625 2.984375 C 15.875 2.90625 15.882812 2.820312 15.882812 2.734375 C 15.910156 2.734375 15.933594 2.726562 15.953125 2.71875 Z M 15.953125 2.71875 " fill-opacity="1" fill-rule="nonzero"/></g><path fill="rgb(0%, 0%, 0%)" d="M 6.210938 9.429688 C 6.140625 9.386719 6.097656 9.351562 6.042969 9.320312 C 6.085938 9.285156 6.132812 9.207031 6.175781 9.207031 C 6.253906 9.222656 6.332031 9.265625 6.398438 9.292969 C 6.347656 9.34375 6.277344 9.378906 6.210938 9.429688 Z M 6.210938 9.429688 " fill-opacity="1" fill-rule="nonzero"/><path fill="rgb(0%, 0%, 0%)" d="M 5.070312 6.460938 C 4.898438 6.445312 4.777344 6.445312 4.621094 6.4375 C 4.863281 6.210938 4.90625 6.210938 5.070312 6.460938 Z M 5.070312 6.460938 " fill-opacity="1" fill-rule="nonzero"/><path fill="rgb(0%, 0%, 0%)" d="M 8.257812 5.109375 C 8.179688 4.953125 8.121094 4.832031 8.03125 4.640625 C 8.136719 4.703125 8.242188 4.71875 8.25 4.769531 C 8.257812 4.867188 8.398438 4.980469 8.257812 5.109375 Z M 8.257812 5.109375 " fill-opacity="1" fill-rule="nonzero"/><g clip-path="url(#id13)"><path fill="rgb(0%, 0%, 0%)" d="M 15.960938 3.640625 C 16.101562 3.417969 16.214844 3.417969 16.457031 3.648438 C 16.28125 3.761719 16.144531 3.410156 15.960938 3.640625 Z M 15.960938 3.640625 " fill-opacity="1" fill-rule="nonzero"/></g><path fill="rgb(0%, 0%, 0%)" d="M 8.265625 3.0625 C 8.199219 3.191406 8.15625 3.289062 8.109375 3.375 C 8.085938 3.363281 8.050781 3.355469 8.023438 3.355469 C 8.042969 3.269531 8.042969 3.175781 8.058594 3.082031 C 8.066406 3.0625 8.164062 3.0625 8.265625 3.0625 Z M 8.265625 3.0625 " fill-opacity="1" fill-rule="nonzero"/><path fill="rgb(0%, 0%, 0%)" d="M 9.394531 10.015625 C 9.378906 10 9.34375 9.984375 9.335938 9.957031 C 9.316406 9.871094 9.308594 9.777344 9.292969 9.679688 C 9.328125 9.679688 9.40625 9.679688 9.40625 9.699219 C 9.429688 9.800781 9.441406 9.90625 9.457031 10.007812 C 9.449219 10.007812 9.421875 10.015625 9.394531 10.015625 Z M 9.394531 10.015625 " fill-opacity="1" fill-rule="nonzero"/><path fill="rgb(0%, 0%, 0%)" d="M 6.140625 7.929688 C 6.148438 7.988281 6.15625 8.042969 6.164062 8.101562 C 6.0625 8.101562 5.964844 8.101562 5.878906 8.101562 C 5.863281 8.085938 5.851562 8.074219 5.835938 8.066406 C 5.914062 8.007812 6 7.945312 6.085938 7.886719 C 6.085938 7.886719 6.113281 7.910156 6.140625 7.929688 Z M 6.140625 7.929688 " fill-opacity="1" fill-rule="nonzero"/><path fill="rgb(0%, 0%, 0%)" d="M 14.738281 6.101562 C 14.519531 5.917969 14.527344 5.824219 14.726562 5.746094 C 14.738281 5.859375 14.738281 5.960938 14.738281 6.101562 Z M 14.738281 6.101562 " fill-opacity="1" fill-rule="nonzero"/><path fill="rgb(0%, 0%, 0%)" d="M 5.949219 12.769531 C 5.984375 12.796875 6.027344 12.820312 6.078125 12.855469 C 6.105469 12.796875 6.140625 12.742188 6.164062 12.675781 C 6.199219 12.710938 6.226562 12.734375 6.242188 12.753906 C 6.164062 12.8125 6.085938 12.875 6.007812 12.925781 C 6 12.933594 5.929688 12.847656 5.886719 12.796875 C 5.914062 12.796875 5.929688 12.785156 5.949219 12.769531 Z M 5.949219 12.769531 " fill-opacity="1" fill-rule="nonzero"/><path fill="rgb(0%, 0%, 0%)" d="M 13.574219 12.535156 C 13.597656 12.511719 13.632812 12.503906 13.652344 12.476562 C 13.589844 12.457031 13.53125 12.449219 13.46875 12.449219 C 13.460938 12.476562 13.453125 12.503906 13.453125 12.527344 C 13.484375 12.535156 13.53125 12.546875 13.5625 12.554688 C 13.574219 12.535156 13.574219 12.535156 13.574219 12.535156 Z M 13.574219 12.535156 " fill-opacity="1" fill-rule="nonzero"/><path fill="rgb(0%, 0%, 0%)" d="M 8.121094 4.390625 C 7.988281 4.460938 7.875 4.417969 7.761719 4.324219 C 7.773438 4.296875 7.78125 4.269531 7.78125 4.253906 C 7.894531 4.28125 7.996094 4.289062 8.109375 4.3125 C 8.121094 4.339844 8.121094 4.367188 8.121094 4.390625 Z M 8.121094 4.390625 " fill-opacity="1" fill-rule="nonzero"/><path fill="rgb(0%, 0%, 0%)" d="M 14.648438 2.605469 C 14.597656 2.726562 14.554688 2.832031 14.484375 2.984375 C 14.398438 2.796875 14.441406 2.699219 14.648438 2.605469 Z M 14.648438 2.605469 " fill-opacity="1" fill-rule="nonzero"/><path fill="rgb(0%, 0%, 0%)" d="M 10.949219 7.410156 C 11.082031 7.410156 11.183594 7.410156 11.296875 7.402344 C 11.28125 7.4375 11.273438 7.480469 11.238281 7.496094 C 11.132812 7.550781 11.027344 7.574219 10.949219 7.410156 Z M 10.949219 7.410156 " fill-opacity="1" fill-rule="nonzero"/><path fill="rgb(0%, 0%, 0%)" d="M 2.734375 7.453125 C 2.691406 7.34375 2.648438 7.238281 2.589844 7.117188 C 2.847656 7.214844 2.875 7.289062 2.734375 7.453125 Z M 2.734375 7.453125 " fill-opacity="1" fill-rule="nonzero"/><path fill="rgb(0%, 0%, 0%)" d="M 1.15625 6.496094 C 1.214844 6.539062 1.234375 6.566406 1.269531 6.582031 C 1.214844 6.636719 1.171875 6.695312 1.113281 6.738281 C 1.09375 6.746094 1.050781 6.703125 1.015625 6.679688 C 1.058594 6.636719 1.09375 6.574219 1.15625 6.496094 Z M 1.15625 6.496094 " fill-opacity="1" fill-rule="nonzero"/><path fill="rgb(0%, 0%, 0%)" d="M 10.289062 6.496094 C 10.378906 6.472656 10.464844 6.4375 10.558594 6.410156 C 10.578125 6.445312 10.59375 6.503906 10.59375 6.503906 C 10.515625 6.539062 10.429688 6.574219 10.335938 6.601562 C 10.316406 6.574219 10.308594 6.539062 10.289062 6.496094 Z M 10.289062 6.496094 " fill-opacity="1" fill-rule="nonzero"/><path fill="rgb(0%, 0%, 0%)" d="M 10.132812 17.816406 C 10.074219 17.746094 10.011719 17.679688 9.953125 17.601562 C 9.960938 17.582031 9.96875 17.574219 9.96875 17.558594 C 10.039062 17.574219 10.125 17.574219 10.160156 17.617188 C 10.195312 17.660156 10.1875 17.738281 10.195312 17.800781 C 10.175781 17.808594 10.144531 17.816406 10.132812 17.816406 Z M 10.132812 17.816406 " fill-opacity="1" fill-rule="nonzero"/><path fill="rgb(0%, 0%, 0%)" d="M 11.148438 18.816406 C 11.410156 18.851562 11.324219 19.035156 11.332031 19.179688 C 11.261719 19.050781 11.210938 18.929688 11.148438 18.816406 Z M 11.148438 18.816406 " fill-opacity="1" fill-rule="nonzero"/><path fill="rgb(0%, 0%, 0%)" d="M 7.640625 20.679688 C 7.5625 20.707031 7.46875 20.714844 7.382812 20.742188 C 7.371094 20.742188 7.355469 20.691406 7.347656 20.664062 C 7.433594 20.636719 7.519531 20.605469 7.617188 20.585938 C 7.625 20.605469 7.632812 20.648438 7.640625 20.679688 Z M 7.640625 20.679688 " fill-opacity="1" fill-rule="nonzero"/><path fill="rgb(0%, 0%, 0%)" d="M 10.914062 21.234375 C 10.933594 21.300781 10.941406 21.378906 10.949219 21.449219 C 10.949219 21.464844 10.871094 21.476562 10.820312 21.476562 C 10.820312 21.398438 10.820312 21.320312 10.820312 21.234375 C 10.855469 21.242188 10.882812 21.234375 10.914062 21.234375 Z M 10.914062 21.234375 " fill-opacity="1" fill-rule="nonzero"/><path fill="rgb(0%, 0%, 0%)" d="M 5.964844 1.304688 C 6.019531 1.371094 6.0625 1.414062 6.0625 1.449219 C 6.0625 1.476562 5.992188 1.542969 5.992188 1.542969 C 5.929688 1.519531 5.886719 1.484375 5.84375 1.449219 C 5.878906 1.40625 5.914062 1.363281 5.964844 1.304688 Z M 5.964844 1.304688 " fill-opacity="1" fill-rule="nonzero"/><path fill="rgb(0%, 0%, 0%)" d="M 13.460938 7.910156 C 13.398438 7.957031 13.339844 8.03125 13.277344 8.042969 C 13.21875 8.058594 13.148438 8 13.078125 7.972656 C 13.105469 7.945312 13.128906 7.910156 13.15625 7.894531 C 13.242188 7.878906 13.339844 7.878906 13.433594 7.867188 C 13.433594 7.886719 13.453125 7.894531 13.460938 7.910156 Z M 13.460938 7.910156 " fill-opacity="1" fill-rule="nonzero"/><path fill="rgb(0%, 0%, 0%)" d="M 9.917969 15.617188 C 9.847656 15.652344 9.769531 15.6875 9.699219 15.730469 C 9.683594 15.710938 9.664062 15.710938 9.648438 15.703125 C 9.664062 15.660156 9.664062 15.582031 9.699219 15.574219 C 9.761719 15.546875 9.832031 15.566406 9.910156 15.566406 C 9.910156 15.574219 9.910156 15.597656 9.917969 15.617188 Z M 9.917969 15.617188 " fill-opacity="1" fill-rule="nonzero"/><path fill="rgb(0%, 0%, 0%)" d="M 2.789062 2.433594 C 2.8125 2.363281 2.847656 2.285156 2.875 2.21875 C 2.910156 2.242188 2.953125 2.253906 2.996094 2.277344 C 2.960938 2.347656 2.917969 2.40625 2.875 2.476562 C 2.847656 2.46875 2.824219 2.449219 2.789062 2.433594 Z M 2.789062 2.433594 " fill-opacity="1" fill-rule="nonzero"/><path fill="rgb(0%, 0%, 0%)" d="M 15.273438 3.976562 C 15.207031 4.074219 15.152344 4.132812 15.074219 4.246094 C 15.050781 4.132812 15.03125 4.0625 15.007812 3.960938 C 15.109375 3.960938 15.171875 3.976562 15.273438 3.976562 Z M 15.273438 3.976562 " fill-opacity="1" fill-rule="nonzero"/><path fill="rgb(0%, 0%, 0%)" d="M 6.148438 11.019531 C 6 10.992188 5.878906 10.992188 5.792969 10.949219 C 5.722656 10.914062 5.820312 10.835938 5.914062 10.878906 C 5.964844 10.90625 6.019531 10.941406 6.070312 10.957031 C 6.085938 10.976562 6.085938 10.984375 6.148438 11.019531 Z M 6.148438 11.019531 " fill-opacity="1" fill-rule="nonzero"/><path fill="rgb(0%, 0%, 0%)" d="M 7.910156 18.628906 C 7.867188 18.558594 7.816406 18.5 7.78125 18.429688 C 7.773438 18.414062 7.839844 18.378906 7.859375 18.359375 C 7.902344 18.429688 7.945312 18.5 7.988281 18.578125 C 7.972656 18.585938 7.9375 18.601562 7.910156 18.628906 Z M 7.910156 18.628906 " fill-opacity="1" fill-rule="nonzero"/><path fill="rgb(0%, 0%, 0%)" d="M 10.289062 10.128906 C 10.1875 10.105469 10.082031 10.078125 9.976562 10.058594 C 9.988281 10.035156 9.996094 10.007812 9.996094 9.984375 C 10.109375 10 10.210938 10.015625 10.316406 10.035156 C 10.316406 10.058594 10.300781 10.09375 10.289062 10.128906 Z M 10.289062 10.128906 " fill-opacity="1" fill-rule="nonzero"/></g></g></g><path fill="rgb(98.81897%, 81.959534%, 27.059937%)" d="M 4.726562 25.363281 L 6.382812 23.429688 L 7.410156 25.542969 L 8.988281 23.429688 L 10.082031 25.613281 L 11.59375 23.429688 L 12.949219 25.683594 L 11.464844 28.632812 L 10.003906 26.292969 L 8.554688 28.632812 L 7.417969 26.199219 L 5.628906 28.425781 Z M 4.726562 25.363281 " fill-opacity="1" fill-rule="nonzero"/><path fill="rgb(74.508667%, 11.759949%, 17.649841%)" d="M 16.421875 12.308594 C 15.675781 12.308594 15.3125 12.816406 14.980469 13.273438 C 14.695312 13.671875 14.441406 14.027344 13.964844 14.027344 C 13.964844 14.027344 13.964844 14.027344 13.957031 14.027344 C 13.480469 14.027344 13.226562 13.671875 12.941406 13.265625 C 12.621094 12.808594 12.253906 12.292969 11.507812 12.28125 C 11.507812 12.28125 11.5 12.28125 11.5 12.28125 C 10.753906 12.28125 10.386719 12.792969 10.058594 13.25 C 9.769531 13.644531 9.519531 14 9.042969 14 C 9.042969 14 9.042969 14 9.03125 14 C 8.554688 14 8.304688 13.644531 8.015625 13.242188 C 7.695312 12.785156 7.332031 12.265625 6.582031 12.257812 C 5.835938 12.257812 5.464844 12.765625 5.132812 13.222656 C 4.847656 13.621094 4.59375 13.972656 4.117188 13.972656 L 4.109375 13.972656 C 3.632812 13.972656 3.378906 13.621094 3.09375 13.214844 C 2.773438 12.757812 2.113281 12.238281 1.355469 12.230469 L 1.460938 12.792969 C 1.9375 12.792969 2.371094 13.101562 2.660156 13.507812 C 2.980469 13.964844 3.34375 14.484375 4.089844 14.492188 C 4.839844 14.492188 5.210938 13.984375 5.542969 13.527344 C 5.828125 13.128906 6.082031 12.773438 6.558594 12.773438 C 6.558594 12.773438 6.558594 12.773438 6.566406 12.773438 C 7.042969 12.773438 7.296875 13.128906 7.582031 13.535156 C 7.902344 13.992188 8.269531 14.507812 9.015625 14.519531 C 9.769531 14.519531 10.136719 14.007812 10.464844 13.550781 C 10.753906 13.15625 11.003906 12.800781 11.480469 12.800781 C 11.480469 12.800781 11.480469 12.800781 11.492188 12.800781 C 11.96875 12.800781 12.21875 13.15625 12.507812 13.558594 C 12.828125 14.015625 13.191406 14.535156 13.9375 14.542969 C 13.9375 14.542969 13.949219 14.542969 13.949219 14.542969 C 14.695312 14.542969 15.058594 14.035156 15.390625 13.578125 C 15.675781 13.179688 15.929688 12.828125 16.40625 12.828125 C 16.40625 12.828125 16.597656 12.859375 16.597656 12.859375 L 16.753906 12.316406 C 16.640625 12.316406 16.421875 12.308594 16.421875 12.308594 Z M 16.421875 12.308594 " fill-opacity="1" fill-rule="nonzero"/><path fill="rgb(20.779419%, 32.159424%, 16.859436%)" d="M 7.46875 21.351562 C 7.375 21.351562 7.289062 21.28125 7.269531 21.1875 L 5.253906 8.78125 L 4.8125 20.273438 L 4.8125 20.28125 C 4.804688 20.402344 4.707031 20.488281 4.59375 20.496094 C 4.472656 20.503906 4.378906 20.429688 4.34375 20.324219 L 0.0703125 5.484375 C 0.046875 5.378906 0.0976562 5.269531 0.210938 5.234375 C 0.3125 5.207031 0.425781 5.261719 0.460938 5.371094 L 4.457031 19.261719 L 4.933594 6.769531 C 4.941406 6.667969 5.019531 6.589844 5.117188 6.578125 C 5.21875 6.570312 5.308594 6.648438 5.324219 6.742188 L 7.46875 19.917969 L 9.632812 7.183594 C 9.648438 7.089844 9.734375 7.019531 9.839844 7.019531 C 9.945312 7.027344 10.023438 7.097656 10.03125 7.203125 L 11.109375 19.609375 L 13.738281 6.976562 C 13.765625 6.875 13.859375 6.8125 13.957031 6.820312 C 14.0625 6.839844 14.128906 6.925781 14.128906 7.027344 L 13.859375 18.503906 L 17.628906 5.554688 C 17.65625 5.449219 17.769531 5.390625 17.882812 5.414062 C 17.984375 5.441406 18.046875 5.554688 18.019531 5.664062 L 13.828125 20.082031 C 13.800781 20.175781 13.703125 20.238281 13.609375 20.222656 C 13.511719 20.203125 13.445312 20.117188 13.445312 20.023438 L 13.703125 9.210938 L 11.246094 21.03125 C 11.222656 21.125 11.132812 21.195312 11.039062 21.195312 C 10.941406 21.1875 10.863281 21.117188 10.855469 21.015625 L 9.796875 8.816406 L 7.695312 21.203125 C 7.652344 21.28125 7.574219 21.351562 7.46875 21.351562 Z M 7.46875 21.351562 " fill-opacity="1" fill-rule="nonzero"/><g clip-path="url(#id15)"><path fill="rgb(20.779419%, 32.159424%, 16.859436%)" d="M 16.03125 18.753906 C 21.632812 17.640625 27.261719 16.699219 32.921875 15.925781 C 33.582031 15.828125 34.101562 16.46875 34.511719 16.882812 C 35.03125 17.40625 35.5 17.953125 35.882812 18.574219 C 37.253906 20.816406 37.453125 23.722656 37.097656 26.277344 C 36.933594 27.433594 36.847656 28.925781 35.734375 29.609375 C 35.320312 29.867188 34.824219 29.96875 34.335938 30.074219 C 29.953125 31.023438 25.671875 32.386719 21.285156 33.316406 C 21.023438 33.371094 18.152344 33.9375 18.132812 33.851562 C 17.804688 32.117188 17.472656 30.382812 16.945312 28.703125 C 16.621094 27.675781 16.230469 26.675781 15.953125 25.640625 C 15.363281 23.472656 15.570312 20.945312 16.03125 18.753906 Z M 16.03125 18.753906 " fill-opacity="1" fill-rule="nonzero"/></g><g clip-path="url(#id16)"><path fill="rgb(74.508667%, 11.759949%, 17.649841%)" d="M 21.273438 25.796875 C 21.332031 26.304688 21.363281 26.808594 21.371094 27.3125 C 21.375 27.816406 21.351562 28.308594 21.300781 28.789062 C 21.25 29.269531 21.171875 29.730469 21.066406 30.167969 C 20.964844 30.609375 20.835938 31.019531 20.679688 31.398438 C 20.527344 31.78125 20.351562 32.125 20.15625 32.433594 C 19.957031 32.742188 19.742188 33.007812 19.507812 33.234375 C 19.277344 33.457031 19.03125 33.632812 18.769531 33.765625 C 18.511719 33.894531 18.242188 33.976562 17.964844 34.007812 C 17.6875 34.039062 17.40625 34.023438 17.125 33.957031 C 16.839844 33.886719 16.558594 33.773438 16.28125 33.609375 C 16.003906 33.445312 15.730469 33.234375 15.46875 32.980469 C 15.203125 32.722656 14.953125 32.429688 14.714844 32.09375 C 14.476562 31.757812 14.257812 31.386719 14.054688 30.984375 C 13.851562 30.582031 13.667969 30.152344 13.507812 29.695312 C 13.347656 29.238281 13.210938 28.765625 13.097656 28.273438 C 12.984375 27.785156 12.898438 27.285156 12.839844 26.777344 C 12.777344 26.269531 12.746094 25.765625 12.742188 25.261719 C 12.738281 24.757812 12.761719 24.265625 12.8125 23.785156 C 12.863281 23.304688 12.941406 22.84375 13.042969 22.40625 C 13.148438 21.964844 13.277344 21.554688 13.429688 21.175781 C 13.585938 20.792969 13.757812 20.449219 13.957031 20.140625 C 14.152344 19.832031 14.367188 19.566406 14.601562 19.339844 C 14.835938 19.117188 15.082031 18.941406 15.339844 18.808594 C 15.601562 18.679688 15.871094 18.597656 16.144531 18.566406 C 16.421875 18.535156 16.703125 18.550781 16.988281 18.617188 C 17.269531 18.6875 17.550781 18.800781 17.828125 18.964844 C 18.109375 19.128906 18.378906 19.339844 18.644531 19.59375 C 18.90625 19.851562 19.15625 20.144531 19.394531 20.480469 C 19.632812 20.816406 19.855469 21.1875 20.058594 21.589844 C 20.261719 21.992188 20.441406 22.421875 20.605469 22.878906 C 20.765625 23.335938 20.902344 23.808594 21.015625 24.300781 C 21.128906 24.789062 21.214844 25.289062 21.273438 25.796875 Z M 21.273438 25.796875 " fill-opacity="1" fill-rule="nonzero"/></g><path fill="rgb(20.779419%, 32.159424%, 16.859436%)" d="M 17.820312 18.960938 L 35.101562 17.527344 " fill-opacity="1" fill-rule="nonzero"/><path fill="rgb(0%, 0%, 0%)" d="M 17.820312 19.132812 C 17.734375 19.132812 17.65625 19.066406 17.648438 18.976562 C 17.636719 18.882812 17.707031 18.796875 17.804688 18.789062 L 35.09375 17.355469 C 35.1875 17.347656 35.273438 17.417969 35.285156 17.511719 C 35.292969 17.605469 35.222656 17.691406 35.128906 17.703125 L 17.839844 19.132812 C 17.828125 19.132812 17.820312 19.132812 17.820312 19.132812 Z M 17.820312 19.132812 " fill-opacity="1" fill-rule="nonzero"/><path fill="rgb(20.779419%, 32.159424%, 16.859436%)" d="M 34.191406 16.554688 L 18.820312 20.324219 " fill-opacity="1" fill-rule="nonzero"/><path fill="rgb(0%, 0%, 0%)" d="M 18.820312 20.496094 C 18.742188 20.496094 18.671875 20.445312 18.65625 20.367188 C 18.628906 20.273438 18.6875 20.175781 18.785156 20.160156 L 34.15625 16.398438 C 34.25 16.371094 34.347656 16.433594 34.363281 16.527344 C 34.382812 16.621094 34.328125 16.71875 34.234375 16.734375 L 18.863281 20.496094 C 18.84375 20.488281 18.828125 20.496094 18.820312 20.496094 Z M 18.820312 20.496094 " fill-opacity="1" fill-rule="nonzero"/><path fill="rgb(20.779419%, 32.159424%, 16.859436%)" d="M 20.183594 23.144531 L 36.136719 19.03125 " fill-opacity="1" fill-rule="nonzero"/><path fill="rgb(0%, 0%, 0%)" d="M 20.183594 23.316406 C 20.105469 23.316406 20.035156 23.265625 20.019531 23.1875 C 19.992188 23.09375 20.050781 23 20.140625 22.980469 L 36.089844 18.875 C 36.1875 18.847656 36.28125 18.910156 36.300781 18.996094 C 36.324219 19.089844 36.265625 19.183594 36.179688 19.203125 L 20.226562 23.308594 C 20.207031 23.308594 20.191406 23.316406 20.183594 23.316406 Z M 20.183594 23.316406 " fill-opacity="1" fill-rule="nonzero"/><path fill="rgb(20.779419%, 32.159424%, 16.859436%)" d="M 19.175781 20.796875 L 36.648438 20.222656 " fill-opacity="1" fill-rule="nonzero"/><path fill="rgb(0%, 0%, 0%)" d="M 19.175781 20.972656 C 19.078125 20.972656 19 20.894531 19 20.808594 C 19 20.710938 19.070312 20.636719 19.167969 20.625 L 36.640625 20.039062 C 36.734375 20.039062 36.8125 20.109375 36.820312 20.203125 C 36.820312 20.296875 36.75 20.375 36.65625 20.382812 Z M 19.175781 20.972656 " fill-opacity="1" fill-rule="nonzero"/><g clip-path="url(#id17)"><path fill="rgb(20.779419%, 32.159424%, 16.859436%)" d="M 20.902344 27.148438 L 37.082031 21.972656 " fill-opacity="1" fill-rule="nonzero"/><path fill="rgb(0%, 0%, 0%)" d="M 20.902344 27.320312 C 20.835938 27.320312 20.765625 27.277344 20.738281 27.199219 C 20.710938 27.105469 20.757812 27.011719 20.851562 26.984375 L 37.03125 21.808594 C 37.125 21.78125 37.21875 21.824219 37.246094 21.921875 C 37.273438 22.015625 37.230469 22.109375 37.132812 22.136719 L 20.957031 27.3125 C 20.9375 27.3125 20.921875 27.320312 20.902344 27.320312 Z M 20.902344 27.320312 " fill-opacity="1" fill-rule="nonzero"/></g><g clip-path="url(#id18)"><path fill="rgb(20.779419%, 32.159424%, 16.859436%)" d="M 20.503906 23.785156 L 37.238281 23.535156 " fill-opacity="1" fill-rule="nonzero"/><path fill="rgb(0%, 0%, 0%)" d="M 20.503906 23.957031 C 20.410156 23.957031 20.332031 23.878906 20.332031 23.785156 C 20.332031 23.6875 20.410156 23.613281 20.503906 23.613281 L 37.238281 23.371094 C 37.332031 23.371094 37.410156 23.449219 37.410156 23.542969 C 37.410156 23.636719 37.332031 23.714844 37.238281 23.714844 Z M 20.503906 23.957031 " fill-opacity="1" fill-rule="nonzero"/></g><g clip-path="url(#id19)"><path fill="rgb(20.779419%, 32.159424%, 16.859436%)" d="M 21.078125 28.117188 L 37.089844 26.277344 " fill-opacity="1" fill-rule="nonzero"/></g><g clip-path="url(#id20)"><path fill="rgb(0%, 0%, 0%)" d="M 21.078125 28.289062 C 20.992188 28.289062 20.914062 28.21875 20.902344 28.132812 C 20.894531 28.039062 20.964844 27.953125 21.058594 27.941406 L 37.074219 26.105469 C 37.167969 26.097656 37.253906 26.164062 37.265625 26.261719 C 37.273438 26.355469 37.203125 26.441406 37.109375 26.449219 L 21.09375 28.289062 C 21.09375 28.289062 21.085938 28.289062 21.078125 28.289062 Z M 21.078125 28.289062 " fill-opacity="1" fill-rule="nonzero"/></g><g clip-path="url(#id21)"><path fill="rgb(20.779419%, 32.159424%, 16.859436%)" d="M 37.246094 24.898438 L 20.679688 30.667969 " fill-opacity="1" fill-rule="nonzero"/><path fill="rgb(0%, 0%, 0%)" d="M 20.679688 30.839844 C 20.609375 30.839844 20.539062 30.796875 20.511719 30.730469 C 20.476562 30.644531 20.53125 30.539062 20.617188 30.515625 L 37.1875 24.734375 C 37.273438 24.699219 37.375 24.75 37.402344 24.835938 C 37.4375 24.921875 37.386719 25.027344 37.296875 25.050781 L 20.730469 30.832031 C 20.722656 30.839844 20.695312 30.839844 20.679688 30.839844 Z M 20.679688 30.839844 " fill-opacity="1" fill-rule="nonzero"/></g><path fill="rgb(20.779419%, 32.159424%, 16.859436%)" d="M 20.0625 32.335938 L 36.414062 28.917969 " fill-opacity="1" fill-rule="nonzero"/><path fill="rgb(0%, 0%, 0%)" d="M 20.0625 32.507812 C 19.984375 32.507812 19.90625 32.457031 19.886719 32.367188 C 19.871094 32.273438 19.929688 32.1875 20.019531 32.160156 L 36.378906 28.746094 C 36.472656 28.726562 36.5625 28.789062 36.585938 28.875 C 36.605469 28.96875 36.542969 29.054688 36.457031 29.082031 L 20.097656 32.507812 C 20.078125 32.507812 20.070312 32.507812 20.0625 32.507812 Z M 20.0625 32.507812 " fill-opacity="1" fill-rule="nonzero"/><path fill="rgb(20.779419%, 32.159424%, 16.859436%)" d="M 36.648438 28.117188 L 19.175781 33.515625 " fill-opacity="1" fill-rule="nonzero"/><path fill="rgb(0%, 0%, 0%)" d="M 19.175781 33.6875 C 19.097656 33.6875 19.035156 33.644531 19.011719 33.566406 C 18.984375 33.472656 19.035156 33.378906 19.125 33.351562 L 36.59375 27.953125 C 36.683594 27.925781 36.785156 27.976562 36.8125 28.0625 C 36.839844 28.160156 36.785156 28.253906 36.699219 28.277344 L 19.226562 33.679688 C 19.210938 33.6875 19.191406 33.6875 19.175781 33.6875 Z M 19.175781 33.6875 " fill-opacity="1" fill-rule="nonzero"/><path fill="rgb(87.838745%, 16.859436%, 4.309082%)" d="M 27.730469 16.890625 C 27.171875 16.890625 27.171875 17.753906 27.730469 17.753906 C 28.285156 17.753906 28.292969 16.890625 27.730469 16.890625 Z M 27.730469 16.890625 " fill-opacity="1" fill-rule="nonzero"/><path fill="rgb(87.838745%, 16.859436%, 4.309082%)" d="M 29.8125 18.789062 C 29.257812 18.789062 29.257812 19.652344 29.8125 19.652344 C 30.367188 19.652344 30.378906 18.789062 29.8125 18.789062 Z M 29.8125 18.789062 " fill-opacity="1" fill-rule="nonzero"/><path fill="rgb(87.838745%, 16.859436%, 4.309082%)" d="M 31.28125 21.695312 C 30.726562 21.695312 30.726562 22.558594 31.28125 22.558594 C 31.835938 22.558594 31.835938 21.695312 31.28125 21.695312 Z M 31.28125 21.695312 " fill-opacity="1" fill-rule="nonzero"/><path fill="rgb(87.838745%, 16.859436%, 4.309082%)" d="M 31.722656 25 C 31.167969 25 31.167969 25.863281 31.722656 25.863281 C 32.28125 25.863281 32.28125 25 31.722656 25 Z M 31.722656 25 " fill-opacity="1" fill-rule="nonzero"/><path fill="rgb(87.838745%, 16.859436%, 4.309082%)" d="M 31.941406 28.433594 C 31.921875 28.382812 31.898438 28.332031 31.855469 28.296875 C 31.808594 28.253906 31.765625 28.226562 31.714844 28.210938 C 31.664062 28.183594 31.609375 28.167969 31.550781 28.175781 C 31.515625 28.183594 31.472656 28.183594 31.4375 28.191406 C 31.367188 28.210938 31.296875 28.253906 31.246094 28.304688 C 31.21875 28.332031 31.203125 28.367188 31.175781 28.390625 C 31.132812 28.460938 31.117188 28.53125 31.117188 28.605469 L 31.117188 28.648438 C 31.117188 28.710938 31.125 28.761719 31.152344 28.8125 C 31.167969 28.867188 31.195312 28.917969 31.238281 28.953125 C 31.28125 28.996094 31.324219 29.019531 31.375 29.039062 C 31.429688 29.0625 31.480469 29.082031 31.542969 29.074219 C 31.574219 29.0625 31.621094 29.0625 31.652344 29.054688 C 31.722656 29.039062 31.792969 28.996094 31.84375 28.945312 C 31.871094 28.917969 31.886719 28.882812 31.914062 28.855469 C 31.957031 28.789062 31.976562 28.71875 31.976562 28.640625 L 31.976562 28.597656 C 31.976562 28.539062 31.96875 28.484375 31.941406 28.433594 Z M 31.941406 28.433594 " fill-opacity="1" fill-rule="nonzero"/><path fill="rgb(87.838745%, 16.859436%, 4.309082%)" d="M 22.363281 28.78125 C 21.917969 28.78125 21.910156 29.46875 22.363281 29.46875 C 22.8125 29.46875 22.8125 28.78125 22.363281 28.78125 Z M 22.363281 28.78125 " fill-opacity="1" fill-rule="nonzero"/><path fill="rgb(87.838745%, 16.859436%, 4.309082%)" d="M 22.5 24.636719 C 22.058594 24.636719 22.050781 25.328125 22.5 25.328125 C 22.945312 25.328125 22.945312 24.636719 22.5 24.636719 Z M 22.5 24.636719 " fill-opacity="1" fill-rule="nonzero"/><path fill="rgb(87.838745%, 16.859436%, 4.309082%)" d="M 21.304688 21.117188 C 20.859375 21.117188 20.851562 21.808594 21.304688 21.808594 C 21.746094 21.808594 21.746094 21.117188 21.304688 21.117188 Z M 21.304688 21.117188 " fill-opacity="1" fill-rule="nonzero"/><path fill="rgb(87.838745%, 16.859436%, 4.309082%)" d="M 19.921875 19.003906 C 19.480469 19.003906 19.472656 19.695312 19.921875 19.695312 C 20.375 19.695312 20.375 19.003906 19.921875 19.003906 Z M 19.921875 19.003906 " fill-opacity="1" fill-rule="nonzero"/><path fill="rgb(87.838745%, 16.859436%, 4.309082%)" d="M 21.832031 30.902344 C 21.390625 30.902344 21.382812 31.59375 21.832031 31.59375 C 22.277344 31.59375 22.277344 30.902344 21.832031 30.902344 Z M 21.832031 30.902344 " fill-opacity="1" fill-rule="nonzero"/><path fill="rgb(98.81897%, 81.959534%, 27.059937%)" d="M 24.671875 22.652344 L 29.394531 21.464844 L 29.597656 23.171875 Z M 24.671875 22.652344 " fill-opacity="1" fill-rule="nonzero"/><path fill="rgb(98.81897%, 81.959534%, 27.059937%)" d="M 32.375 21.101562 L 36.414062 21.125 L 32.722656 22.816406 Z M 32.375 21.101562 " fill-opacity="1" fill-rule="nonzero"/><path fill="rgb(98.81897%, 81.959534%, 27.059937%)" d="M 28.09375 18.625 L 23.203125 19.875 L 28.703125 19.730469 Z M 28.09375 18.625 " fill-opacity="1" fill-rule="nonzero"/><path fill="rgb(98.81897%, 81.959534%, 27.059937%)" d="M 30.855469 18.332031 L 31.105469 19.488281 L 35.300781 18.203125 Z M 30.855469 18.332031 " fill-opacity="1" fill-rule="nonzero"/><path fill="rgb(98.81897%, 81.959534%, 27.059937%)" d="M 30.039062 24.886719 L 30.230469 26.519531 L 23.203125 27.148438 Z M 30.039062 24.886719 " fill-opacity="1" fill-rule="nonzero"/><path fill="rgb(98.81897%, 81.959534%, 27.059937%)" d="M 32.78125 24.5625 L 33.078125 25.90625 L 36.804688 24.191406 Z M 32.78125 24.5625 " fill-opacity="1" fill-rule="nonzero"/><path fill="rgb(98.81897%, 81.959534%, 27.059937%)" d="M 24.152344 30.265625 L 30.230469 28.167969 L 30.230469 29.46875 Z M 24.152344 30.265625 " fill-opacity="1" fill-rule="nonzero"/><path fill="rgb(98.81897%, 81.959534%, 27.059937%)" d="M 32.78125 27.40625 L 32.90625 28.632812 L 36.648438 27.199219 Z M 32.78125 27.40625 " fill-opacity="1" fill-rule="nonzero"/><g clip-path="url(#id22)"><path fill="rgb(98.81897%, 81.959534%, 27.059937%)" d="M 18.125 34.035156 C 18.097656 34.035156 18.0625 34.027344 18.039062 34.007812 C 17.949219 33.964844 17.925781 33.863281 17.96875 33.773438 C 17.996094 33.722656 18.046875 33.699219 18.097656 33.6875 C 18.238281 33.609375 19.035156 33 19.714844 31.652344 C 20.320312 30.453125 20.945312 28.410156 20.511719 25.457031 C 19.671875 19.816406 15.972656 18.839844 15.824219 18.804688 C 15.746094 18.804688 15.675781 18.753906 15.660156 18.675781 C 15.632812 18.582031 15.691406 18.488281 15.789062 18.46875 C 15.929688 18.433594 16.640625 18.675781 17.371094 19.167969 C 18.664062 20.039062 20.320312 21.835938 20.859375 25.414062 C 21.617188 30.472656 19.3125 33.292969 18.367188 33.949219 C 18.28125 33.980469 18.203125 34.035156 18.125 34.035156 Z M 18.203125 33.707031 Z M 18.203125 33.707031 " fill-opacity="1" fill-rule="nonzero"/></g><g mask="url(#id23)"><g transform="matrix(1, 0, 0, 1, 13, 19)"><g clip-path="url(#id29)"><path fill="rgb(0%, 0%, 0%)" d="M 17.492188 1.539062 C 17.464844 1.566406 17.445312 1.601562 17.414062 1.601562 C 17.195312 1.6875 17.179688 1.722656 17.324219 1.953125 C 17.4375 1.917969 17.542969 1.886719 17.648438 1.851562 C 17.621094 1.738281 17.59375 1.625 17.570312 1.523438 C 17.550781 1.53125 17.523438 1.53125 17.492188 1.539062 Z M 17.492188 1.539062 " fill-opacity="1" fill-rule="nonzero"/><path fill="rgb(0%, 0%, 0%)" d="M 2.050781 11.117188 C 2.335938 10.96875 2.335938 10.96875 2.378906 10.824219 C 2.40625 10.875 2.433594 10.910156 2.457031 10.945312 C 2.476562 10.988281 2.503906 11.023438 2.511719 11.039062 C 2.484375 11.101562 2.46875 11.152344 2.441406 11.1875 C 2.414062 11.21875 2.363281 11.246094 2.328125 11.273438 C 2.3125 11.238281 2.292969 11.195312 2.277344 11.152344 C 2.222656 11.167969 2.164062 11.1875 2.09375 11.21875 C 2.066406 11.1875 2.058594 11.152344 2.050781 11.117188 Z M 2.050781 11.117188 " fill-opacity="1" fill-rule="nonzero"/><g clip-path="url(#id24)"><path fill="rgb(0%, 0%, 0%)" d="M 0.921875 6.199219 C 1.050781 6.25 1.191406 6.292969 1.328125 6.347656 C 1.21875 6.398438 1.105469 6.457031 0.992188 6.507812 C 0.972656 6.40625 0.949219 6.300781 0.921875 6.199219 Z M 0.921875 6.199219 " fill-opacity="1" fill-rule="nonzero"/></g><path fill="rgb(0%, 0%, 0%)" d="M 16.753906 1.867188 C 16.988281 2.03125 17.03125 2.03125 17.152344 1.917969 C 17.160156 1.832031 17.160156 1.765625 17.179688 1.6875 C 17.03125 1.746094 16.890625 1.808594 16.753906 1.867188 Z M 16.753906 1.867188 " fill-opacity="1" fill-rule="nonzero"/><path fill="rgb(0%, 0%, 0%)" d="M 9.152344 6.761719 C 9.257812 6.714844 9.363281 6.664062 9.464844 6.628906 C 9.527344 6.683594 9.613281 6.75 9.691406 6.820312 C 9.675781 6.820312 9.632812 6.820312 9.605469 6.847656 C 9.5625 6.878906 9.5 6.914062 9.484375 6.96875 C 9.441406 7.078125 9.421875 7.207031 9.378906 7.320312 C 9.371094 7.347656 9.242188 7.347656 9.230469 7.339844 C 9.171875 7.148438 9.015625 6.976562 9.109375 6.742188 C 9.128906 6.742188 9.144531 6.75 9.152344 6.761719 Z M 9.152344 6.761719 " fill-opacity="1" fill-rule="nonzero"/><path fill="rgb(0%, 0%, 0%)" d="M 4.058594 6.835938 C 4.058594 6.699219 4.046875 6.585938 4.046875 6.421875 C 4.144531 6.464844 4.214844 6.507812 4.335938 6.570312 C 4.308594 6.464844 4.28125 6.398438 4.28125 6.328125 C 4.28125 6.285156 4.292969 6.25 4.300781 6.207031 C 4.335938 6.226562 4.394531 6.226562 4.402344 6.25 C 4.449219 6.335938 4.472656 6.433594 4.507812 6.554688 C 4.515625 6.554688 4.570312 6.535156 4.613281 6.554688 C 4.648438 6.5625 4.691406 6.605469 4.699219 6.648438 C 4.707031 6.671875 4.671875 6.742188 4.65625 6.75 C 4.472656 6.785156 4.273438 6.8125 4.058594 6.835938 Z M 4.058594 6.835938 " fill-opacity="1" fill-rule="nonzero"/><path fill="rgb(0%, 0%, 0%)" d="M 15.398438 4.09375 C 15.355469 3.902344 15.519531 3.542969 15.640625 3.488281 C 15.753906 3.4375 15.847656 3.507812 15.839844 3.636719 C 15.824219 3.835938 15.78125 4.042969 15.570312 4.121094 C 15.519531 4.136719 15.441406 4.101562 15.398438 4.09375 Z M 15.398438 4.09375 " fill-opacity="1" fill-rule="nonzero"/><path fill="rgb(0%, 0%, 0%)" d="M 16.328125 5.085938 C 16.371094 5.179688 16.484375 5.277344 16.316406 5.335938 C 16.273438 5.355469 16.230469 5.355469 16.179688 5.371094 C 16.179688 5.328125 16.1875 5.265625 16.179688 5.222656 C 16.136719 5.09375 16.074219 4.972656 16.023438 4.835938 C 16.144531 4.808594 16.128906 4.507812 16.335938 4.65625 C 16.472656 4.757812 16.464844 4.851562 16.328125 5.085938 Z M 16.328125 5.085938 " fill-opacity="1" fill-rule="nonzero"/><path fill="rgb(0%, 0%, 0%)" d="M 2.917969 6.890625 C 3.152344 6.949219 3.386719 6.957031 3.632812 6.835938 C 3.613281 7 3.597656 6.984375 3.457031 7.035156 C 3.335938 7.070312 3.222656 7.132812 3.09375 7.078125 C 3.074219 7.070312 3.023438 7.15625 2.980469 7.199219 C 2.910156 7.070312 2.816406 6.949219 2.789062 6.820312 C 2.769531 6.75 2.875 6.65625 2.929688 6.578125 C 2.953125 6.628906 2.996094 6.671875 2.996094 6.714844 C 2.988281 6.769531 2.953125 6.820312 2.917969 6.890625 Z M 2.917969 6.890625 " fill-opacity="1" fill-rule="nonzero"/><path fill="rgb(0%, 0%, 0%)" d="M 17.65625 3.457031 C 17.691406 3.550781 17.714844 3.585938 17.734375 3.636719 C 17.777344 3.628906 17.828125 3.601562 17.863281 3.609375 C 17.90625 3.628906 17.960938 3.679688 17.976562 3.722656 C 17.984375 3.757812 17.949219 3.816406 17.917969 3.84375 C 17.855469 3.894531 17.777344 3.921875 17.714844 3.957031 C 17.679688 3.84375 17.578125 3.765625 17.429688 3.738281 C 17.378906 3.722656 17.308594 3.6875 17.265625 3.644531 C 17.238281 3.621094 17.257812 3.542969 17.257812 3.488281 C 17.300781 3.507812 17.34375 3.5 17.378906 3.523438 C 17.492188 3.609375 17.578125 3.644531 17.65625 3.457031 Z M 17.65625 3.457031 " fill-opacity="1" fill-rule="nonzero"/><path fill="rgb(0%, 0%, 0%)" d="M 6.382812 5.921875 C 6.558594 5.921875 6.679688 5.921875 6.800781 5.941406 C 6.835938 5.949219 6.871094 5.984375 6.878906 6.007812 C 6.886719 6.035156 6.863281 6.078125 6.835938 6.105469 C 6.800781 6.148438 6.757812 6.199219 6.707031 6.214844 C 6.636719 6.242188 6.539062 6.277344 6.480469 6.257812 C 6.410156 6.234375 6.324219 6.15625 6.289062 6.078125 C 6.28125 6.050781 6.367188 5.964844 6.382812 5.921875 Z M 6.382812 5.921875 " fill-opacity="1" fill-rule="nonzero"/><path fill="rgb(0%, 0%, 0%)" d="M 7.0625 11.339844 C 7.128906 11.339844 7.183594 11.351562 7.285156 11.351562 C 7.15625 11.488281 7.0625 11.601562 6.929688 11.730469 C 6.894531 11.53125 6.871094 11.375 6.863281 11.210938 C 6.863281 11.175781 6.914062 11.117188 6.957031 11.101562 C 6.992188 11.082031 7.0625 11.089844 7.085938 11.117188 C 7.113281 11.144531 7.105469 11.210938 7.105469 11.253906 C 7.105469 11.289062 7.085938 11.316406 7.0625 11.339844 Z M 7.0625 11.339844 " fill-opacity="1" fill-rule="nonzero"/><path fill="rgb(0%, 0%, 0%)" d="M 4.863281 11.453125 C 4.804688 11.644531 4.714844 11.695312 4.542969 11.695312 C 4.464844 11.695312 4.386719 11.773438 4.292969 11.816406 C 4.28125 11.808594 4.246094 11.753906 4.257812 11.746094 C 4.359375 11.632812 4.464844 11.523438 4.578125 11.445312 C 4.648438 11.402344 4.761719 11.4375 4.863281 11.453125 Z M 4.863281 11.453125 " fill-opacity="1" fill-rule="nonzero"/><path fill="rgb(0%, 0%, 0%)" d="M 5.203125 10.296875 C 5.1875 10.382812 5.175781 10.410156 5.1875 10.425781 C 5.152344 10.738281 5.152344 10.738281 4.871094 10.609375 C 4.804688 10.574219 4.734375 10.523438 4.664062 10.480469 C 4.671875 10.460938 4.671875 10.445312 4.683594 10.425781 C 4.742188 10.433594 4.804688 10.445312 4.863281 10.453125 C 4.863281 10.445312 4.855469 10.425781 4.847656 10.417969 C 4.949219 10.375 5.054688 10.339844 5.203125 10.296875 Z M 5.203125 10.296875 " fill-opacity="1" fill-rule="nonzero"/><path fill="rgb(0%, 0%, 0%)" d="M 6.15625 5.058594 C 6.203125 5.355469 6.234375 5.605469 6.269531 5.855469 C 6.269531 5.886719 6.253906 5.921875 6.246094 5.957031 C 6.210938 5.929688 6.148438 5.929688 6.140625 5.898438 C 6.113281 5.84375 6.089844 5.777344 6.089844 5.714844 C 6.078125 5.570312 6.070312 5.414062 6.078125 5.265625 C 6.0625 5.199219 6.105469 5.144531 6.15625 5.058594 Z M 6.15625 5.058594 " fill-opacity="1" fill-rule="nonzero"/><path fill="rgb(0%, 0%, 0%)" d="M 4.535156 10.6875 C 4.550781 10.703125 4.613281 10.71875 4.636719 10.761719 C 4.65625 10.796875 4.613281 10.859375 4.605469 10.902344 C 4.585938 10.9375 4.550781 10.960938 4.542969 11.003906 C 4.542969 11.125 4.464844 11.125 4.402344 11.101562 C 4.359375 11.082031 4.300781 11.011719 4.300781 10.960938 C 4.273438 10.859375 4.386719 10.703125 4.535156 10.6875 Z M 4.535156 10.6875 " fill-opacity="1" fill-rule="nonzero"/><path fill="rgb(0%, 0%, 0%)" d="M 3.007812 2.007812 C 3.007812 1.945312 2.972656 1.867188 2.988281 1.808594 C 2.996094 1.773438 3.074219 1.765625 3.109375 1.730469 C 3.152344 1.710938 3.1875 1.667969 3.230469 1.652344 C 3.273438 1.636719 3.328125 1.617188 3.363281 1.589844 C 3.386719 1.695312 3.40625 1.789062 3.414062 1.886719 C 3.414062 1.894531 3.300781 1.9375 3.285156 1.910156 C 3.152344 1.789062 3.085938 1.867188 3.039062 2.015625 C 3.03125 2.023438 3.023438 2.015625 3.007812 2.007812 Z M 3.007812 2.007812 " fill-opacity="1" fill-rule="nonzero"/><path fill="rgb(0%, 0%, 0%)" d="M 15.667969 2.808594 C 15.589844 2.851562 15.519531 2.894531 15.449219 2.929688 C 15.390625 2.867188 15.300781 2.808594 15.257812 2.730469 C 15.242188 2.6875 15.257812 2.601562 15.285156 2.539062 C 15.292969 2.523438 15.390625 2.523438 15.40625 2.539062 C 15.511719 2.628906 15.589844 2.714844 15.667969 2.808594 Z M 15.667969 2.808594 " fill-opacity="1" fill-rule="nonzero"/><path fill="rgb(0%, 0%, 0%)" d="M 4.386719 2.945312 C 4.371094 2.722656 4.394531 2.660156 4.578125 2.609375 C 4.613281 2.601562 4.664062 2.617188 4.691406 2.644531 C 4.707031 2.660156 4.714844 2.722656 4.699219 2.757812 C 4.65625 2.921875 4.558594 2.972656 4.386719 2.945312 Z M 4.386719 2.945312 " fill-opacity="1" fill-rule="nonzero"/><path fill="rgb(0%, 0%, 0%)" d="M 12.601562 4.007812 C 12.539062 4.015625 12.480469 4.023438 12.410156 4.035156 C 12.359375 4.109375 12.296875 4.199219 12.226562 4.308594 C 12.183594 4.179688 12.160156 4.085938 12.125 3.972656 C 12.273438 3.957031 12.402344 3.808594 12.585938 3.921875 C 12.59375 3.957031 12.59375 3.992188 12.601562 4.007812 Z M 12.601562 4.007812 " fill-opacity="1" fill-rule="nonzero"/><path fill="rgb(0%, 0%, 0%)" d="M 8.917969 1.4375 C 8.875 1.417969 8.832031 1.394531 8.796875 1.367188 C 8.78125 1.402344 8.78125 1.4375 8.773438 1.472656 C 8.773438 1.503906 8.789062 1.546875 8.796875 1.589844 C 8.832031 1.574219 8.875 1.558594 8.902344 1.523438 C 8.910156 1.496094 8.917969 1.472656 8.917969 1.4375 Z M 8.917969 1.4375 " fill-opacity="1" fill-rule="nonzero"/><path fill="rgb(0%, 0%, 0%)" d="M 12.652344 4.722656 C 12.601562 4.851562 12.566406 4.964844 12.515625 5.09375 C 12.382812 5.136719 12.289062 5.058594 12.261719 4.894531 C 12.472656 4.9375 12.488281 4.914062 12.417969 4.679688 C 12.515625 4.699219 12.585938 4.707031 12.652344 4.722656 Z M 12.652344 4.722656 " fill-opacity="1" fill-rule="nonzero"/><path fill="rgb(0%, 0%, 0%)" d="M 6.503906 10.6875 C 6.417969 10.597656 6.3125 10.574219 6.402344 10.445312 C 6.425781 10.402344 6.375 10.289062 6.347656 10.183594 C 6.445312 10.226562 6.523438 10.261719 6.609375 10.296875 C 6.574219 10.425781 6.550781 10.539062 6.503906 10.6875 Z M 6.503906 10.6875 " fill-opacity="1" fill-rule="nonzero"/><path fill="rgb(0%, 0%, 0%)" d="M 5.542969 8.183594 C 5.507812 8.140625 5.464844 8.097656 5.445312 8.046875 C 5.402344 7.90625 5.359375 7.769531 5.316406 7.632812 C 5.308594 7.605469 5.34375 7.570312 5.351562 7.546875 C 5.386719 7.570312 5.429688 7.570312 5.4375 7.605469 C 5.5 7.769531 5.550781 7.933594 5.601562 8.089844 C 5.585938 8.125 5.558594 8.148438 5.542969 8.183594 Z M 5.542969 8.183594 " fill-opacity="1" fill-rule="nonzero"/><path fill="rgb(0%, 0%, 0%)" d="M 1.40625 4.523438 C 1.511719 4.671875 1.53125 4.828125 1.433594 4.871094 C 1.390625 4.886719 1.296875 4.878906 1.261719 4.84375 C 1.207031 4.765625 1.285156 4.601562 1.40625 4.523438 Z M 1.40625 4.523438 " fill-opacity="1" fill-rule="nonzero"/><path fill="rgb(0%, 0%, 0%)" d="M 17.429688 6.0625 C 17.316406 6.050781 17.203125 6.0625 17.101562 6.050781 C 17.101562 6.042969 17.089844 6.027344 17.082031 6.007812 C 17.144531 5.964844 17.203125 5.921875 17.273438 5.878906 C 17.257812 5.828125 17.238281 5.769531 17.210938 5.699219 C 17.386719 5.75 17.464844 5.898438 17.429688 6.0625 Z M 17.429688 6.0625 " fill-opacity="1" fill-rule="nonzero"/><path fill="rgb(0%, 0%, 0%)" d="M 3.023438 8.625 C 3.058594 8.554688 3.074219 8.476562 3.117188 8.382812 C 3.144531 8.382812 3.214844 8.382812 3.320312 8.375 C 3.328125 8.449219 3.351562 8.5625 3.320312 8.582031 C 3.242188 8.640625 3.136719 8.648438 3.039062 8.683594 C 3.03125 8.65625 3.03125 8.640625 3.023438 8.625 Z M 3.023438 8.625 " fill-opacity="1" fill-rule="nonzero"/><path fill="rgb(0%, 0%, 0%)" d="M 15.058594 2.429688 C 14.980469 2.445312 14.902344 2.453125 14.832031 2.445312 C 14.824219 2.472656 14.824219 2.507812 14.816406 2.539062 C 14.953125 2.488281 15.042969 2.453125 15.136719 2.421875 L 15.136719 2.410156 C 15.109375 2.410156 15.085938 2.421875 15.058594 2.429688 Z M 15.058594 2.429688 " fill-opacity="1" fill-rule="nonzero"/><path fill="rgb(0%, 0%, 0%)" d="M 2.546875 6.414062 C 2.632812 6.292969 2.832031 6.242188 2.9375 6.320312 C 2.953125 6.335938 2.988281 6.363281 2.980469 6.390625 C 2.972656 6.421875 2.945312 6.457031 2.929688 6.464844 C 2.804688 6.507812 2.675781 6.519531 2.546875 6.414062 Z M 2.546875 6.414062 " fill-opacity="1" fill-rule="nonzero"/><path fill="rgb(0%, 0%, 0%)" d="M 16.832031 2.332031 C 16.832031 2.332031 16.8125 2.375 16.8125 2.394531 C 16.691406 2.332031 16.570312 2.28125 16.457031 2.214844 C 16.429688 2.195312 16.40625 2.152344 16.40625 2.117188 C 16.40625 2.09375 16.449219 2.039062 16.457031 2.039062 C 16.542969 2.082031 16.675781 2.023438 16.710938 2.160156 C 16.71875 2.222656 16.761719 2.257812 16.832031 2.332031 Z M 16.832031 2.332031 " fill-opacity="1" fill-rule="nonzero"/><path fill="rgb(0%, 0%, 0%)" d="M 4.769531 11.9375 C 4.707031 12.058594 4.4375 12.074219 4.386719 11.960938 C 4.371094 11.929688 4.378906 11.851562 4.402344 11.824219 C 4.429688 11.796875 4.492188 11.796875 4.527344 11.816406 C 4.613281 11.839844 4.683594 11.894531 4.769531 11.9375 Z M 4.769531 11.9375 " fill-opacity="1" fill-rule="nonzero"/><path fill="rgb(0%, 0%, 0%)" d="M 6.636719 2.28125 C 6.472656 2.273438 6.324219 2.265625 6.167969 2.257812 C 6.148438 2.117188 6.261719 2.125 6.332031 2.117188 C 6.515625 2.082031 6.566406 2.109375 6.636719 2.28125 Z M 6.636719 2.28125 " fill-opacity="1" fill-rule="nonzero"/><g clip-path="url(#id25)"><path fill="rgb(0%, 0%, 0%)" d="M 17.933594 4.378906 C 17.863281 4.273438 17.820312 4.207031 17.757812 4.109375 C 17.785156 4.078125 17.828125 4.035156 17.882812 3.980469 C 17.925781 4.050781 17.960938 4.109375 17.984375 4.164062 C 18.011719 4.214844 18.039062 4.265625 18.0625 4.316406 C 18.019531 4.335938 17.960938 4.359375 17.933594 4.378906 Z M 17.933594 4.378906 " fill-opacity="1" fill-rule="nonzero"/></g><path fill="rgb(0%, 0%, 0%)" d="M 4.101562 10.511719 C 4.160156 10.488281 4.195312 10.453125 4.230469 10.445312 C 4.308594 10.417969 4.386719 10.410156 4.464844 10.402344 C 4.492188 10.402344 4.542969 10.410156 4.550781 10.425781 C 4.578125 10.480469 4.578125 10.539062 4.585938 10.589844 C 4.585938 10.597656 4.535156 10.632812 4.507812 10.632812 C 4.394531 10.617188 4.292969 10.589844 4.1875 10.574219 C 4.179688 10.554688 4.160156 10.546875 4.101562 10.511719 Z M 4.101562 10.511719 " fill-opacity="1" fill-rule="nonzero"/><g clip-path="url(#id26)"><path fill="rgb(0%, 0%, 0%)" d="M 4.542969 13.171875 C 4.5 13.171875 4.449219 13.179688 4.394531 13.195312 C 4.4375 13.1875 4.492188 13.179688 4.542969 13.171875 Z M 4.542969 13.171875 " fill-opacity="1" fill-rule="nonzero"/></g><path fill="rgb(0%, 0%, 0%)" d="M 5.296875 12.550781 C 5.210938 12.453125 5.152344 12.402344 5.117188 12.332031 C 5.105469 12.316406 5.175781 12.210938 5.1875 12.222656 C 5.253906 12.257812 5.324219 12.308594 5.386719 12.359375 C 5.394531 12.367188 5.351562 12.453125 5.296875 12.550781 Z M 5.296875 12.550781 " fill-opacity="1" fill-rule="nonzero"/><path fill="rgb(0%, 0%, 0%)" d="M 12.835938 4.523438 C 12.929688 4.40625 13.042969 4.285156 13.140625 4.164062 C 13.164062 4.1875 13.191406 4.199219 13.21875 4.222656 C 13.183594 4.265625 13.121094 4.300781 13.113281 4.351562 C 13.105469 4.40625 13.148438 4.464844 13.175781 4.570312 C 13.105469 4.535156 13.0625 4.507812 13.019531 4.507812 C 12.976562 4.507812 12.921875 4.542969 12.878906 4.558594 C 12.851562 4.542969 12.84375 4.535156 12.835938 4.523438 Z M 12.835938 4.523438 " fill-opacity="1" fill-rule="nonzero"/><path fill="rgb(0%, 0%, 0%)" d="M 7.523438 1.929688 C 7.554688 1.808594 7.589844 1.679688 7.625 1.566406 C 7.632812 1.539062 7.695312 1.539062 7.730469 1.523438 C 7.738281 1.566406 7.765625 1.601562 7.757812 1.625 C 7.703125 1.738281 7.644531 1.851562 7.582031 1.960938 C 7.566406 1.945312 7.546875 1.9375 7.523438 1.929688 Z M 7.523438 1.929688 " fill-opacity="1" fill-rule="nonzero"/><path fill="rgb(0%, 0%, 0%)" d="M 15.109375 5.941406 C 15.199219 5.835938 15.257812 5.757812 15.328125 5.699219 C 15.335938 5.691406 15.390625 5.75 15.433594 5.785156 C 15.378906 5.855469 15.328125 5.929688 15.257812 5.984375 C 15.242188 5.992188 15.1875 5.964844 15.109375 5.941406 Z M 15.109375 5.941406 " fill-opacity="1" fill-rule="nonzero"/><path fill="rgb(0%, 0%, 0%)" d="M 10.125 8.632812 C 10.117188 8.492188 10.117188 8.390625 10.257812 8.382812 C 10.292969 8.382812 10.371094 8.441406 10.359375 8.46875 C 10.351562 8.613281 10.257812 8.640625 10.125 8.632812 Z M 10.125 8.632812 " fill-opacity="1" fill-rule="nonzero"/><path fill="rgb(0%, 0%, 0%)" d="M 5.289062 7.15625 C 5.238281 7.320312 5.210938 7.449219 5.039062 7.433594 C 5.027344 7.363281 5.019531 7.292969 5.003906 7.207031 C 5.089844 7.199219 5.175781 7.183594 5.289062 7.15625 Z M 5.289062 7.15625 " fill-opacity="1" fill-rule="nonzero"/><path fill="rgb(0%, 0%, 0%)" d="M 2.492188 4.40625 C 2.5625 4.335938 2.589844 4.273438 2.640625 4.265625 C 2.667969 4.257812 2.753906 4.308594 2.753906 4.328125 C 2.746094 4.394531 2.71875 4.464844 2.691406 4.535156 C 2.640625 4.507812 2.582031 4.472656 2.492188 4.40625 Z M 2.492188 4.40625 " fill-opacity="1" fill-rule="nonzero"/><path fill="rgb(0%, 0%, 0%)" d="M 7.390625 3.03125 C 7.339844 2.84375 7.285156 2.679688 7.242188 2.488281 C 7.417969 2.582031 7.496094 2.878906 7.390625 3.03125 Z M 7.390625 3.03125 " fill-opacity="1" fill-rule="nonzero"/><g clip-path="url(#id27)"><path fill="rgb(0%, 0%, 0%)" d="M 4.074219 0.859375 C 4.074219 0.867188 4.074219 0.875 4.082031 0.882812 C 4.136719 0.796875 4.152344 0.703125 4.136719 0.625 C 4.109375 0.632812 4.089844 0.625 4.074219 0.625 C 4.082031 0.710938 4.082031 0.78125 4.074219 0.859375 Z M 4.074219 0.859375 " fill-opacity="1" fill-rule="nonzero"/></g><path fill="rgb(0%, 0%, 0%)" d="M 13.921875 3.972656 C 13.84375 4 13.773438 4.035156 13.703125 4.058594 C 13.714844 3.980469 13.730469 3.902344 13.738281 3.828125 C 13.746094 3.792969 13.765625 3.757812 13.773438 3.714844 C 13.792969 3.714844 13.808594 3.722656 13.824219 3.722656 C 13.851562 3.800781 13.878906 3.859375 13.921875 3.972656 Z M 13.921875 3.972656 " fill-opacity="1" fill-rule="nonzero"/><path fill="rgb(0%, 0%, 0%)" d="M 2.71875 11.679688 C 2.789062 11.796875 2.554688 12.003906 2.875 11.953125 C 2.769531 12.023438 2.667969 12.101562 2.589844 11.988281 C 2.484375 11.832031 2.667969 11.796875 2.71875 11.679688 Z M 2.71875 11.679688 " fill-opacity="1" fill-rule="nonzero"/><path fill="rgb(0%, 0%, 0%)" d="M 5.671875 11.851562 C 5.671875 11.996094 5.585938 12.03125 5.488281 12.023438 C 5.464844 12.015625 5.429688 11.960938 5.394531 11.929688 C 5.429688 11.894531 5.453125 11.851562 5.5 11.839844 C 5.550781 11.832031 5.609375 11.851562 5.671875 11.851562 Z M 5.671875 11.851562 " fill-opacity="1" fill-rule="nonzero"/><path fill="rgb(0%, 0%, 0%)" d="M 5.84375 12.886719 C 5.871094 12.886719 5.90625 12.886719 5.933594 12.886719 C 6.011719 12.851562 6.078125 12.824219 6.167969 12.808594 C 6.0625 12.703125 5.933594 12.738281 5.84375 12.886719 Z M 5.84375 12.886719 " fill-opacity="1" fill-rule="nonzero"/><path fill="rgb(0%, 0%, 0%)" d="M 6.097656 7.742188 C 6.253906 7.777344 6.359375 7.796875 6.472656 7.8125 C 6.410156 7.933594 6.3125 7.949219 6.226562 7.917969 C 6.183594 7.898438 6.15625 7.8125 6.097656 7.742188 Z M 6.097656 7.742188 " fill-opacity="1" fill-rule="nonzero"/><path fill="rgb(0%, 0%, 0%)" d="M 5.117188 9.597656 C 5.003906 9.660156 4.917969 9.804688 4.742188 9.695312 C 4.839844 9.496094 4.996094 9.625 5.117188 9.597656 Z M 5.117188 9.597656 " fill-opacity="1" fill-rule="nonzero"/><path fill="rgb(0%, 0%, 0%)" d="M 2.511719 9.867188 C 2.546875 9.945312 2.582031 10.011719 2.605469 10.089844 C 2.605469 10.097656 2.511719 10.140625 2.46875 10.160156 C 2.457031 10.074219 2.441406 9.988281 2.425781 9.890625 C 2.449219 9.902344 2.484375 9.882812 2.511719 9.867188 Z M 2.511719 9.867188 " fill-opacity="1" fill-rule="nonzero"/><path fill="rgb(0%, 0%, 0%)" d="M 9.03125 7.113281 C 9.074219 7.175781 9.121094 7.234375 9.179688 7.320312 C 9.101562 7.347656 9.042969 7.363281 8.972656 7.390625 C 8.929688 7.277344 8.867188 7.164062 9.03125 7.113281 Z M 9.03125 7.113281 " fill-opacity="1" fill-rule="nonzero"/><path fill="rgb(0%, 0%, 0%)" d="M 6.894531 4.871094 C 6.957031 4.914062 7.027344 4.957031 7.085938 4.992188 C 7.035156 5.035156 6.984375 5.085938 6.921875 5.128906 C 6.894531 5.050781 6.863281 4.984375 6.84375 4.90625 C 6.863281 4.894531 6.878906 4.878906 6.894531 4.871094 Z M 6.894531 4.871094 " fill-opacity="1" fill-rule="nonzero"/><path fill="rgb(0%, 0%, 0%)" d="M 12.046875 6.890625 C 12.027344 6.90625 12.019531 6.921875 12.011719 6.941406 C 12.019531 6.933594 12.027344 6.921875 12.046875 6.921875 C 12.097656 6.90625 12.140625 6.898438 12.195312 6.890625 C 12.203125 6.878906 12.203125 6.878906 12.203125 6.871094 C 12.195312 6.863281 12.183594 6.847656 12.183594 6.828125 C 12.140625 6.855469 12.082031 6.863281 12.046875 6.890625 Z M 12.046875 6.890625 " fill-opacity="1" fill-rule="nonzero"/><path fill="rgb(0%, 0%, 0%)" d="M 7.6875 10.210938 C 7.773438 10.21875 7.851562 10.21875 7.9375 10.226562 C 7.929688 10.28125 7.921875 10.347656 7.894531 10.359375 C 7.800781 10.402344 7.730469 10.347656 7.667969 10.28125 C 7.679688 10.261719 7.679688 10.238281 7.6875 10.210938 Z M 7.6875 10.210938 " fill-opacity="1" fill-rule="nonzero"/><path fill="rgb(0%, 0%, 0%)" d="M 8.101562 10.960938 C 8.050781 11.039062 8.015625 11.109375 7.964844 11.167969 C 7.945312 11.1875 7.902344 11.203125 7.878906 11.1875 C 7.851562 11.167969 7.84375 11.117188 7.84375 11.101562 C 7.894531 11.003906 7.9375 10.894531 8.101562 10.960938 Z M 8.101562 10.960938 " fill-opacity="1" fill-rule="nonzero"/><path fill="rgb(0%, 0%, 0%)" d="M 16.535156 6.085938 C 16.414062 6.164062 16.316406 6.207031 16.214844 6.269531 C 16.25 6.035156 16.292969 6 16.535156 6.085938 Z M 16.535156 6.085938 " fill-opacity="1" fill-rule="nonzero"/><path fill="rgb(0%, 0%, 0%)" d="M 13.339844 6.542969 C 13.269531 6.328125 13.496094 6.421875 13.511719 6.292969 C 13.601562 6.449219 13.582031 6.476562 13.339844 6.542969 Z M 13.339844 6.542969 " fill-opacity="1" fill-rule="nonzero"/><path fill="rgb(0%, 0%, 0%)" d="M 16.996094 2.152344 C 17.046875 2.09375 17.074219 2.03125 17.101562 2.039062 C 17.152344 2.050781 17.195312 2.09375 17.222656 2.125 C 17.230469 2.144531 17.179688 2.230469 17.152344 2.238281 C 17.109375 2.238281 17.066406 2.195312 16.996094 2.152344 Z M 16.996094 2.152344 " fill-opacity="1" fill-rule="nonzero"/><path fill="rgb(0%, 0%, 0%)" d="M 1.800781 1.875 C 1.867188 1.824219 1.929688 1.773438 2 1.730469 C 2.007812 1.722656 2.058594 1.78125 2.085938 1.808594 C 2.058594 1.832031 2.042969 1.859375 2.015625 1.875 C 1.957031 1.902344 1.886719 1.910156 1.824219 1.917969 C 1.816406 1.910156 1.808594 1.894531 1.800781 1.875 Z M 1.800781 1.875 " fill-opacity="1" fill-rule="nonzero"/><path fill="rgb(0%, 0%, 0%)" d="M 8.554688 8.105469 C 8.527344 8.167969 8.511719 8.199219 8.492188 8.242188 C 8.460938 8.21875 8.398438 8.191406 8.390625 8.167969 C 8.390625 8.105469 8.40625 8.035156 8.414062 7.976562 C 8.460938 8.019531 8.503906 8.0625 8.554688 8.105469 Z M 8.554688 8.105469 " fill-opacity="1" fill-rule="nonzero"/><path fill="rgb(0%, 0%, 0%)" d="M 6.472656 9.460938 C 6.488281 9.597656 6.503906 9.683594 6.523438 9.804688 C 6.3125 9.660156 6.3125 9.625 6.472656 9.460938 Z M 6.472656 9.460938 " fill-opacity="1" fill-rule="nonzero"/><path fill="rgb(0%, 0%, 0%)" d="M 4.90625 7.285156 C 4.804688 7.371094 4.714844 7.441406 4.585938 7.535156 C 4.613281 7.449219 4.613281 7.363281 4.648438 7.355469 C 4.726562 7.320312 4.785156 7.199219 4.90625 7.285156 Z M 4.90625 7.285156 " fill-opacity="1" fill-rule="nonzero"/><path fill="rgb(0%, 0%, 0%)" d="M 2.503906 1.722656 C 2.300781 1.652344 2.285156 1.574219 2.425781 1.351562 C 2.535156 1.453125 2.292969 1.617188 2.503906 1.722656 Z M 2.503906 1.722656 " fill-opacity="1" fill-rule="nonzero"/><path fill="rgb(0%, 0%, 0%)" d="M 3.34375 7.613281 C 3.457031 7.640625 3.535156 7.65625 3.605469 7.683594 C 3.605469 7.707031 3.605469 7.726562 3.605469 7.753906 C 3.535156 7.753906 3.464844 7.769531 3.386719 7.769531 C 3.378906 7.769531 3.363281 7.691406 3.34375 7.613281 Z M 3.34375 7.613281 " fill-opacity="1" fill-rule="nonzero"/><path fill="rgb(0%, 0%, 0%)" d="M 8.46875 5.605469 C 8.460938 5.621094 8.449219 5.648438 8.433594 5.65625 C 8.371094 5.679688 8.292969 5.707031 8.226562 5.734375 C 8.214844 5.707031 8.207031 5.648438 8.214844 5.648438 C 8.292969 5.613281 8.363281 5.585938 8.449219 5.550781 C 8.449219 5.570312 8.460938 5.585938 8.46875 5.605469 Z M 8.46875 5.605469 " fill-opacity="1" fill-rule="nonzero"/><path fill="rgb(0%, 0%, 0%)" d="M 7.417969 8.417969 C 7.460938 8.398438 7.496094 8.390625 7.546875 8.375 C 7.566406 8.449219 7.582031 8.519531 7.601562 8.589844 C 7.589844 8.605469 7.582031 8.613281 7.582031 8.632812 C 7.523438 8.582031 7.460938 8.527344 7.398438 8.476562 C 7.390625 8.449219 7.410156 8.433594 7.417969 8.417969 Z M 7.417969 8.417969 " fill-opacity="1" fill-rule="nonzero"/><path fill="rgb(0%, 0%, 0%)" d="M 4.578125 2.230469 C 4.472656 2.429688 4.402344 2.429688 4.308594 2.289062 C 4.394531 2.273438 4.472656 2.257812 4.578125 2.230469 Z M 4.578125 2.230469 " fill-opacity="1" fill-rule="nonzero"/><path fill="rgb(0%, 0%, 0%)" d="M 11.144531 7.753906 C 11.160156 7.71875 11.167969 7.683594 11.1875 7.640625 C 11.132812 7.632812 11.089844 7.613281 11.03125 7.605469 C 11.054688 7.570312 11.066406 7.554688 11.082031 7.527344 C 11.144531 7.578125 11.203125 7.621094 11.253906 7.675781 C 11.265625 7.683594 11.203125 7.753906 11.175781 7.785156 C 11.167969 7.769531 11.160156 7.761719 11.144531 7.753906 Z M 11.144531 7.753906 " fill-opacity="1" fill-rule="nonzero"/><g clip-path="url(#id28)"><path fill="rgb(0%, 0%, 0%)" d="M 7.589844 0.804688 C 7.582031 0.824219 7.582031 0.839844 7.582031 0.859375 C 7.582031 0.882812 7.625 0.910156 7.6875 0.96875 C 7.703125 0.925781 7.710938 0.894531 7.730469 0.867188 C 7.6875 0.851562 7.644531 0.832031 7.589844 0.804688 Z M 7.589844 0.804688 " fill-opacity="1" fill-rule="nonzero"/></g><path fill="rgb(0%, 0%, 0%)" d="M 9.699219 2.03125 C 9.683594 2.015625 9.667969 1.996094 9.640625 1.980469 C 9.640625 2.023438 9.640625 2.074219 9.648438 2.125 C 9.675781 2.125 9.691406 2.125 9.710938 2.125 C 9.710938 2.101562 9.710938 2.066406 9.710938 2.039062 C 9.699219 2.039062 9.699219 2.03125 9.699219 2.03125 Z M 9.699219 2.03125 " fill-opacity="1" fill-rule="nonzero"/><path fill="rgb(0%, 0%, 0%)" d="M 4.386719 7.511719 C 4.464844 7.597656 4.449219 7.691406 4.386719 7.785156 C 4.371094 7.785156 4.34375 7.785156 4.324219 7.785156 C 4.324219 7.699219 4.316406 7.613281 4.316406 7.527344 C 4.34375 7.519531 4.359375 7.519531 4.386719 7.511719 Z M 4.386719 7.511719 " fill-opacity="1" fill-rule="nonzero"/><path fill="rgb(0%, 0%, 0%)" d="M 1.929688 2.878906 C 2.023438 2.894531 2.121094 2.910156 2.25 2.9375 C 2.121094 3.03125 2.035156 3.023438 1.929688 2.878906 Z M 1.929688 2.878906 " fill-opacity="1" fill-rule="nonzero"/><path fill="rgb(0%, 0%, 0%)" d="M 6.21875 4.871094 C 6.191406 4.765625 6.175781 4.6875 6.15625 4.613281 C 6.191406 4.621094 6.226562 4.621094 6.234375 4.636719 C 6.296875 4.707031 6.332031 4.785156 6.21875 4.871094 Z M 6.21875 4.871094 " fill-opacity="1" fill-rule="nonzero"/><path fill="rgb(0%, 0%, 0%)" d="M 7.625 11.054688 C 7.546875 11.109375 7.476562 11.160156 7.390625 11.21875 C 7.417969 11.011719 7.46875 10.980469 7.625 11.054688 Z M 7.625 11.054688 " fill-opacity="1" fill-rule="nonzero"/><path fill="rgb(0%, 0%, 0%)" d="M 7.15625 12.410156 C 7.183594 12.359375 7.191406 12.34375 7.207031 12.316406 C 7.253906 12.351562 7.304688 12.367188 7.347656 12.410156 C 7.355469 12.417969 7.332031 12.464844 7.320312 12.488281 C 7.277344 12.464844 7.21875 12.445312 7.15625 12.410156 Z M 7.15625 12.410156 " fill-opacity="1" fill-rule="nonzero"/><path fill="rgb(0%, 0%, 0%)" d="M 5.628906 5.515625 C 5.59375 5.457031 5.550781 5.398438 5.515625 5.335938 C 5.542969 5.320312 5.585938 5.292969 5.585938 5.292969 C 5.628906 5.34375 5.664062 5.414062 5.699219 5.472656 C 5.679688 5.484375 5.65625 5.5 5.628906 5.515625 Z M 5.628906 5.515625 " fill-opacity="1" fill-rule="nonzero"/><path fill="rgb(0%, 0%, 0%)" d="M 14.304688 3.75 C 14.261719 3.808594 14.214844 3.871094 14.171875 3.921875 C 14.164062 3.921875 14.148438 3.914062 14.136719 3.921875 C 14.136719 3.871094 14.121094 3.800781 14.148438 3.765625 C 14.171875 3.730469 14.242188 3.730469 14.277344 3.707031 C 14.285156 3.714844 14.292969 3.738281 14.304688 3.75 Z M 14.304688 3.75 " fill-opacity="1" fill-rule="nonzero"/><path fill="rgb(0%, 0%, 0%)" d="M 14.894531 2.816406 C 14.875 2.617188 15.023438 2.644531 15.136719 2.617188 C 15.058594 2.6875 14.980469 2.757812 14.894531 2.816406 Z M 14.894531 2.816406 " fill-opacity="1" fill-rule="nonzero"/><path fill="rgb(0%, 0%, 0%)" d="M 16.910156 5.144531 C 16.933594 5.207031 16.96875 5.277344 16.996094 5.328125 C 16.996094 5.335938 16.960938 5.355469 16.945312 5.371094 C 16.910156 5.308594 16.867188 5.25 16.839844 5.179688 C 16.855469 5.179688 16.882812 5.164062 16.910156 5.144531 Z M 16.910156 5.144531 " fill-opacity="1" fill-rule="nonzero"/><path fill="rgb(0%, 0%, 0%)" d="M 16.789062 2.582031 C 16.839844 2.558594 16.890625 2.539062 16.953125 2.523438 C 16.960938 2.523438 16.976562 2.582031 16.996094 2.617188 C 16.933594 2.636719 16.875 2.644531 16.8125 2.660156 C 16.804688 2.636719 16.789062 2.609375 16.789062 2.582031 Z M 16.789062 2.582031 " fill-opacity="1" fill-rule="nonzero"/><path fill="rgb(0%, 0%, 0%)" d="M 2.378906 9.648438 C 2.425781 9.597656 2.449219 9.5625 2.476562 9.554688 C 2.503906 9.546875 2.5625 9.589844 2.5625 9.597656 C 2.554688 9.648438 2.535156 9.683594 2.511719 9.726562 C 2.476562 9.695312 2.441406 9.675781 2.378906 9.648438 Z M 2.378906 9.648438 " fill-opacity="1" fill-rule="nonzero"/><path fill="rgb(0%, 0%, 0%)" d="M 6.183594 2.894531 C 6.226562 2.929688 6.296875 2.964844 6.3125 3.015625 C 6.332031 3.058594 6.304688 3.117188 6.296875 3.179688 C 6.269531 3.160156 6.246094 3.152344 6.21875 3.128906 C 6.191406 3.066406 6.175781 2.988281 6.148438 2.921875 C 6.167969 2.910156 6.167969 2.902344 6.183594 2.894531 Z M 6.183594 2.894531 " fill-opacity="1" fill-rule="nonzero"/><path fill="rgb(0%, 0%, 0%)" d="M 12.664062 4.273438 C 12.707031 4.328125 12.742188 4.371094 12.785156 4.421875 C 12.773438 4.4375 12.773438 4.457031 12.765625 4.464844 C 12.730469 4.464844 12.671875 4.472656 12.652344 4.449219 C 12.628906 4.40625 12.628906 4.351562 12.609375 4.292969 C 12.628906 4.292969 12.644531 4.285156 12.664062 4.273438 Z M 12.664062 4.273438 " fill-opacity="1" fill-rule="nonzero"/><path fill="rgb(0%, 0%, 0%)" d="M 3.777344 11.859375 C 3.71875 11.851562 3.65625 11.839844 3.597656 11.832031 C 3.605469 11.796875 3.613281 11.765625 3.621094 11.730469 C 3.675781 11.746094 3.734375 11.773438 3.796875 11.789062 C 3.789062 11.808594 3.777344 11.824219 3.777344 11.859375 Z M 3.777344 11.859375 " fill-opacity="1" fill-rule="nonzero"/><path fill="rgb(0%, 0%, 0%)" d="M 2.867188 2.179688 C 2.953125 2.222656 3.007812 2.238281 3.101562 2.28125 C 3.023438 2.324219 2.972656 2.34375 2.894531 2.386719 C 2.882812 2.308594 2.882812 2.257812 2.867188 2.179688 Z M 2.867188 2.179688 " fill-opacity="1" fill-rule="nonzero"/><path fill="rgb(0%, 0%, 0%)" d="M 9.769531 7.890625 C 9.769531 8.003906 9.796875 8.097656 9.78125 8.167969 C 9.761719 8.21875 9.691406 8.167969 9.710938 8.089844 C 9.726562 8.046875 9.734375 8.003906 9.746094 7.960938 C 9.753906 7.941406 9.753906 7.933594 9.769531 7.890625 Z M 9.769531 7.890625 " fill-opacity="1" fill-rule="nonzero"/><path fill="rgb(0%, 0%, 0%)" d="M 15.292969 5.292969 C 15.25 5.335938 15.207031 5.386719 15.164062 5.421875 C 15.15625 5.429688 15.109375 5.386719 15.09375 5.371094 C 15.144531 5.328125 15.1875 5.285156 15.234375 5.234375 C 15.25 5.25 15.265625 5.277344 15.292969 5.292969 Z M 15.292969 5.292969 " fill-opacity="1" fill-rule="nonzero"/><path fill="rgb(0%, 0%, 0%)" d="M 8.398438 4.914062 C 8.398438 4.992188 8.390625 5.078125 8.398438 5.15625 C 8.371094 5.15625 8.355469 5.15625 8.335938 5.15625 C 8.328125 5.070312 8.328125 4.992188 8.320312 4.90625 C 8.347656 4.90625 8.382812 4.914062 8.398438 4.914062 Z M 8.398438 4.914062 " fill-opacity="1" fill-rule="nonzero"/></g></g></g><path fill="rgb(0%, 0%, 0%)" d="M 4.535156 30.152344 C 5.542969 30.78125 6.652344 31.238281 7.808594 31.507812 C 7.851562 31.515625 7.871094 31.453125 7.824219 31.445312 C 6.671875 31.1875 5.566406 30.730469 4.570312 30.101562 C 4.535156 30.074219 4.5 30.125 4.535156 30.152344 Z M 4.535156 30.152344 " fill-opacity="1" fill-rule="nonzero"/><path fill="rgb(0%, 0%, 0%)" d="M 5.722656 30.296875 C 6.367188 30.722656 7.105469 30.980469 7.871094 31.046875 C 7.914062 31.046875 7.914062 30.988281 7.871094 30.980469 C 7.113281 30.910156 6.394531 30.652344 5.757812 30.238281 C 5.714844 30.21875 5.691406 30.28125 5.722656 30.296875 Z M 5.722656 30.296875 " fill-opacity="1" fill-rule="nonzero"/><path fill="rgb(0%, 0%, 0%)" d="M 15.320312 5.46875 C 13.792969 6.054688 12.148438 6.3125 10.519531 6.242188 C 10.046875 6.21875 9.578125 6.175781 9.109375 6.097656 C 9.066406 6.089844 9.050781 6.148438 9.09375 6.15625 C 10.71875 6.425781 12.382812 6.363281 13.984375 5.957031 C 14.441406 5.847656 14.894531 5.699219 15.335938 5.527344 C 15.371094 5.511719 15.355469 5.449219 15.320312 5.46875 Z M 15.320312 5.46875 " fill-opacity="1" fill-rule="nonzero"/><path fill="rgb(0%, 0%, 0%)" d="M 12.472656 5.449219 C 11.863281 5.664062 11.222656 5.761719 10.570312 5.742188 C 10.527344 5.742188 10.527344 5.804688 10.570312 5.8125 C 11.222656 5.828125 11.871094 5.734375 12.488281 5.519531 C 12.523438 5.5 12.515625 5.433594 12.472656 5.449219 Z M 12.472656 5.449219 " fill-opacity="1" fill-rule="nonzero"/><path fill="rgb(0%, 0%, 0%)" d="M 14.007812 21.007812 C 13.402344 22.957031 13.261719 25.042969 13.59375 27.0625 C 13.6875 27.640625 13.816406 28.203125 13.992188 28.761719 C 14 28.804688 14.070312 28.789062 14.050781 28.746094 C 13.453125 26.785156 13.324219 24.699219 13.671875 22.6875 C 13.765625 22.128906 13.894531 21.574219 14.070312 21.03125 C 14.085938 20.980469 14.027344 20.960938 14.007812 21.007812 Z M 14.007812 21.007812 " fill-opacity="1" fill-rule="nonzero"/><path fill="rgb(0%, 0%, 0%)" d="M 13.894531 24.898438 C 13.921875 26.355469 13.964844 27.925781 14.867188 29.160156 C 14.894531 29.195312 14.945312 29.160156 14.921875 29.125 C 14.027344 27.910156 13.984375 26.347656 13.957031 24.898438 C 13.964844 24.855469 13.894531 24.855469 13.894531 24.898438 Z M 13.894531 24.898438 " fill-opacity="1" fill-rule="nonzero"/><path fill="rgb(0%, 0%, 0%)" d="M 18.777344 21.972656 C 19.359375 23.085938 19.695312 24.308594 19.765625 25.5625 C 19.765625 25.605469 19.835938 25.605469 19.835938 25.5625 C 19.765625 24.300781 19.425781 23.058594 18.835938 21.9375 C 18.8125 21.902344 18.757812 21.929688 18.777344 21.972656 Z M 18.777344 21.972656 " fill-opacity="1" fill-rule="nonzero"/><path fill="rgb(0%, 0%, 0%)" d="M 12.394531 28.003906 C 12.203125 28.339844 12.011719 28.683594 11.828125 29.019531 C 11.8125 29.054688 11.863281 29.089844 11.882812 29.054688 C 12.070312 28.71875 12.261719 28.375 12.445312 28.039062 C 12.472656 28.003906 12.410156 27.96875 12.394531 28.003906 Z M 12.394531 28.003906 " fill-opacity="1" fill-rule="nonzero"/><path fill="rgb(0%, 0%, 0%)" d="M 9.996094 15.519531 C 10.082031 16.449219 10.214844 17.382812 10.378906 18.304688 C 10.386719 18.347656 10.449219 18.332031 10.441406 18.289062 C 10.273438 17.375 10.152344 16.441406 10.066406 15.519531 C 10.058594 15.476562 9.996094 15.476562 9.996094 15.519531 Z M 9.996094 15.519531 " fill-opacity="1" fill-rule="nonzero"/><path fill="rgb(0%, 0%, 0%)" d="M 9.769531 16.839844 C 9.804688 17.304688 9.839844 17.777344 9.875 18.246094 C 9.875 18.289062 9.945312 18.289062 9.945312 18.246094 C 9.910156 17.777344 9.875 17.304688 9.839844 16.839844 C 9.832031 16.796875 9.769531 16.796875 9.769531 16.839844 Z M 9.769531 16.839844 " fill-opacity="1" fill-rule="nonzero"/></svg>