<svg xmlns="http://www.w3.org/2000/svg" xmlns:xlink="http://www.w3.org/1999/xlink" width="50" zoomAndPan="magnify" viewBox="0 0 37.5 37.499999" height="50" preserveAspectRatio="xMidYMid meet" version="1.0"><defs><clipPath id="id1"><path d="M 4 17 L 36.578125 17 L 36.578125 37.007812 L 4 37.007812 Z M 4 17 " clip-rule="nonzero"/></clipPath><clipPath id="id2"><path d="M 4 0 L 36.578125 0 L 36.578125 30 L 4 30 Z M 4 0 " clip-rule="nonzero"/></clipPath><clipPath id="id3"><path d="M 0.578125 0 L 20 0 L 20 21 L 0.578125 21 Z M 0.578125 0 " clip-rule="nonzero"/></clipPath><clipPath id="id4"><path d="M 1 5 L 34 5 L 34 37.007812 L 1 37.007812 Z M 1 5 " clip-rule="nonzero"/></clipPath></defs><g clip-path="url(#id1)"><path fill="rgb(66.668701%, 38.038635%, 18.03894%)" d="M 4.355469 33.488281 C 4.738281 32.429688 5.234375 31.035156 5.324219 30.367188 C 5.464844 29.25 5.730469 27.171875 5.730469 27.171875 C 5.730469 27.171875 4.984375 26.394531 4.785156 25.523438 C 4.582031 24.648438 4.117188 19.945312 4.082031 19.570312 C 4.042969 19.199219 4.28125 19.144531 4.28125 19.144531 C 4.28125 19.144531 4.503906 20.316406 5.382812 20.625 C 6.253906 20.929688 9.199219 21.828125 11.21875 21.625 C 13.238281 21.421875 14.164062 20.289062 14.164062 20.289062 C 14.164062 20.289062 14.363281 21.132812 14.28125 21.4375 C 14.199219 21.746094 12.285156 26.851562 11.957031 27.136719 C 11.632812 27.417969 10.910156 27.828125 10.910156 27.828125 C 10.910156 27.828125 10.769531 28.832031 10.910156 30.375 C 11.050781 31.921875 11.757812 35.320312 11.757812 35.320312 C 11.757812 35.320312 11.257812 37.007812 8.429688 37.007812 C 6.707031 37.007812 5.414062 36.269531 4.652344 35.648438 C 4.636719 34.960938 4.441406 33.945312 4.355469 33.488281 Z M 23.171875 26.507812 C 23.648438 27.746094 24.917969 29.195312 24.917969 29.195312 L 25.179688 30.644531 L 28.550781 25.410156 C 28.550781 25.410156 28.601562 24.8125 28.550781 23.984375 C 28.5 23.148438 29.335938 21.601562 29.335938 21.601562 C 29.335938 21.601562 28.558594 23.027344 27.828125 23.363281 C 27.09375 23.699219 25.304688 24.105469 23.839844 23.746094 C 22.375 23.386719 22.027344 22.058594 21.914062 21.960938 C 21.914062 21.960938 22.699219 25.269531 23.171875 26.507812 Z M 23.003906 26.007812 C 23.0625 26.195312 23.234375 26.261719 23.285156 26.402344 C 23.3125 26.476562 23.238281 26.664062 23.269531 26.738281 C 23.792969 27.917969 24.917969 29.195312 24.917969 29.195312 L 25.179688 30.644531 L 28.550781 25.410156 C 28.550781 25.410156 28.566406 25.214844 28.574219 24.886719 C 28.449219 24.835938 28.515625 24.523438 28.542969 24.296875 C 28.566406 24.117188 28.535156 24.023438 28.550781 23.984375 C 28.5 23.148438 29.335938 21.601562 29.335938 21.601562 C 29.335938 21.601562 28.558594 23.027344 27.828125 23.363281 C 27.09375 23.699219 25.304688 24.105469 23.839844 23.746094 C 22.375 23.386719 22.027344 22.058594 21.914062 21.960938 C 21.914062 21.960938 22.535156 24.558594 23.003906 26.007812 Z M 28.589844 32.109375 C 28.3125 32.570312 27.546875 33.601562 27.269531 33.691406 C 26.996094 33.78125 26.738281 34.445312 26.738281 34.707031 C 26.738281 34.96875 26.828125 35.648438 26.828125 35.699219 C 26.828125 35.753906 27.265625 35.851562 27.9375 35.609375 C 28.609375 35.371094 29.765625 33.839844 29.765625 33.839844 L 28.980469 30.855469 C 28.988281 30.863281 28.863281 31.652344 28.589844 32.109375 Z M 31.695312 26.851562 L 34.832031 27.210938 L 35.785156 35.597656 L 36.539062 35.484375 L 35.253906 25.34375 L 35.476562 17.855469 L 33.675781 18.554688 C 33.675781 18.554688 33.75 20.140625 33.90625 20.542969 C 34.0625 20.945312 34.304688 21.847656 34.351562 22.363281 C 34.394531 22.878906 33.90625 25.082031 33.90625 25.082031 L 33.515625 26.128906 L 32.027344 25.984375 Z M 30.941406 35.769531 L 31.199219 27.570312 L 30.230469 29.347656 C 30.230469 29.347656 29.917969 35.574219 29.875 35.589844 Z M 16.308594 26.890625 C 16.308594 26.890625 15.449219 28.71875 15.398438 28.988281 C 15.355469 29.257812 15.398438 30.644531 15.398438 30.644531 L 15.375 32.050781 L 14.875 32.175781 L 14.875 36.148438 L 16.300781 36.148438 L 16.300781 26.890625 Z M 16.308594 26.890625 " fill-opacity="1" fill-rule="nonzero"/></g><g clip-path="url(#id2)"><path fill="rgb(81.568909%, 55.688477%, 25.878906%)" d="M 4.488281 19.136719 C 4.488281 18.472656 4.910156 18.527344 4.910156 18.527344 C 4.910156 18.527344 5.09375 18.601562 5.367188 18.765625 C 5.640625 18.9375 6.308594 18.511719 6.566406 18.765625 C 6.824219 19.019531 7.492188 18.898438 8 18.953125 C 8.511719 19.003906 8.667969 18.824219 8.894531 18.570312 C 9.125 18.324219 9.097656 17.839844 9.097656 17.839844 L 10.464844 18.039062 L 10.21875 18.757812 C 10.21875 18.757812 10.703125 19.21875 11.492188 19.28125 C 12.277344 19.339844 12.320312 19.128906 12.320312 19.128906 L 12.566406 18.617188 C 13.976562 19.101562 13.875 19.996094 13.875 19.996094 C 13.875 19.996094 13.675781 20.648438 12.683594 20.976562 C 11.691406 21.304688 9.960938 21.503906 7.136719 20.855469 C 4.308594 20.207031 4.488281 19.136719 4.488281 19.136719 Z M 28.988281 2.597656 C 29.933594 2.777344 30.5625 3.34375 30.726562 3.578125 C 30.882812 3.808594 31.074219 4.234375 31.074219 4.234375 C 31.074219 4.234375 31.183594 2.90625 31.296875 2.695312 C 31.40625 2.488281 31.449219 2.023438 31.449219 2.023438 C 31.449219 2.023438 31.15625 1.613281 30.527344 1.269531 C 29.898438 0.925781 28.957031 0.695312 28.957031 0.695312 C 28.957031 0.695312 28.003906 1.074219 27.839844 1.402344 C 27.6875 1.730469 27.492188 2.746094 27.492188 2.746094 C 27.492188 2.746094 28.039062 2.417969 28.988281 2.597656 Z M 36.066406 15.785156 C 35.917969 14.910156 34.785156 10.945312 34.476562 10.148438 C 34.164062 9.347656 32.9375 8.207031 32.6875 8.070312 C 32.433594 7.9375 31.363281 7.46875 31.363281 7.46875 C 31.363281 7.46875 30.480469 8.304688 29.824219 8.839844 C 29.15625 9.378906 28.542969 9.492188 28.542969 9.492188 C 28.425781 9.273438 27.765625 8.535156 27.582031 8.355469 C 27.398438 8.175781 27.203125 7.691406 27.160156 7.496094 C 27.160156 7.496094 26.398438 7.535156 25.546875 7.847656 C 24.695312 8.152344 24.046875 10.058594 23.847656 10.445312 C 23.648438 10.835938 22.324219 13.582031 22.027344 14.359375 C 21.738281 15.136719 22.078125 16.078125 22.121094 16.152344 C 22.136719 16.1875 22.824219 15.644531 23.328125 15.710938 C 23.832031 15.777344 24.261719 15.875 24.296875 15.832031 C 24.335938 15.792969 24.683594 15.039062 24.652344 14.785156 C 24.625 14.53125 24.554688 13.246094 24.75 12.925781 C 24.75 12.925781 24.964844 14.628906 25 15.285156 C 25.039062 15.941406 25.164062 16.449219 25.164062 16.449219 C 25.3125 16.515625 26.035156 16.742188 26.035156 16.742188 L 26.554688 17.054688 C 26.441406 16.847656 26.871094 16.734375 26.871094 16.734375 C 26.714844 16.433594 26.960938 16.234375 27.152344 16.195312 C 27.34375 16.160156 28.3125 16.554688 28.3125 16.554688 C 28.3125 16.554688 28.410156 16.160156 28.660156 16.167969 C 28.90625 16.175781 29.496094 16.847656 29.496094 16.847656 C 29.496094 16.847656 30.046875 16.898438 30.1875 16.859375 C 30.378906 16.808594 31.109375 16.359375 31.5625 16.324219 C 32.011719 16.285156 32.789062 15.636719 32.789062 15.636719 C 32.789062 15.636719 32.65625 14.597656 32.472656 14.164062 C 32.285156 13.730469 32.125 12.640625 32.003906 11.738281 C 31.886719 10.835938 32.207031 10.164062 32.207031 10.164062 C 31.976562 11 32.488281 13.695312 32.6875 14.074219 C 32.886719 14.457031 32.96875 15.597656 32.96875 15.597656 L 33.582031 15.234375 C 33.382812 15.667969 32.914062 16.054688 32.257812 16.257812 C 31.589844 16.457031 30.828125 16.839844 30.828125 16.839844 C 30.828125 16.839844 31.015625 17.273438 31.175781 17.511719 C 31.339844 17.75 31.339844 18.75 31.339844 18.75 C 31.339844 18.75 31.421875 18.765625 32.488281 18.601562 C 33.550781 18.4375 35.371094 17.75 35.949219 17.398438 C 36.53125 17.039062 36.214844 16.652344 36.066406 15.785156 Z M 27.226562 18.429688 C 25.25 18.117188 23.402344 18.808594 22.796875 19.804688 C 22.457031 20.363281 22.128906 21.222656 22.1875 21.894531 C 22.1875 21.894531 22.492188 23.082031 23.996094 23.46875 C 25.496094 23.859375 27.515625 23.3125 28.328125 22.550781 C 29.144531 21.789062 29.21875 20.632812 29.21875 20.632812 C 29.21875 20.632812 29.210938 18.742188 27.226562 18.429688 Z M 31.375 18.980469 C 31.050781 18.921875 30.941406 18.90625 30.941406 18.90625 C 30.941406 18.90625 30.289062 19.042969 29.949219 19.0625 C 29.609375 19.085938 28.847656 18.863281 28.882812 18.90625 C 29.21875 19.355469 29.496094 20.324219 29.496094 20.324219 C 29.496094 20.324219 31.089844 20.214844 31.71875 20.25 C 32.347656 20.289062 33.523438 20.558594 33.523438 20.558594 L 33.390625 18.90625 C 33.394531 18.90625 31.703125 19.042969 31.375 18.980469 Z M 28.566406 24.359375 C 28.574219 24.558594 28.574219 24.738281 28.574219 24.886719 C 28.402344 25.082031 28.226562 25.269531 28.054688 25.464844 C 28.144531 25.558594 28.242188 25.65625 28.328125 25.753906 L 28.167969 26.007812 C 28.070312 25.902344 27.964844 25.792969 27.871094 25.6875 C 27.648438 25.964844 27.441406 26.261719 27.226562 26.546875 C 27.210938 26.5625 27.199219 26.582031 27.191406 26.597656 C 27.316406 26.71875 27.441406 26.828125 27.558594 26.949219 L 27.382812 27.21875 C 27.257812 27.089844 27.128906 26.957031 27.011719 26.828125 C 26.769531 27.15625 26.507812 27.480469 26.257812 27.800781 C 26.273438 27.816406 26.289062 27.835938 26.300781 27.859375 C 26.429688 28.007812 26.5625 28.152344 26.695312 28.300781 L 26.621094 28.421875 C 26.53125 28.335938 26.449219 28.253906 26.367188 28.167969 C 26.296875 28.089844 26.226562 28.007812 26.15625 27.933594 C 26.109375 27.996094 26.058594 28.054688 26.015625 28.113281 C 25.835938 28.335938 25.660156 28.554688 25.480469 28.769531 C 25.5625 28.859375 25.644531 28.949219 25.726562 29.039062 C 25.917969 29.011719 26.117188 28.964844 26.308594 28.90625 L 26.074219 29.269531 L 24.949219 29.359375 L 24.917969 29.203125 C 24.917969 29.203125 24.875 29.152344 24.800781 29.070312 C 24.867188 28.996094 24.933594 28.914062 25 28.839844 C 24.800781 28.589844 24.59375 28.335938 24.394531 28.089844 C 24.335938 28.167969 24.277344 28.242188 24.207031 28.316406 C 24.140625 28.21875 24.066406 28.121094 24 28.023438 C 24.046875 27.941406 24.089844 27.859375 24.136719 27.777344 C 23.855469 27.433594 23.574219 27.082031 23.292969 26.738281 C 23.285156 26.746094 23.277344 26.753906 23.269531 26.761719 C 23.253906 26.726562 23.238281 26.6875 23.226562 26.648438 C 23.210938 26.605469 23.1875 26.566406 23.171875 26.53125 C 23.160156 26.492188 23.144531 26.464844 23.136719 26.425781 C 23.128906 26.394531 23.113281 26.375 23.105469 26.34375 C 23.105469 26.335938 23.097656 26.320312 23.097656 26.3125 C 23.070312 26.222656 23.039062 26.136719 23.011719 26.039062 C 23.03125 26.058594 23.054688 26.082031 23.078125 26.105469 C 23.105469 26.140625 23.144531 26.179688 23.171875 26.21875 C 23.335938 26 23.484375 25.785156 23.640625 25.566406 C 23.726562 25.449219 23.816406 25.335938 23.90625 25.214844 C 23.726562 24.976562 23.542969 24.738281 23.367188 24.5 C 23.351562 24.476562 23.300781 24.410156 23.238281 24.3125 C 23.0625 24.535156 22.890625 24.769531 22.683594 24.960938 C 22.664062 24.878906 22.640625 24.804688 22.617188 24.722656 C 22.796875 24.535156 22.953125 24.328125 23.113281 24.117188 C 22.796875 23.640625 22.285156 22.835938 22.144531 22.425781 C 22.316406 22.738281 22.609375 23.164062 23.097656 23.460938 C 23.179688 23.582031 23.253906 23.699219 23.335938 23.820312 C 23.378906 23.761719 23.425781 23.707031 23.46875 23.648438 C 23.542969 23.679688 23.625 23.707031 23.714844 23.730469 C 23.632812 23.828125 23.550781 23.925781 23.46875 24.023438 C 23.683594 24.351562 23.898438 24.671875 24.097656 24.976562 C 24.261719 24.785156 24.421875 24.597656 24.585938 24.410156 C 24.636719 24.351562 24.691406 24.296875 24.734375 24.238281 C 24.628906 24.117188 24.535156 24 24.429688 23.871094 C 24.527344 23.878906 24.617188 23.886719 24.710938 23.894531 C 24.765625 23.953125 24.816406 24.015625 24.859375 24.082031 C 24.910156 24.023438 24.964844 23.960938 25.015625 23.902344 C 25.199219 23.902344 25.386719 23.894531 25.570312 23.886719 C 25.445312 24.042969 25.3125 24.207031 25.183594 24.367188 C 25.164062 24.386719 25.148438 24.410156 25.125 24.441406 C 25.355469 24.753906 25.605469 25.042969 25.867188 25.328125 C 26.082031 24.96875 26.296875 24.613281 26.515625 24.261719 C 26.382812 24.117188 26.25 23.976562 26.117188 23.835938 C 26.214844 23.820312 26.316406 23.804688 26.414062 23.789062 C 26.496094 23.878906 26.574219 23.960938 26.65625 24.050781 C 26.738281 23.925781 26.828125 23.804688 26.917969 23.6875 C 27.117188 23.632812 27.300781 23.582031 27.457031 23.527344 C 27.34375 23.691406 27.234375 23.851562 27.125 24.015625 C 27.050781 24.117188 26.984375 24.214844 26.910156 24.320312 C 27.210938 24.640625 27.515625 24.957031 27.820312 25.277344 C 27.878906 25.195312 27.945312 25.121094 28.003906 25.039062 C 28.175781 24.8125 28.34375 24.589844 28.507812 24.359375 C 28.21875 24.058594 27.921875 23.761719 27.613281 23.476562 C 27.679688 23.453125 27.738281 23.425781 27.796875 23.402344 C 27.804688 23.394531 27.8125 23.394531 27.824219 23.386719 C 28.0625 23.605469 28.292969 23.820312 28.527344 24.035156 C 28.535156 24.132812 28.535156 24.222656 28.542969 24.304688 C 28.542969 24.328125 28.542969 24.351562 28.542969 24.367188 C 28.566406 24.34375 28.566406 24.351562 28.566406 24.359375 Z M 24.378906 25.378906 C 24.542969 25.628906 24.695312 25.84375 24.824219 26.007812 C 24.925781 26.140625 25.039062 26.285156 25.140625 26.417969 C 25.378906 26.113281 25.585938 25.792969 25.785156 25.457031 C 25.527344 25.15625 25.273438 24.859375 25.023438 24.558594 C 24.808594 24.828125 24.59375 25.105469 24.378906 25.378906 Z M 24.933594 26.671875 C 24.957031 26.644531 24.984375 26.613281 25.007812 26.582031 C 24.777344 26.308594 24.554688 26.03125 24.335938 25.746094 C 24.296875 25.695312 24.253906 25.640625 24.214844 25.589844 C 24.1875 25.628906 24.15625 25.664062 24.128906 25.703125 C 23.921875 25.976562 23.707031 26.261719 23.476562 26.523438 C 23.75 26.828125 24.03125 27.136719 24.304688 27.449219 C 24.304688 27.441406 24.3125 27.433594 24.3125 27.433594 C 24.488281 27.15625 24.71875 26.917969 24.933594 26.671875 Z M 25.207031 29.078125 C 25.207031 29.078125 25.199219 29.078125 25.207031 29.078125 Z M 25.902344 27.636719 C 25.679688 27.382812 25.460938 27.121094 25.238281 26.859375 C 25.039062 27.171875 24.832031 27.488281 24.609375 27.792969 C 24.824219 28.03125 25.039062 28.261719 25.246094 28.503906 C 25.339844 28.367188 25.445312 28.234375 25.539062 28.097656 C 25.660156 27.941406 25.777344 27.785156 25.902344 27.636719 Z M 26.769531 26.5625 C 26.503906 26.269531 26.242188 25.976562 25.984375 25.6875 C 25.886719 25.835938 25.792969 25.976562 25.695312 26.128906 C 25.578125 26.3125 25.460938 26.5 25.347656 26.679688 C 25.5625 26.957031 25.785156 27.226562 26.007812 27.492188 C 26.257812 27.179688 26.507812 26.875 26.769531 26.5625 Z M 27.671875 25.464844 C 27.375 25.140625 27.078125 24.820312 26.78125 24.507812 C 26.546875 24.851562 26.316406 25.1875 26.085938 25.53125 C 26.363281 25.8125 26.648438 26.089844 26.9375 26.359375 C 27.183594 26.058594 27.425781 25.761719 27.671875 25.464844 Z M 13.832031 21.945312 C 13.941406 21.878906 14.050781 21.820312 14.15625 21.757812 C 14.050781 22.058594 13.875 22.519531 13.675781 23.058594 C 13.652344 23.074219 13.628906 23.089844 13.609375 23.101562 C 13.355469 23.273438 13.089844 23.433594 12.832031 23.589844 C 12.957031 23.820312 13.074219 24.050781 13.203125 24.28125 C 13.003906 24.796875 12.792969 25.304688 12.609375 25.753906 C 12.320312 25.976562 12.027344 26.195312 11.730469 26.410156 C 11.820312 26.628906 11.90625 26.851562 12.003906 27.0625 C 11.980469 27.097656 11.957031 27.121094 11.945312 27.136719 C 11.886719 27.1875 11.820312 27.238281 11.746094 27.292969 C 11.640625 27.070312 11.539062 26.84375 11.433594 26.621094 C 11.011719 26.925781 10.582031 27.226562 10.152344 27.523438 C 10.214844 27.644531 10.273438 27.761719 10.332031 27.890625 C 10.664062 27.851562 10.894531 27.828125 10.894531 27.828125 L 10.847656 28.308594 C 10.847656 28.308594 7.320312 29.09375 5.589844 27.84375 L 5.707031 27.179688 C 5.707031 27.179688 4.960938 26.402344 4.761719 25.53125 C 4.722656 25.359375 4.671875 25.039062 4.613281 24.625 C 4.695312 24.753906 4.769531 24.878906 4.851562 25.007812 C 5.21875 24.730469 5.597656 24.476562 5.980469 24.214844 C 5.847656 23.886719 5.714844 23.558594 5.589844 23.230469 C 5.484375 22.96875 5.390625 22.707031 5.285156 22.4375 C 5 22.683594 4.722656 22.953125 4.441406 23.199219 C 4.421875 23.027344 4.40625 22.855469 4.382812 22.675781 C 4.636719 22.46875 4.886719 22.265625 5.144531 22.058594 C 4.796875 21.117188 4.464844 20.160156 4.15625 19.207031 C 4.207031 19.152344 4.257812 19.136719 4.257812 19.136719 C 4.257812 19.136719 4.382812 19.796875 4.8125 20.25 C 5.019531 20.773438 5.226562 21.289062 5.441406 21.8125 C 5.789062 21.527344 6.144531 21.242188 6.492188 20.96875 C 6.730469 21.035156 6.980469 21.101562 7.253906 21.167969 C 7.1875 21.207031 7.121094 21.242188 7.054688 21.289062 C 7.3125 21.789062 7.574219 22.296875 7.824219 22.804688 C 8.28125 22.417969 8.734375 22.019531 9.199219 21.640625 C 9.183594 21.601562 9.171875 21.574219 9.15625 21.535156 C 9.554688 21.585938 9.953125 21.625 10.339844 21.640625 C 10.160156 21.78125 9.984375 21.921875 9.804688 22.066406 C 10.109375 22.664062 10.390625 23.269531 10.671875 23.878906 C 11.125 23.589844 11.582031 23.304688 12.039062 23.027344 C 11.824219 22.550781 11.605469 22.074219 11.390625 21.59375 C 11.507812 21.578125 11.617188 21.558594 11.730469 21.542969 C 11.765625 21.59375 11.796875 21.65625 11.832031 21.714844 C 12.027344 22.082031 12.226562 22.4375 12.417969 22.804688 C 12.757812 22.59375 13.097656 22.394531 13.4375 22.191406 C 13.246094 21.855469 13.046875 21.527344 12.847656 21.191406 C 13.023438 21.109375 13.179688 21.027344 13.320312 20.945312 C 13.371094 21.011719 13.417969 21.085938 13.453125 21.160156 C 13.585938 21.414062 13.710938 21.675781 13.832031 21.945312 Z M 8.132812 23.402344 C 8.28125 23.707031 8.4375 24.007812 8.585938 24.3125 C 8.703125 24.550781 8.824219 24.785156 8.933594 25.023438 C 9.378906 24.714844 9.828125 24.417969 10.28125 24.125 C 10.289062 24.117188 10.292969 24.117188 10.300781 24.113281 C 10.035156 23.515625 9.769531 22.910156 9.503906 22.3125 C 9.363281 22.425781 9.222656 22.535156 9.082031 22.648438 C 8.769531 22.902344 8.460938 23.15625 8.132812 23.402344 Z M 7.699219 23.730469 C 7.492188 23.878906 7.285156 24.027344 7.070312 24.171875 C 6.890625 24.289062 6.714844 24.402344 6.53125 24.515625 C 6.765625 25.105469 7.003906 25.695312 7.210938 26.300781 C 7.601562 26.015625 7.988281 25.710938 8.378906 25.417969 C 8.148438 24.859375 7.921875 24.289062 7.699219 23.730469 Z M 6.320312 23.976562 C 6.449219 23.894531 6.566406 23.804688 6.683594 23.714844 C 6.949219 23.523438 7.210938 23.320312 7.460938 23.109375 C 7.378906 22.894531 7.296875 22.675781 7.21875 22.46875 C 7.085938 22.117188 6.949219 21.773438 6.804688 21.429688 C 6.441406 21.632812 6.078125 21.832031 5.738281 22.082031 C 5.695312 22.117188 5.640625 22.148438 5.597656 22.183594 C 5.839844 22.78125 6.078125 23.378906 6.320312 23.976562 Z M 5.996094 27.082031 C 6.183594 26.980469 6.359375 26.875 6.535156 26.761719 C 6.664062 26.679688 6.78125 26.597656 6.90625 26.515625 C 6.675781 25.910156 6.441406 25.3125 6.203125 24.714844 C 5.832031 24.941406 5.457031 25.164062 5.09375 25.394531 C 5.398438 25.949219 5.695312 26.523438 5.996094 27.082031 Z M 6.25 27.40625 C 6.597656 27.5625 7.046875 27.753906 7.386719 27.890625 C 7.285156 27.570312 7.171875 27.246094 7.054688 26.925781 C 6.789062 27.097656 6.523438 27.253906 6.25 27.40625 Z M 8.535156 28.039062 C 8.792969 27.867188 9.066406 27.710938 9.332031 27.546875 C 9.082031 27.007812 8.835938 26.472656 8.601562 25.925781 C 8.1875 26.1875 7.78125 26.464844 7.363281 26.730469 C 7.503906 27.171875 7.640625 27.621094 7.824219 28.046875 C 7.925781 28.070312 8.195312 28.0625 8.535156 28.039062 Z M 9.53125 27.957031 C 9.53125 27.957031 9.53125 27.949219 9.523438 27.949219 C 9.519531 27.949219 9.519531 27.957031 9.511719 27.957031 C 9.519531 27.964844 9.523438 27.957031 9.53125 27.957031 Z M 11.234375 26.15625 C 11.027344 25.703125 10.820312 25.238281 10.613281 24.785156 C 10.140625 25.03125 9.664062 25.285156 9.207031 25.558594 C 9.464844 26.082031 9.726562 26.605469 9.984375 27.128906 C 10.398438 26.835938 10.796875 26.507812 11.191406 26.195312 C 11.195312 26.179688 11.21875 26.164062 11.234375 26.15625 Z M 12.410156 23.820312 C 11.945312 24.082031 11.472656 24.328125 10.988281 24.574219 C 11.183594 25.015625 11.367188 25.457031 11.542969 25.902344 C 11.988281 25.558594 12.433594 25.222656 12.882812 24.886719 C 12.726562 24.535156 12.566406 24.179688 12.410156 23.820312 Z M 12.410156 23.820312 " fill-opacity="1" fill-rule="nonzero"/></g><g clip-path="url(#id3)"><path fill="rgb(72.549438%, 27.449036%, 13.328552%)" d="M 12.957031 2.742188 C 12.921875 2.628906 12.632812 1.84375 11.542969 1.636719 C 10.449219 1.433594 9.761719 1.664062 9.371094 1.835938 C 8.976562 2.007812 8.0625 3.136719 8.0625 3.136719 C 8.0625 3.136719 7.792969 3.015625 7.667969 2.785156 C 7.535156 2.554688 7.566406 1.65625 7.566406 1.65625 C 7.566406 1.65625 8.082031 0.730469 9.191406 0.222656 C 9.6875 0 12.417969 0.0507812 12.417969 0.0507812 C 12.417969 0.0507812 13.039062 0.851562 13.164062 1.382812 C 13.289062 1.964844 12.957031 2.742188 12.957031 2.742188 Z M 14.007812 9.675781 C 14.058594 10.609375 13.941406 12.558594 13.941406 12.558594 C 13.941406 12.558594 14.066406 12.949219 14.066406 13.285156 C 14.066406 13.621094 13.925781 14.203125 13.925781 14.203125 C 13.925781 14.203125 14.222656 14.113281 14.554688 14.113281 C 14.886719 14.113281 15.050781 14.34375 15.050781 14.34375 C 15.050781 14.34375 16.109375 14.449219 16.308594 14.472656 C 16.507812 14.484375 17.351562 14.964844 17.789062 15.40625 C 18.222656 15.84375 18.609375 16.996094 18.609375 17.136719 C 18.609375 17.277344 18.851562 17.429688 18.851562 17.429688 C 18.851562 17.429688 18.890625 16.800781 18.992188 16.414062 C 19.097656 16.023438 19.046875 15.367188 19.046875 15.367188 C 19.046875 15.367188 19.273438 14.679688 19.253906 14.269531 C 19.230469 13.859375 18.710938 12.753906 18.535156 12.402344 C 18.359375 12.050781 18.046875 10.863281 17.816406 10.28125 C 17.589844 9.699219 16.242188 8.25 15.578125 7.601562 C 14.910156 6.953125 13.304688 6.585938 13.355469 6.617188 C 13.675781 6.796875 13.957031 8.738281 14.007812 9.675781 Z M 4.578125 8.191406 C 4 8.453125 4 9.25 3.742188 9.445312 C 3.480469 9.640625 2.269531 10.945312 1.972656 11.632812 C 1.675781 12.320312 1.484375 13.433594 1.410156 13.664062 C 1.34375 13.894531 1.09375 14.285156 0.898438 14.738281 C 0.707031 15.195312 0.8125 17.308594 0.8125 17.308594 C 0.8125 17.308594 0.617188 18.121094 0.8125 17.421875 C 1.003906 16.726562 2.578125 16.054688 3.257812 15.925781 C 3.941406 15.800781 4.324219 15.914062 4.324219 15.914062 C 4.324219 15.914062 4.503906 15.769531 4.480469 15.578125 C 4.464844 15.382812 4.300781 14.992188 4.324219 14.851562 C 4.339844 14.710938 4.449219 14.359375 4.449219 14.359375 L 4.730469 14.484375 C 4.730469 14.484375 4.886719 13.828125 4.886719 13.605469 C 4.886719 13.382812 5.027344 12.410156 5.027344 12.410156 C 5.152344 13.3125 4.886719 14.703125 4.886719 15.015625 C 4.886719 15.328125 4.886719 16.285156 4.886719 16.285156 L 5.847656 16.726562 C 5.847656 16.726562 5.515625 14.308594 5.484375 13.671875 C 5.449219 13.039062 5.773438 11.117188 5.847656 10.140625 C 5.972656 8.535156 6.742188 7.226562 6.742188 7.226562 C 6.742188 7.226562 5.152344 7.921875 4.578125 8.191406 Z M 16.003906 17.421875 C 15.96875 17.4375 15.332031 17.226562 14.777344 16.949219 C 14.214844 16.679688 14.058594 16.40625 13.941406 16.351562 C 13.816406 16.292969 13.304688 16.136719 13.304688 16.136719 L 12.667969 18.371094 C 12.667969 18.371094 13.261719 18.667969 13.363281 18.757812 C 13.363281 18.757812 14.40625 18.527344 15.050781 18.757812 C 15.695312 18.988281 16.828125 20.488281 16.828125 20.488281 C 16.828125 20.488281 17.113281 19.5625 17.09375 19.390625 C 17.070312 19.21875 16.640625 18.9375 16.464844 18.511719 C 16.285156 18.085938 16.003906 17.421875 16.003906 17.421875 Z M 8.453125 12.941406 C 8.46875 13.441406 8.925781 17.578125 8.925781 17.578125 L 10.65625 17.839844 C 10.65625 17.839844 11.269531 14.410156 11.332031 13.792969 C 11.390625 13.164062 11.75 9.730469 11.78125 9.183594 C 11.8125 8.640625 11.550781 8.101562 11.550781 8.101562 C 11.550781 8.101562 10.664062 8.207031 10.496094 8.25 C 10.332031 8.296875 10.117188 10.171875 10.117188 10.171875 C 10.117188 10.171875 9.621094 8.558594 9.546875 8.46875 C 9.472656 8.378906 8.617188 8.042969 8.617188 8.042969 C 8.617188 8.042969 8.4375 12.441406 8.453125 12.941406 Z M 8.453125 12.941406 " fill-opacity="1" fill-rule="nonzero"/><path fill="rgb(72.549438%, 27.449036%, 13.328552%)" d="M 12.957031 2.742188 C 12.921875 2.628906 12.632812 1.84375 11.542969 1.636719 C 10.449219 1.433594 9.761719 1.664062 9.371094 1.835938 C 8.976562 2.007812 8.0625 3.136719 8.0625 3.136719 C 8.0625 3.136719 7.792969 3.015625 7.667969 2.785156 C 7.535156 2.554688 7.566406 1.65625 7.566406 1.65625 C 7.566406 1.65625 8.082031 0.730469 9.191406 0.222656 C 9.6875 0 12.417969 0.0507812 12.417969 0.0507812 C 12.417969 0.0507812 13.039062 0.851562 13.164062 1.382812 C 13.289062 1.964844 12.957031 2.742188 12.957031 2.742188 Z M 14.007812 9.675781 C 14.058594 10.609375 13.941406 12.558594 13.941406 12.558594 C 13.941406 12.558594 14.066406 12.949219 14.066406 13.285156 C 14.066406 13.621094 13.925781 14.203125 13.925781 14.203125 C 13.925781 14.203125 14.222656 14.113281 14.554688 14.113281 C 14.886719 14.113281 15.050781 14.34375 15.050781 14.34375 C 15.050781 14.34375 16.109375 14.449219 16.308594 14.472656 C 16.507812 14.484375 17.351562 14.964844 17.789062 15.40625 C 18.222656 15.84375 18.609375 16.996094 18.609375 17.136719 C 18.609375 17.277344 18.851562 17.429688 18.851562 17.429688 C 18.851562 17.429688 18.890625 16.800781 18.992188 16.414062 C 19.097656 16.023438 19.046875 15.367188 19.046875 15.367188 C 19.046875 15.367188 19.273438 14.679688 19.253906 14.269531 C 19.230469 13.859375 18.710938 12.753906 18.535156 12.402344 C 18.359375 12.050781 18.046875 10.863281 17.816406 10.28125 C 17.589844 9.699219 16.242188 8.25 15.578125 7.601562 C 14.910156 6.953125 13.304688 6.585938 13.355469 6.617188 C 13.675781 6.796875 13.957031 8.738281 14.007812 9.675781 Z M 4.578125 8.191406 C 4 8.453125 4 9.25 3.742188 9.445312 C 3.480469 9.640625 2.269531 10.945312 1.972656 11.632812 C 1.675781 12.320312 1.484375 13.433594 1.410156 13.664062 C 1.34375 13.894531 1.09375 14.285156 0.898438 14.738281 C 0.707031 15.195312 0.8125 17.308594 0.8125 17.308594 C 0.8125 17.308594 0.617188 18.121094 0.8125 17.421875 C 1.003906 16.726562 2.578125 16.054688 3.257812 15.925781 C 3.941406 15.800781 4.324219 15.914062 4.324219 15.914062 C 4.324219 15.914062 4.503906 15.769531 4.480469 15.578125 C 4.464844 15.382812 4.300781 14.992188 4.324219 14.851562 C 4.339844 14.710938 4.449219 14.359375 4.449219 14.359375 L 4.730469 14.484375 C 4.730469 14.484375 4.886719 13.828125 4.886719 13.605469 C 4.886719 13.382812 5.027344 12.410156 5.027344 12.410156 C 5.152344 13.3125 4.886719 14.703125 4.886719 15.015625 C 4.886719 15.328125 4.886719 16.285156 4.886719 16.285156 L 5.847656 16.726562 C 5.847656 16.726562 5.515625 14.308594 5.484375 13.671875 C 5.449219 13.039062 5.773438 11.117188 5.847656 10.140625 C 5.972656 8.535156 6.742188 7.226562 6.742188 7.226562 C 6.742188 7.226562 5.152344 7.921875 4.578125 8.191406 Z M 16.003906 17.421875 C 15.96875 17.4375 15.332031 17.226562 14.777344 16.949219 C 14.214844 16.679688 14.058594 16.40625 13.941406 16.351562 C 13.816406 16.292969 13.304688 16.136719 13.304688 16.136719 L 12.667969 18.371094 C 12.667969 18.371094 13.261719 18.667969 13.363281 18.757812 C 13.363281 18.757812 14.40625 18.527344 15.050781 18.757812 C 15.695312 18.988281 16.828125 20.488281 16.828125 20.488281 C 16.828125 20.488281 17.113281 19.5625 17.09375 19.390625 C 17.070312 19.21875 16.640625 18.9375 16.464844 18.511719 C 16.285156 18.085938 16.003906 17.421875 16.003906 17.421875 Z M 8.453125 12.941406 C 8.46875 13.441406 8.925781 17.578125 8.925781 17.578125 L 10.65625 17.839844 C 10.65625 17.839844 11.269531 14.410156 11.332031 13.792969 C 11.390625 13.164062 11.75 9.730469 11.78125 9.183594 C 11.8125 8.640625 11.550781 8.101562 11.550781 8.101562 C 11.550781 8.101562 10.664062 8.207031 10.496094 8.25 C 10.332031 8.296875 10.117188 10.171875 10.117188 10.171875 C 10.117188 10.171875 9.621094 8.558594 9.546875 8.46875 C 9.472656 8.378906 8.617188 8.042969 8.617188 8.042969 C 8.617188 8.042969 8.4375 12.441406 8.453125 12.941406 Z M 8.453125 12.941406 " fill-opacity="1" fill-rule="nonzero"/></g><g clip-path="url(#id4)"><path fill="rgb(12.159729%, 17.248535%, 19.999695%)" d="M 12.839844 6.199219 C 12.964844 6.40625 13.015625 8.386719 13.015625 8.386719 C 13.015625 8.386719 13.097656 8.003906 13.15625 7.691406 C 13.214844 7.378906 13.015625 6.496094 13.015625 6.496094 C 13.015625 6.496094 13.238281 6.734375 13.410156 7.101562 C 13.578125 7.46875 13.882812 9.820312 13.742188 12.261719 C 13.601562 14.703125 12.179688 18.953125 12.179688 18.953125 C 11.550781 19.496094 10.65625 18.675781 10.65625 18.675781 C 10.65625 18.675781 11.078125 17.011719 11.398438 15.449219 C 11.714844 13.882812 11.855469 10.082031 11.855469 9.320312 C 11.855469 8.558594 11.898438 7.96875 11.953125 7.667969 C 12.003906 7.371094 11.996094 7.050781 12.019531 6.699219 C 12.046875 6.347656 12.367188 5.710938 12.378906 5.667969 C 12.386719 5.660156 12.707031 5.988281 12.839844 6.199219 Z M 7.890625 6.210938 C 7.890625 6.210938 7.652344 6.707031 7.542969 6.960938 C 7.433594 7.214844 6.980469 8.914062 6.980469 8.914062 C 6.980469 8.914062 7.011719 8.648438 7.089844 8.058594 C 7.171875 7.46875 7.484375 6.734375 7.484375 6.734375 C 7.484375 6.734375 6.964844 7.308594 6.796875 7.5625 C 6.625 7.816406 6.152344 9.410156 6.011719 10.117188 C 5.871094 10.820312 5.820312 13.21875 5.855469 13.800781 C 5.902344 14.375 6.109375 17.136719 6.21875 17.382812 C 6.328125 17.621094 6.78125 17.847656 6.78125 17.847656 C 6.78125 17.847656 6.714844 17.449219 6.558594 16.464844 C 6.402344 15.480469 6.601562 14.082031 6.601562 14.082031 C 6.601562 14.082031 6.664062 15.144531 6.699219 16.085938 C 6.742188 17.023438 7.230469 18.414062 7.230469 18.414062 C 7.691406 18.683594 8.683594 18.414062 8.742188 18.414062 C 8.800781 18.414062 8.519531 16.972656 8.445312 16.382812 C 8.371094 15.792969 8.289062 13.015625 8.164062 12.097656 C 8.039062 11.179688 8.402344 9.066406 8.429688 8.542969 C 8.460938 8.019531 8.445312 6.953125 8.347656 6.683594 C 8.253906 6.414062 8.164062 5.800781 8.164062 5.800781 Z M 13.867188 19.078125 C 13.867188 19.078125 14.546875 19.9375 14.5625 20.90625 C 14.578125 21.878906 13.867188 23.050781 13.628906 23.796875 C 13.394531 24.542969 12.476562 26.902344 12.402344 27.328125 C 12.320312 27.753906 11.878906 29.339844 11.855469 29.667969 C 11.832031 29.996094 11.871094 30.773438 11.871094 30.773438 C 11.871094 30.773438 12.246094 31.28125 12.914062 31.617188 C 13.570312 31.953125 14.601562 32.070312 15.027344 31.808594 C 15.027344 31.808594 15.089844 29.160156 15.230469 28.636719 C 15.375 28.113281 16.085938 27.1875 16.425781 26.007812 C 16.761719 24.820312 17.234375 22.371094 17.1875 22.035156 C 17.144531 21.699219 16.796875 20.585938 16.070312 19.914062 C 15.347656 19.242188 14.859375 18.964844 14.527344 18.882812 C 14.183594 18.800781 13.867188 19.078125 13.867188 19.078125 Z M 11.773438 32.839844 C 11.773438 32.839844 11.683594 33.722656 11.773438 34.148438 C 11.863281 34.574219 12.054688 35.320312 12.054688 35.320312 C 12.054688 35.320312 11.441406 36.28125 11.425781 36.707031 C 11.425781 36.707031 11.515625 37.125 12.410156 37.3125 C 13.304688 37.5 13.910156 37.207031 14.179688 36.992188 C 14.445312 36.777344 14.289062 35.960938 14.289062 35.960938 C 14.289062 35.960938 13.992188 35.140625 13.757812 34.839844 C 13.519531 34.550781 13.34375 34.230469 13.304688 33.855469 C 13.269531 33.484375 13.238281 33.101562 13.238281 33.101562 C 13.238281 33.101562 12.863281 32.863281 12.46875 32.878906 C 12.09375 32.898438 11.773438 32.839844 11.773438 32.839844 Z M 3.621094 18.046875 C 3.621094 18.046875 2.113281 18.890625 1.722656 19.4375 C 1.328125 19.980469 1.101562 22.9375 1.179688 24.664062 C 1.261719 26.382812 1.609375 29.324219 1.609375 29.324219 L 1.460938 30.847656 C 1.460938 30.847656 2.808594 31.109375 3.199219 31.144531 C 3.59375 31.183594 4.117188 30.914062 4.117188 30.914062 C 4.117188 30.914062 4.089844 28.980469 4.117188 28.800781 C 4.148438 28.621094 4.65625 27.03125 4.722656 26.515625 C 4.789062 26 4.363281 24.992188 4.28125 24.53125 C 4.199219 24.066406 3.953125 21.804688 3.886719 20.988281 C 3.820312 20.175781 3.808594 19.21875 3.886719 19.136719 C 3.96875 19.054688 4.308594 18.78125 4.308594 18.78125 L 4.488281 18.316406 Z M 4.125 32.378906 C 4.125 32.378906 3.851562 32.117188 3.164062 32.199219 C 2.476562 32.28125 2.246094 32.847656 2.246094 32.847656 C 2.246094 32.847656 1.929688 32.765625 1.929688 32.894531 C 1.929688 33.019531 1.574219 34.273438 1.542969 34.566406 C 1.515625 34.855469 1.253906 35.863281 1.351562 36.214844 C 1.351562 36.214844 1.816406 36.78125 2.394531 36.796875 C 2.972656 36.8125 3.867188 36.714844 4 36.589844 C 4.140625 36.460938 4.503906 35.527344 4.503906 35.527344 C 4.503906 35.527344 4.257812 34.332031 4.125 33.902344 C 3.984375 33.46875 4.125 32.378906 4.125 32.378906 Z M 33.53125 20.863281 C 33.53125 20.863281 31.429688 20.460938 30.769531 20.558594 C 30.113281 20.652344 29.511719 21.601562 29.222656 22.507812 C 28.9375 23.410156 28.882812 25.367188 28.882812 25.367188 C 28.882812 25.367188 25.792969 30.457031 25.414062 30.957031 C 25.414062 30.957031 26.191406 31.554688 26.449219 31.914062 C 26.710938 32.273438 27.441406 33.25 27.441406 33.25 C 27.441406 33.25 29.304688 29.941406 29.800781 29.324219 C 30.296875 28.703125 31.785156 26.136719 31.96875 25.632812 C 32.160156 25.132812 32.347656 24.1875 32.347656 24.1875 C 32.347656 24.1875 32.25 25.492188 32.132812 25.753906 C 32.132812 25.753906 32.980469 25.828125 33.242188 25.777344 C 33.507812 25.722656 34.445312 22.4375 33.53125 20.863281 Z M 20.015625 22.460938 C 19.96875 23.320312 21.6875 33.414062 21.914062 33.363281 C 22.144531 33.320312 24.777344 31.980469 24.777344 31.980469 C 24.777344 31.980469 24.304688 29.242188 24.171875 29.078125 C 24.039062 28.914062 23.246094 27.480469 22.957031 26.671875 C 22.675781 25.867188 21.78125 22.386719 21.707031 21.984375 C 21.632812 21.578125 22.292969 20.316406 22.183594 20.339844 C 20.480469 20.675781 20.058594 21.601562 20.015625 22.460938 Z M 25.414062 31.542969 C 25.414062 31.542969 24.792969 32.550781 24.496094 33.363281 C 24.207031 34.175781 24.105469 35.484375 24.171875 35.699219 C 24.238281 35.917969 25.613281 36.632812 26.300781 36.289062 C 26.523438 36.179688 26.503906 35.460938 26.429688 35.148438 C 26.355469 34.835938 25.769531 33.960938 25.769531 33.960938 C 25.769531 33.960938 26.207031 34.246094 26.355469 34.542969 L 27.050781 33.070312 C 27.050781 33.070312 26.613281 32.191406 26.375 32.019531 C 26.140625 31.855469 25.414062 31.542969 25.414062 31.542969 Z M 22.183594 33.488281 C 22.183594 33.488281 21.8125 34.167969 21.523438 34.332031 C 21.234375 34.5 20.738281 34.535156 20.414062 35.011719 C 20.289062 35.199219 20.703125 35.453125 21.011719 35.476562 C 21.324219 35.492188 23.039062 35.402344 23.386719 35.328125 C 23.734375 35.253906 23.898438 34.699219 23.898438 34.699219 C 23.898438 34.699219 24.261719 32.75 24.484375 32.503906 Z M 22.183594 33.488281 " fill-opacity="1" fill-rule="nonzero"/></g><path fill="rgb(53.329468%, 29.019165%, 23.139954%)" d="M 28.640625 16.695312 C 28.640625 16.695312 28.484375 16.546875 28.574219 16.390625 C 28.667969 16.234375 29.21875 16.839844 29.21875 16.839844 Z M 9.332031 2.128906 C 8.585938 2.449219 8.28125 3.351562 8.28125 3.351562 C 8.28125 3.351562 8.054688 3.316406 7.90625 3.441406 C 7.765625 3.570312 7.800781 4.03125 7.90625 4.449219 C 8.007812 4.859375 8.421875 5.039062 8.421875 5.039062 C 8.421875 5.257812 8.511719 6.207031 8.675781 6.535156 C 8.835938 6.855469 8.777344 7.824219 8.777344 7.824219 C 8.777344 7.824219 9.5625 8.042969 9.828125 8.222656 C 10.09375 8.402344 10.234375 9.820312 10.234375 9.820312 L 10.359375 7.988281 C 10.539062 7.886719 11.730469 7.953125 11.890625 7.847656 C 12.054688 7.742188 11.980469 7.003906 11.980469 7.003906 C 11.980469 7.003906 10.828125 7.542969 10.398438 7.5625 C 9.96875 7.578125 8.96875 6.453125 8.96875 6.453125 C 9.257812 6.832031 10.199219 7.511719 10.945312 7.296875 C 11.691406 7.078125 12.085938 6.25 12.226562 5.929688 C 12.367188 5.609375 12.691406 4.488281 12.78125 4.292969 C 12.867188 4.097656 13.070312 3.078125 12.941406 2.835938 C 12.105469 1.269531 10.078125 1.808594 9.332031 2.128906 Z M 17.863281 15.710938 C 18.453125 16.332031 18.542969 17.175781 18.542969 17.175781 C 18.542969 17.175781 16.582031 17.355469 15.796875 17.070312 C 15.015625 16.785156 14.3125 16.007812 14.3125 16.007812 C 14.3125 16.007812 14.414062 15.546875 14.519531 15.441406 C 14.621094 15.335938 14.660156 15.105469 14.660156 15.105469 C 14.660156 15.105469 14.429688 15.351562 14.324219 15.441406 C 14.222656 15.53125 14.097656 16.023438 13.917969 16.007812 C 13.742188 15.996094 12.996094 15.515625 12.484375 15.128906 C 11.972656 14.738281 11.957031 14.121094 11.871094 13.640625 C 11.78125 13.164062 11.863281 12.386719 11.996094 12.394531 C 12.121094 12.402344 12.121094 12.886719 12.152344 13.277344 C 12.1875 13.664062 12.359375 13.859375 12.359375 13.859375 C 12.359375 13.859375 12.292969 13.382812 12.359375 13.007812 C 12.425781 12.632812 12.648438 12.15625 12.855469 12.246094 C 13.0625 12.335938 12.980469 12.648438 12.980469 13.253906 C 12.980469 13.851562 13.238281 14.226562 13.238281 14.226562 C 13.238281 14.226562 13.203125 13.5 13.238281 13.269531 C 13.277344 13.039062 13.660156 12.542969 13.84375 12.738281 C 14.03125 12.933594 13.710938 13.640625 13.765625 13.992188 C 13.816406 14.34375 13.917969 14.652344 13.917969 14.652344 C 13.917969 14.652344 14.535156 14.328125 14.726562 14.328125 C 14.917969 14.328125 14.953125 14.574219 15.007812 14.574219 C 15.058594 14.574219 16.597656 14.734375 16.597656 14.734375 C 16.597656 14.734375 17.269531 15.097656 17.863281 15.710938 Z M 4.300781 16.085938 C 4.300781 16.085938 5.351562 16.703125 5.914062 16.824219 C 6.476562 16.941406 7.644531 17.054688 7.992188 17.234375 C 8.339844 17.40625 8.902344 17.988281 9.007812 18.21875 C 9.109375 18.453125 8.902344 18.578125 8.726562 18.527344 C 8.726562 18.527344 8.546875 18.191406 8.148438 17.855469 C 7.75 17.519531 7.203125 17.234375 7.203125 17.234375 C 7.203125 17.234375 7.851562 17.777344 8.074219 18.011719 C 8.304688 18.242188 8.601562 18.726562 8.527344 18.765625 C 8.460938 18.800781 8.140625 18.773438 7.914062 18.527344 C 7.683594 18.273438 7.371094 17.570312 6.839844 17.359375 C 6.839844 17.359375 7.128906 17.628906 7.171875 17.777344 C 7.21875 17.929688 7.527344 18.40625 7.566406 18.527344 C 7.601562 18.644531 7.269531 18.667969 7.003906 18.527344 C 6.742188 18.382812 6.515625 17.816406 6.300781 17.691406 C 6.09375 17.5625 5.847656 17.546875 5.847656 17.546875 C 5.847656 17.546875 6.078125 17.832031 6.183594 17.972656 C 6.285156 18.117188 6.335938 18.40625 6.054688 18.527344 C 5.773438 18.644531 5.621094 18.191406 5.492188 18.203125 C 5.367188 18.21875 5.144531 18.414062 4.917969 18.273438 C 4.6875 18.128906 4.234375 17.9375 3.816406 17.816406 C 3.394531 17.691406 2.429688 17.414062 1.980469 16.792969 C 1.996094 16.792969 2.609375 15.890625 4.300781 16.085938 Z M 13.402344 32.09375 L 13.277344 32.886719 C 13.277344 32.886719 12.972656 32.644531 12.527344 32.617188 C 12.078125 32.578125 11.847656 32.558594 11.847656 32.558594 C 11.847656 32.558594 11.898438 31.789062 11.773438 31.699219 C 11.648438 31.609375 11.550781 31.414062 11.550781 31.414062 L 11.789062 30.988281 C 11.789062 30.988281 12.484375 31.914062 13.402344 32.09375 Z M 4.101562 31.914062 C 3.15625 31.90625 2.320312 32.585938 2.320312 32.585938 L 2.097656 32.683594 L 2.015625 31.152344 C 2.015625 31.152344 3.007812 31.316406 3.28125 31.316406 C 3.554688 31.316406 4.035156 31.207031 4.035156 31.207031 Z M 29.609375 2.996094 C 30.539062 3.375 30.894531 4.40625 30.894531 4.40625 C 30.894531 4.40625 31.109375 4.40625 31.265625 4.734375 C 31.421875 5.0625 30.941406 5.945312 30.851562 6.183594 C 30.761719 6.421875 30.941406 7.199219 30.941406 7.199219 C 30.828125 7.570312 29.785156 8.40625 29.496094 8.632812 C 29.21875 8.847656 28.734375 9.164062 28.734375 9.164062 C 28.734375 8.960938 28.253906 8.65625 28.253906 8.65625 C 28.253906 8.65625 28.601562 8.566406 28.996094 8.386719 C 29.386719 8.199219 30.125 7.824219 30.125 7.824219 C 29.824219 8.085938 28.167969 8.550781 27.886719 8.332031 C 27.605469 8.117188 27.210938 6.445312 27.167969 6.128906 C 27.125 5.824219 27.257812 5.078125 27.277344 4.855469 C 27.300781 4.636719 27.234375 3.734375 27.433594 3.226562 C 27.425781 3.210938 28.0625 2.351562 29.609375 2.996094 Z M 30.800781 17.429688 C 30.984375 17.539062 30.933594 18.375 30.933594 18.375 C 30.933594 18.375 30.386719 18.628906 30.023438 18.726562 C 29.660156 18.824219 29.34375 18.511719 28.550781 18.457031 C 27.753906 18.40625 27.707031 18.160156 27.738281 18.070312 C 27.765625 17.988281 28.46875 18.070312 28.550781 18.070312 C 28.632812 18.070312 28.175781 17.9375 27.605469 17.855469 C 27.035156 17.773438 26.9375 17.554688 27.027344 17.449219 C 27.117188 17.347656 28.039062 17.613281 28.1875 17.585938 C 28.335938 17.554688 28.402344 17.519531 28.402344 17.519531 C 28.402344 17.519531 27.589844 17.421875 27.175781 17.285156 C 26.761719 17.152344 26.789062 16.921875 26.878906 16.921875 C 26.96875 16.921875 27.339844 16.972656 27.339844 16.972656 C 27.339844 16.972656 28.394531 17.273438 28.460938 17.1875 C 28.527344 17.101562 27.472656 16.90625 27.234375 16.792969 C 27.003906 16.675781 26.984375 16.496094 27.136719 16.40625 C 27.285156 16.324219 28.246094 16.726562 28.476562 16.792969 C 28.707031 16.859375 29.222656 17.0625 29.503906 17.160156 C 29.785156 17.257812 30.265625 17.078125 30.265625 17.078125 C 30.265625 17.078125 30.621094 17.316406 30.800781 17.429688 Z M 23.890625 16.0625 C 23.890625 16.0625 24.453125 16.523438 24.777344 16.644531 C 25.097656 16.769531 25.777344 16.933594 25.96875 17.070312 C 26.160156 17.203125 26.433594 17.601562 26.480469 17.742188 C 26.523438 17.882812 26.382812 17.945312 26.289062 17.898438 C 26.289062 17.898438 26.214844 17.683594 26.007812 17.449219 C 25.800781 17.21875 25.503906 17.003906 25.503906 17.003906 C 25.503906 17.003906 25.835938 17.382812 25.949219 17.539062 C 26.058594 17.695312 26.191406 18.011719 26.148438 18.027344 C 26.101562 18.039062 25.917969 17.996094 25.808594 17.832031 C 25.695312 17.667969 25.570312 17.21875 25.273438 17.046875 C 25.273438 17.046875 25.421875 17.234375 25.429688 17.324219 C 25.4375 17.414062 25.585938 17.726562 25.59375 17.800781 C 25.597656 17.875 25.40625 17.863281 25.257812 17.75 C 25.117188 17.636719 25.03125 17.285156 24.917969 17.195312 C 24.808594 17.105469 24.660156 17.070312 24.660156 17.070312 C 24.660156 17.070312 24.769531 17.257812 24.816406 17.355469 C 24.859375 17.449219 24.867188 17.621094 24.695312 17.667969 C 24.519531 17.710938 24.46875 17.429688 24.394531 17.429688 C 24.320312 17.429688 24.171875 17.523438 24.046875 17.421875 C 23.921875 17.316406 23.675781 17.160156 23.441406 17.046875 C 23.203125 16.933594 22.664062 16.679688 22.449219 16.277344 C 22.464844 16.269531 22.90625 15.792969 23.890625 16.0625 Z M 23.890625 16.0625 " fill-opacity="1" fill-rule="nonzero"/></svg>