<svg xmlns="http://www.w3.org/2000/svg" xmlns:xlink="http://www.w3.org/1999/xlink" width="50" zoomAndPan="magnify" viewBox="0 0 37.5 37.499999" height="50" preserveAspectRatio="xMidYMid meet" version="1.0"><defs><clipPath id="id1"><path d="M 8 0 L 31.59375 0 L 31.59375 22 L 8 22 Z M 8 0 " clip-rule="nonzero"/></clipPath><clipPath id="id2"><path d="M 13 28 L 24 28 L 24 37.007812 L 13 37.007812 Z M 13 28 " clip-rule="nonzero"/></clipPath><clipPath id="id3"><path d="M 6.09375 12 L 22 12 L 22 34 L 6.09375 34 Z M 6.09375 12 " clip-rule="nonzero"/></clipPath><clipPath id="id4"><path d="M 6.09375 19 L 8 19 L 8 20 L 6.09375 20 Z M 6.09375 19 " clip-rule="nonzero"/></clipPath></defs><g clip-path="url(#id1)"><path fill="rgb(18.818665%, 36.859131%, 47.44873%)" d="M 13.167969 17.679688 C 14.792969 19.039062 16.4375 20.410156 18.339844 21.339844 C 18.464844 21.398438 18.597656 21.460938 18.734375 21.445312 C 18.890625 21.433594 19.019531 21.328125 19.140625 21.226562 C 21.011719 19.640625 22.484375 17.652344 24.019531 15.742188 C 26.382812 12.816406 28.851562 9.925781 31.578125 7.328125 C 30.652344 5.660156 28.234375 3.664062 22.191406 1.277344 C 19.914062 0.378906 17.402344 0.230469 14.960938 0.03125 C 14.753906 0.0117188 14.527344 0 14.347656 0.109375 C 14.183594 0.210938 14.09375 0.390625 14.011719 0.566406 C 12.027344 4.71875 10.234375 8.960938 8.636719 13.273438 C 9.609375 13.488281 10.113281 14.441406 10.695312 15.246094 C 11.375 16.183594 12.277344 16.9375 13.167969 17.679688 " fill-opacity="1" fill-rule="nonzero"/></g><g clip-path="url(#id2)"><path fill="rgb(81.17981%, 60.389709%, 16.468811%)" d="M 13.210938 32.890625 C 12.96875 33.871094 12.90625 34.941406 13.320312 35.863281 C 13.734375 36.785156 14.722656 37.5 15.726562 37.359375 C 16 37.320312 16.261719 37.222656 16.507812 37.109375 C 16.949219 36.902344 17.363281 36.628906 17.710938 36.289062 C 18.488281 35.519531 18.878906 34.457031 19.292969 33.449219 C 19.710938 32.441406 20.214844 31.402344 21.125 30.792969 C 21.867188 30.292969 22.839844 30.148438 23.703125 30.40625 C 23.042969 29.542969 22.246094 28.867188 21.351562 28.25 C 21.34375 28.253906 21.335938 28.253906 21.328125 28.257812 C 20.21875 28.398438 19.160156 28.90625 18.363281 29.683594 C 17.859375 30.175781 17.464844 30.773438 16.96875 31.273438 C 16.472656 31.773438 15.824219 32.191406 15.117188 32.183594 C 14.957031 32.183594 14.792969 32.160156 14.644531 32.089844 C 14.15625 31.851562 14.117188 31.199219 14.207031 30.664062 C 13.816406 31.359375 13.402344 32.121094 13.210938 32.890625 " fill-opacity="1" fill-rule="nonzero"/></g><path fill="rgb(81.17981%, 60.389709%, 16.468811%)" d="M 15.035156 12.339844 C 13.523438 11.222656 11.675781 10.464844 9.8125 10.207031 C 9.414062 11.238281 9 12.222656 8.589844 13.273438 C 9.898438 14.089844 11.050781 15.121094 12.199219 16.144531 C 14.328125 18.042969 16.453125 19.941406 18.582031 21.839844 C 19.152344 21.488281 19.679688 21.0625 20.136719 20.574219 C 20.226562 20.480469 20.316406 20.375 20.324219 20.246094 C 20.332031 20.132812 20.269531 20.027344 20.210938 19.929688 C 19.214844 18.292969 17.953125 16.882812 16.210938 16.0625 C 15.5 15.726562 14.648438 15.371094 14.457031 14.613281 C 14.375 14.289062 14.359375 13.839844 14.457031 13.519531 C 14.609375 13.027344 14.710938 12.746094 15.035156 12.339844 " fill-opacity="1" fill-rule="nonzero"/><g clip-path="url(#id3)"><path fill="rgb(72.158813%, 32.159424%, 15.689087%)" d="M 7.5 17.003906 C 7.054688 17.757812 6.609375 18.511719 6.164062 19.265625 C 6.136719 19.308594 6.109375 19.359375 6.113281 19.40625 C 6.121094 19.472656 6.171875 19.519531 6.222656 19.5625 C 6.53125 19.808594 6.898438 19.980469 7.289062 20.058594 C 7.371094 21.160156 7.523438 22.113281 7.300781 23.195312 C 7.222656 23.5625 7.136719 23.976562 7.355469 24.285156 C 7.574219 24.597656 7.878906 24.714844 8.261719 24.722656 C 8.898438 24.738281 9.335938 24.644531 9.964844 24.527344 C 10.207031 24.484375 10.539062 24.609375 10.78125 24.652344 C 11.125 24.710938 11.40625 24.953125 11.648438 25.203125 C 12.886719 26.472656 13.652344 28.121094 14.203125 29.800781 C 14.410156 30.433594 14.023438 31.152344 13.925781 31.8125 C 13.90625 31.9375 13.886719 32.0625 13.902344 32.1875 C 13.929688 32.382812 14.042969 32.5625 14.191406 32.699219 C 14.703125 33.167969 15.539062 33.125 16.148438 32.78125 C 16.757812 32.441406 17.191406 31.867188 17.613281 31.316406 C 18.121094 30.648438 18.644531 29.976562 19.296875 29.4375 C 19.945312 28.902344 20.738281 28.5 21.585938 28.453125 C 21.171875 28 20.679688 27.609375 20.269531 27.15625 C 20 26.855469 19.726562 26.554688 19.492188 26.222656 C 19.117188 25.699219 18.84375 25.113281 18.570312 24.53125 C 18.386719 24.128906 18.195312 23.714844 18.183594 23.273438 C 18.160156 22.566406 18.59375 21.933594 19.007812 21.359375 C 18.796875 20.660156 18.613281 19.964844 18.402344 19.269531 C 18.375 19.179688 18.347656 19.089844 18.355469 19 C 18.367188 18.875 18.441406 18.769531 18.515625 18.667969 C 18.734375 18.355469 18.960938 18.042969 19.085938 17.6875 C 19.210938 17.328125 19.222656 16.914062 19.023438 16.589844 C 18.785156 16.199219 18.273438 16.023438 17.820312 16.105469 C 17.363281 16.1875 16.972656 16.484375 16.695312 16.847656 C 14.917969 16.382812 13.527344 15.03125 11.976562 14.054688 C 11.539062 13.78125 11.078125 13.539062 10.621094 13.296875 C 10.324219 13.144531 10.023438 12.988281 9.699219 12.914062 C 9.371094 12.84375 8.910156 12.753906 8.742188 13.042969 C 8.308594 13.800781 7.859375 14.605469 7.867188 15.476562 C 7.871094 15.691406 7.898438 15.902344 7.875 16.113281 C 7.832031 16.433594 7.664062 16.722656 7.5 17.003906 " fill-opacity="1" fill-rule="nonzero"/></g><path fill="rgb(79.60968%, 50.19989%, 34.118652%)" d="M 7.296875 21.394531 C 7.390625 21.417969 7.484375 21.398438 7.578125 21.382812 C 8.101562 21.316406 8.625 21.511719 9.148438 21.597656 C 9.257812 21.613281 9.378906 21.625 9.472656 21.539062 C 9.011719 21.296875 8.550781 21.058594 8.089844 20.816406 C 7.941406 20.742188 7.789062 20.664062 7.632812 20.644531 C 7.476562 20.621094 7.308594 20.664062 7.1875 20.804688 C 7.113281 20.894531 7.058594 21.035156 7.085938 21.164062 C 7.113281 21.289062 7.203125 21.371094 7.296875 21.394531 " fill-opacity="1" fill-rule="nonzero"/><path fill="rgb(79.60968%, 50.19989%, 34.118652%)" d="M 7.378906 22.148438 C 7.488281 22.199219 7.609375 22.1875 7.726562 22.171875 C 8.300781 22.09375 8.863281 21.898438 9.394531 21.601562 C 9.054688 21.5 8.710938 21.398438 8.363281 21.378906 C 8.210938 21.371094 8.058594 21.375 7.910156 21.359375 C 7.75 21.34375 7.585938 21.300781 7.429688 21.355469 C 7.273438 21.40625 7.128906 21.597656 7.148438 21.816406 C 7.164062 21.976562 7.265625 22.101562 7.378906 22.148438 " fill-opacity="1" fill-rule="nonzero"/><path fill="rgb(79.60968%, 50.19989%, 34.118652%)" d="M 13.359375 20.441406 C 13.722656 20.136719 13.902344 19.636719 13.835938 19.164062 C 13.820312 19.050781 13.789062 18.9375 13.742188 18.832031 C 13.664062 18.660156 13.539062 18.511719 13.386719 18.402344 C 13.101562 18.203125 12.714844 18.15625 12.378906 18.253906 C 12.042969 18.351562 11.75 18.585938 11.558594 18.878906 C 11.433594 19.0625 11.34375 19.277344 11.324219 19.5 C 11.285156 19.972656 11.582031 20.449219 12.015625 20.640625 C 12.453125 20.835938 12.992188 20.746094 13.359375 20.441406 " fill-opacity="1" fill-rule="nonzero"/><path fill="rgb(95.689392%, 96.469116%, 96.078491%)" d="M 11.191406 16.886719 C 10.8125 16.628906 10.34375 16.464844 9.894531 16.546875 C 9.515625 16.617188 9.175781 16.863281 8.996094 17.199219 C 9.328125 17.441406 10.003906 17.519531 10.320312 17.410156 C 10.636719 17.304688 10.9375 17.105469 11.191406 16.886719 " fill-opacity="1" fill-rule="nonzero"/><path fill="rgb(6.269836%, 5.879211%, 5.099487%)" d="M 9.109375 17.175781 C 9.339844 17.3125 9.695312 17.375 9.960938 17.375 C 10.09375 17.375 10.210938 17.363281 10.292969 17.332031 C 10.539062 17.25 10.800781 17.097656 11.050781 16.894531 C 10.671875 16.664062 10.261719 16.566406 9.910156 16.628906 C 9.585938 16.691406 9.285156 16.894531 9.109375 17.175781 Z M 9.960938 17.542969 C 9.667969 17.542969 9.222656 17.472656 8.945312 17.265625 L 8.886719 17.226562 L 8.921875 17.160156 C 9.117188 16.800781 9.472656 16.542969 9.878906 16.464844 C 9.960938 16.453125 10.046875 16.445312 10.136719 16.445312 C 10.59375 16.445312 10.988281 16.648438 11.238281 16.820312 L 11.328125 16.878906 L 11.246094 16.949219 C 10.953125 17.203125 10.640625 17.390625 10.347656 17.492188 C 10.246094 17.523438 10.113281 17.542969 9.960938 17.542969 " fill-opacity="1" fill-rule="nonzero"/><path fill="rgb(6.269836%, 5.879211%, 5.099487%)" d="M 9.863281 17.503906 C 10.058594 17.511719 10.277344 17.5 10.410156 17.355469 C 10.496094 17.261719 10.527344 17.132812 10.523438 17.011719 C 10.523438 16.875 10.484375 16.738281 10.394531 16.636719 C 10.300781 16.535156 10.160156 16.476562 10.027344 16.503906 C 9.976562 16.511719 9.929688 16.535156 9.878906 16.546875 C 9.835938 16.558594 9.792969 16.558594 9.75 16.570312 C 9.628906 16.601562 9.535156 16.699219 9.488281 16.8125 C 9.441406 16.925781 9.4375 17.054688 9.453125 17.175781 C 9.460938 17.25 9.480469 17.332031 9.53125 17.390625 C 9.609375 17.480469 9.742188 17.496094 9.863281 17.503906 " fill-opacity="1" fill-rule="nonzero"/><path fill="rgb(6.269836%, 5.879211%, 5.099487%)" d="M 8.898438 16.886719 L 8.820312 16.847656 C 8.976562 16.539062 9.191406 16.113281 9.578125 15.929688 C 9.707031 15.867188 9.855469 15.828125 10.035156 15.8125 C 10.296875 15.789062 10.566406 15.816406 10.816406 15.890625 L 10.792969 15.96875 C 10.550781 15.898438 10.292969 15.875 10.042969 15.894531 C 9.871094 15.910156 9.734375 15.945312 9.613281 16.003906 C 9.28125 16.164062 9.085938 16.511719 8.898438 16.886719 " fill-opacity="1" fill-rule="nonzero"/><path fill="rgb(6.269836%, 5.879211%, 5.099487%)" d="M 9.21875 17.972656 C 9.054688 17.757812 8.949219 17.5 8.914062 17.230469 L 8.996094 17.21875 C 9.03125 17.472656 9.132812 17.71875 9.285156 17.925781 L 9.21875 17.972656 " fill-opacity="1" fill-rule="nonzero"/><path fill="rgb(6.269836%, 5.879211%, 5.099487%)" d="M 10.765625 17.546875 C 10.726562 17.445312 10.703125 17.335938 10.695312 17.226562 L 10.78125 17.21875 C 10.785156 17.324219 10.804688 17.421875 10.84375 17.519531 L 10.765625 17.546875 " fill-opacity="1" fill-rule="nonzero"/><path fill="rgb(6.269836%, 5.879211%, 5.099487%)" d="M 11.078125 17.351562 L 10.910156 17.082031 L 10.980469 17.035156 L 11.148438 17.308594 L 11.078125 17.351562 " fill-opacity="1" fill-rule="nonzero"/><path fill="rgb(6.269836%, 5.879211%, 5.099487%)" d="M 11.292969 17.148438 C 11.230469 17.074219 11.160156 17.011719 11.078125 16.957031 L 11.125 16.890625 C 11.210938 16.945312 11.289062 17.015625 11.355469 17.09375 L 11.292969 17.148438 " fill-opacity="1" fill-rule="nonzero"/><path fill="rgb(6.269836%, 5.879211%, 5.099487%)" d="M 9.566406 16.65625 C 9.445312 16.585938 9.375 16.4375 9.402344 16.300781 L 9.484375 16.316406 C 9.464844 16.417969 9.515625 16.53125 9.609375 16.585938 L 9.566406 16.65625 " fill-opacity="1" fill-rule="nonzero"/><path fill="rgb(6.269836%, 5.879211%, 5.099487%)" d="M 9.921875 16.550781 L 9.804688 16.214844 L 9.882812 16.1875 L 10.003906 16.523438 L 9.921875 16.550781 " fill-opacity="1" fill-rule="nonzero"/><path fill="rgb(6.269836%, 5.879211%, 5.099487%)" d="M 10.382812 16.472656 L 10.300781 16.472656 L 10.300781 16.246094 L 10.382812 16.246094 L 10.382812 16.472656 " fill-opacity="1" fill-rule="nonzero"/><path fill="rgb(6.269836%, 5.879211%, 5.099487%)" d="M 10.84375 16.664062 L 10.761719 16.65625 L 10.804688 16.300781 L 10.886719 16.3125 L 10.84375 16.664062 " fill-opacity="1" fill-rule="nonzero"/><path fill="rgb(6.269836%, 5.879211%, 5.099487%)" d="M 11.105469 16.867188 L 11.035156 16.820312 L 11.261719 16.480469 L 11.332031 16.527344 L 11.105469 16.867188 " fill-opacity="1" fill-rule="nonzero"/><g clip-path="url(#id4)"><path fill="rgb(6.269836%, 5.879211%, 5.099487%)" d="M 6.980469 19.488281 C 7.0625 19.558594 7.160156 19.613281 7.265625 19.644531 C 7.234375 19.578125 7.179688 19.527344 7.117188 19.492188 C 7.074219 19.472656 7.015625 19.46875 6.980469 19.484375 C 6.980469 19.484375 6.980469 19.488281 6.980469 19.488281 Z M 7.390625 19.757812 L 7.324219 19.746094 C 7.15625 19.710938 7.003906 19.628906 6.882812 19.511719 L 6.886719 19.507812 L 6.871094 19.507812 C 6.878906 19.464844 6.902344 19.429688 6.945312 19.410156 C 7.003906 19.382812 7.089844 19.386719 7.15625 19.417969 C 7.261719 19.472656 7.34375 19.578125 7.375 19.695312 L 7.390625 19.757812 " fill-opacity="1" fill-rule="nonzero"/></g><path fill="rgb(6.269836%, 5.879211%, 5.099487%)" d="M 9.480469 21.523438 C 9.261719 21.523438 9.046875 21.5 8.835938 21.472656 C 8.730469 21.460938 8.621094 21.449219 8.515625 21.441406 C 8.117188 21.410156 7.707031 21.417969 7.308594 21.46875 L 7.296875 21.382812 C 7.703125 21.332031 8.117188 21.324219 8.523438 21.359375 C 8.628906 21.367188 8.738281 21.378906 8.84375 21.390625 C 9.109375 21.421875 9.378906 21.453125 9.648438 21.433594 L 9.652344 21.515625 C 9.597656 21.519531 9.539062 21.523438 9.480469 21.523438 " fill-opacity="1" fill-rule="nonzero"/><path fill="rgb(6.269836%, 5.879211%, 5.099487%)" d="M 8.828125 15.207031 C 9.578125 15.152344 10.105469 14.824219 10.84375 14.957031 C 11.1875 15.019531 11.746094 15.265625 12.097656 15.25 C 11.90625 14.992188 11.070312 14.539062 10.34375 14.457031 C 9.789062 14.394531 9.1875 14.546875 8.726562 14.863281 C 8.632812 14.925781 8.539062 15.046875 8.601562 15.140625 C 8.648438 15.207031 8.746094 15.210938 8.828125 15.207031 " fill-opacity="1" fill-rule="nonzero"/><path fill="rgb(6.269836%, 5.879211%, 5.099487%)" d="M 10.683594 24.398438 L 10.671875 24.316406 C 12.445312 24.070312 14.175781 23.585938 15.820312 22.875 L 15.851562 22.949219 C 14.203125 23.664062 12.464844 24.152344 10.683594 24.398438 " fill-opacity="1" fill-rule="nonzero"/><path fill="rgb(6.269836%, 5.879211%, 5.099487%)" d="M 16.324219 20.476562 C 16.265625 20.476562 16.203125 20.472656 16.140625 20.464844 C 16.023438 20.453125 15.945312 20.40625 15.929688 20.328125 L 16.011719 20.3125 C 16.023438 20.363281 16.113281 20.378906 16.152344 20.382812 C 16.585938 20.429688 17.054688 20.296875 17.46875 20.015625 C 17.820312 19.773438 18.125 19.433594 18.40625 18.976562 L 18.476562 19.019531 C 18.191406 19.488281 17.875 19.835938 17.519531 20.082031 C 17.144531 20.339844 16.726562 20.476562 16.324219 20.476562 " fill-opacity="1" fill-rule="nonzero"/><path fill="rgb(6.269836%, 5.879211%, 5.099487%)" d="M 16.074219 18.871094 L 16.007812 18.820312 C 16.316406 18.390625 16.636719 17.945312 17.054688 17.597656 C 17.527344 17.207031 18.0625 17.011719 18.558594 17.046875 L 18.550781 17.128906 C 18.078125 17.09375 17.5625 17.285156 17.109375 17.660156 C 16.699219 18.003906 16.382812 18.445312 16.074219 18.871094 " fill-opacity="1" fill-rule="nonzero"/><path fill="rgb(6.269836%, 5.879211%, 5.099487%)" d="M 17.214844 19.351562 C 17.042969 19.066406 16.851562 18.742188 16.789062 18.386719 C 16.757812 18.207031 16.761719 18.023438 16.796875 17.839844 L 16.878906 17.859375 C 16.847656 18.03125 16.84375 18.203125 16.871094 18.371094 C 16.929688 18.710938 17.109375 19.015625 17.285156 19.308594 L 17.214844 19.351562 " fill-opacity="1" fill-rule="nonzero"/><path fill="rgb(80.778503%, 71.759033%, 51.368713%)" d="M 25.097656 14.417969 C 25.8125 13.820312 26.210938 13.257812 26.734375 12.488281 C 23.949219 8.363281 19.445312 5.417969 14.53125 4.507812 C 13.796875 4.375 13.050781 4.28125 12.304688 4.316406 C 11.964844 4.902344 11.703125 5.480469 11.484375 6.121094 C 15.320312 6.421875 18.804688 8.503906 21.753906 10.957031 C 22.992188 11.992188 24.328125 13.007812 25.097656 14.417969 " fill-opacity="1" fill-rule="nonzero"/><path fill="rgb(80.778503%, 71.759033%, 51.368713%)" d="M 23.617188 16.246094 C 24.289062 15.683594 24.800781 15.027344 25.257812 14.285156 C 23.253906 14.566406 21.40625 14.351562 19.390625 13.851562 C 19.5 14.726562 19.46875 15.304688 19.539062 16.15625 C 20.867188 16.332031 22.285156 16.363281 23.617188 16.246094 " fill-opacity="1" fill-rule="nonzero"/><path fill="rgb(78.42865%, 11.759949%, 14.509583%)" d="M 15.550781 36.867188 C 14.789062 36.867188 14.023438 36.375 13.582031 35.597656 C 13.144531 34.824219 13.066406 33.917969 13.046875 33.210938 L 13.214844 33.207031 C 13.234375 33.894531 13.308594 34.777344 13.726562 35.515625 C 14.152344 36.265625 14.890625 36.730469 15.621094 36.699219 C 16.226562 36.675781 16.839844 36.304688 17.300781 35.691406 C 17.652344 35.226562 17.894531 34.675781 18.125 34.140625 C 18.167969 34.046875 18.207031 33.949219 18.25 33.855469 C 18.699219 32.84375 19.4375 31.382812 20.675781 30.433594 C 21.539062 29.769531 22.480469 29.570312 23.195312 29.894531 L 23.125 30.046875 C 22.46875 29.746094 21.589844 29.941406 20.777344 30.5625 C 19.847656 31.28125 19.113281 32.316406 18.402344 33.921875 C 18.359375 34.015625 18.320312 34.113281 18.277344 34.207031 C 18.042969 34.75 17.800781 35.308594 17.4375 35.792969 C 16.941406 36.445312 16.28125 36.835938 15.628906 36.867188 C 15.601562 36.867188 15.578125 36.867188 15.550781 36.867188 " fill-opacity="1" fill-rule="nonzero"/><path fill="rgb(18.818665%, 36.859131%, 47.44873%)" d="M 15.242188 36.140625 C 15.050781 36.140625 14.867188 36.101562 14.707031 36.019531 C 14.242188 35.792969 14.011719 35.285156 13.859375 34.871094 C 13.542969 33.988281 13.371094 33.066406 13.355469 32.128906 L 13.523438 32.125 C 13.539062 33.042969 13.707031 33.949219 14.019531 34.816406 C 14.15625 35.199219 14.371094 35.671875 14.78125 35.871094 C 15.058594 36.007812 15.425781 36.003906 15.761719 35.867188 C 16.042969 35.75 16.304688 35.554688 16.59375 35.246094 C 16.878906 34.941406 17.125 34.597656 17.320312 34.230469 C 17.4375 34.011719 17.535156 33.785156 17.632812 33.5625 C 17.695312 33.417969 17.757812 33.273438 17.828125 33.128906 C 18.414062 31.898438 19.320312 30.839844 20.453125 30.074219 C 21.3125 29.492188 22.121094 29.242188 22.851562 29.332031 L 22.832031 29.5 C 22.140625 29.414062 21.375 29.652344 20.546875 30.210938 C 19.4375 30.960938 18.550781 31.996094 17.980469 33.199219 C 17.914062 33.339844 17.847656 33.484375 17.785156 33.628906 C 17.6875 33.851562 17.585938 34.085938 17.46875 34.304688 C 17.265625 34.6875 17.011719 35.042969 16.71875 35.359375 C 16.414062 35.6875 16.128906 35.894531 15.828125 36.019531 C 15.632812 36.097656 15.433594 36.140625 15.242188 36.140625 " fill-opacity="1" fill-rule="nonzero"/><path fill="rgb(14.118958%, 39.608765%, 30.979919%)" d="M 13.847656 33.167969 C 14.117188 33.167969 14.117188 32.75 13.847656 32.75 C 13.578125 32.75 13.578125 33.167969 13.847656 33.167969 " fill-opacity="1" fill-rule="nonzero"/><path fill="rgb(14.118958%, 39.608765%, 30.979919%)" d="M 14.015625 34.027344 C 14.285156 34.027344 14.285156 33.609375 14.015625 33.609375 C 13.746094 33.609375 13.746094 34.027344 14.015625 34.027344 " fill-opacity="1" fill-rule="nonzero"/><path fill="rgb(14.118958%, 39.608765%, 30.979919%)" d="M 14.085938 34.707031 C 14.085938 34.714844 14.085938 34.722656 14.085938 34.734375 C 14.085938 34.84375 14.179688 34.945312 14.292969 34.941406 C 14.40625 34.9375 14.503906 34.851562 14.503906 34.734375 C 14.503906 34.722656 14.503906 34.714844 14.503906 34.707031 C 14.503906 34.597656 14.40625 34.492188 14.292969 34.496094 C 14.179688 34.503906 14.085938 34.589844 14.085938 34.707031 " fill-opacity="1" fill-rule="nonzero"/><path fill="rgb(14.118958%, 39.608765%, 30.979919%)" d="M 14.824219 35.578125 C 15.09375 35.578125 15.09375 35.164062 14.824219 35.164062 C 14.554688 35.164062 14.554688 35.578125 14.824219 35.578125 " fill-opacity="1" fill-rule="nonzero"/><path fill="rgb(14.118958%, 39.608765%, 30.979919%)" d="M 15.46875 35.632812 C 15.476562 35.632812 15.488281 35.632812 15.496094 35.632812 C 15.605469 35.632812 15.710938 35.539062 15.707031 35.425781 C 15.699219 35.3125 15.613281 35.21875 15.496094 35.21875 C 15.488281 35.21875 15.476562 35.21875 15.46875 35.21875 C 15.359375 35.21875 15.253906 35.3125 15.257812 35.425781 C 15.261719 35.539062 15.351562 35.632812 15.46875 35.632812 " fill-opacity="1" fill-rule="nonzero"/><path fill="rgb(14.118958%, 39.608765%, 30.979919%)" d="M 16.332031 35.136719 C 16.34375 35.136719 16.351562 35.136719 16.363281 35.136719 C 16.472656 35.136719 16.574219 35.039062 16.570312 34.925781 C 16.566406 34.816406 16.480469 34.71875 16.363281 34.71875 C 16.351562 34.71875 16.34375 34.71875 16.332031 34.71875 C 16.222656 34.71875 16.121094 34.816406 16.125 34.925781 C 16.128906 35.039062 16.214844 35.136719 16.332031 35.136719 " fill-opacity="1" fill-rule="nonzero"/><path fill="rgb(14.118958%, 39.608765%, 30.979919%)" d="M 16.921875 34.332031 C 16.929688 34.332031 16.9375 34.332031 16.949219 34.332031 C 17.058594 34.332031 17.164062 34.234375 17.15625 34.125 C 17.152344 34.011719 17.066406 33.914062 16.949219 33.914062 C 16.9375 33.914062 16.929688 33.914062 16.921875 33.914062 C 16.8125 33.914062 16.707031 34.011719 16.710938 34.125 C 16.714844 34.234375 16.804688 34.332031 16.921875 34.332031 " fill-opacity="1" fill-rule="nonzero"/><path fill="rgb(14.118958%, 39.608765%, 30.979919%)" d="M 17.3125 33.414062 C 17.582031 33.414062 17.582031 33 17.3125 33 C 17.042969 33 17.042969 33.414062 17.3125 33.414062 " fill-opacity="1" fill-rule="nonzero"/><path fill="rgb(14.118958%, 39.608765%, 30.979919%)" d="M 17.730469 32.5 C 18 32.5 18 32.085938 17.730469 32.085938 C 17.460938 32.085938 17.460938 32.5 17.730469 32.5 " fill-opacity="1" fill-rule="nonzero"/><path fill="rgb(14.118958%, 39.608765%, 30.979919%)" d="M 18.316406 31.667969 C 18.328125 31.667969 18.335938 31.667969 18.34375 31.667969 C 18.453125 31.667969 18.558594 31.574219 18.554688 31.460938 C 18.550781 31.347656 18.460938 31.253906 18.34375 31.253906 C 18.335938 31.253906 18.328125 31.253906 18.316406 31.253906 C 18.207031 31.253906 18.101562 31.347656 18.109375 31.460938 C 18.113281 31.574219 18.199219 31.667969 18.316406 31.667969 " fill-opacity="1" fill-rule="nonzero"/><path fill="rgb(14.118958%, 39.608765%, 30.979919%)" d="M 19.335938 30.601562 C 19.335938 30.59375 19.335938 30.582031 19.335938 30.574219 C 19.335938 30.464844 19.242188 30.359375 19.128906 30.367188 C 19.011719 30.371094 18.917969 30.457031 18.917969 30.574219 C 18.917969 30.582031 18.917969 30.59375 18.917969 30.601562 C 18.917969 30.710938 19.015625 30.8125 19.128906 30.808594 C 19.242188 30.804688 19.335938 30.71875 19.335938 30.601562 " fill-opacity="1" fill-rule="nonzero"/><path fill="rgb(14.118958%, 39.608765%, 30.979919%)" d="M 20.171875 30.011719 C 20.179688 29.992188 20.191406 29.976562 20.199219 29.957031 C 20.25 29.859375 20.226562 29.726562 20.125 29.671875 C 20.027344 29.621094 19.890625 29.644531 19.835938 29.746094 C 19.828125 29.765625 19.820312 29.785156 19.808594 29.800781 C 19.757812 29.898438 19.78125 30.03125 19.882812 30.085938 C 19.980469 30.136719 20.117188 30.117188 20.171875 30.011719 " fill-opacity="1" fill-rule="nonzero"/><path fill="rgb(14.118958%, 39.608765%, 30.979919%)" d="M 20.96875 29.507812 C 21.242188 29.507812 21.242188 29.089844 20.96875 29.089844 C 20.699219 29.089844 20.699219 29.507812 20.96875 29.507812 " fill-opacity="1" fill-rule="nonzero"/><path fill="rgb(14.118958%, 39.608765%, 30.979919%)" d="M 21.863281 29.230469 C 22.132812 29.230469 22.132812 28.8125 21.863281 28.8125 C 21.59375 28.8125 21.59375 29.230469 21.863281 29.230469 " fill-opacity="1" fill-rule="nonzero"/><path fill="rgb(14.118958%, 39.608765%, 30.979919%)" d="M 12.828125 4.574219 C 12.796875 4.574219 12.765625 4.574219 12.738281 4.585938 C 12.699219 4.601562 12.675781 4.640625 12.65625 4.675781 C 12.4375 5.035156 12.257812 5.417969 12.128906 5.816406 C 12.789062 5.941406 13.445312 6.066406 14.101562 6.191406 C 14.386719 5.785156 14.625 5.34375 14.804688 4.878906 C 14.160156 4.703125 13.496094 4.601562 12.828125 4.574219 " fill-opacity="1" fill-rule="nonzero"/><path fill="rgb(78.42865%, 11.759949%, 14.509583%)" d="M 16.222656 5.394531 C 16.195312 5.386719 16.164062 5.375 16.140625 5.386719 C 16.113281 5.398438 16.101562 5.421875 16.085938 5.445312 C 15.875 5.839844 15.664062 6.238281 15.453125 6.628906 C 16.199219 6.902344 16.953125 7.210938 17.664062 7.546875 C 17.949219 7.027344 18.136719 6.679688 18.421875 6.160156 C 17.675781 5.921875 16.964844 5.628906 16.222656 5.394531 " fill-opacity="1" fill-rule="nonzero"/><path fill="rgb(14.118958%, 39.608765%, 30.979919%)" d="M 22.203125 8.367188 C 21.492188 7.835938 20.742188 7.355469 19.960938 6.933594 C 19.929688 6.914062 19.890625 6.894531 19.851562 6.894531 C 19.78125 6.898438 19.726562 6.964844 19.6875 7.027344 C 19.421875 7.425781 19.160156 7.824219 18.898438 8.222656 C 19.621094 8.6875 20.328125 9.171875 21.023438 9.675781 C 21.464844 9.285156 21.863281 8.847656 22.203125 8.367188 " fill-opacity="1" fill-rule="nonzero"/><path fill="rgb(18.818665%, 36.859131%, 47.44873%)" d="M 14.996094 6.582031 L 14.609375 6.417969 C 14.832031 5.90625 15.0625 5.394531 15.300781 4.894531 L 15.679688 5.070312 C 15.445312 5.566406 15.214844 6.074219 14.996094 6.582031 " fill-opacity="1" fill-rule="nonzero"/><path fill="rgb(18.818665%, 36.859131%, 47.44873%)" d="M 18.453125 8.082031 L 18.085938 7.882812 C 18.351562 7.394531 18.625 6.90625 18.90625 6.425781 L 19.269531 6.636719 C 18.992188 7.109375 18.71875 7.597656 18.453125 8.082031 " fill-opacity="1" fill-rule="nonzero"/><path fill="rgb(18.818665%, 36.859131%, 47.44873%)" d="M 21.804688 10.371094 L 21.488281 10.097656 C 21.859375 9.679688 22.238281 9.265625 22.621094 8.863281 L 22.925781 9.144531 C 22.546875 9.546875 22.171875 9.957031 21.804688 10.371094 " fill-opacity="1" fill-rule="nonzero"/><path fill="rgb(18.818665%, 36.859131%, 47.44873%)" d="M 24.894531 13.5 L 24.582031 13.226562 C 24.949219 12.8125 25.332031 12.394531 25.714844 11.992188 L 26.019531 12.277344 C 25.640625 12.679688 25.261719 13.089844 24.894531 13.5 " fill-opacity="1" fill-rule="nonzero"/><path fill="rgb(78.42865%, 11.759949%, 14.509583%)" d="M 24.125 12.546875 C 24.546875 12.210938 24.941406 11.835938 25.304688 11.4375 C 24.746094 10.769531 24.152344 10.136719 23.523438 9.535156 C 23.113281 9.945312 22.703125 10.359375 22.292969 10.773438 C 22.980469 11.285156 23.597656 11.882812 24.125 12.546875 " fill-opacity="1" fill-rule="nonzero"/><path fill="rgb(78.42865%, 11.759949%, 14.509583%)" d="M 19.855469 14.359375 C 19.851562 14.851562 19.867188 15.339844 19.914062 15.828125 C 20.625 15.851562 21.339844 15.902344 22.050781 15.980469 C 22.027344 15.527344 22.03125 15.074219 22.066406 14.625 C 21.328125 14.535156 20.59375 14.449219 19.855469 14.359375 " fill-opacity="1" fill-rule="nonzero"/><path fill="rgb(18.818665%, 36.859131%, 47.44873%)" d="M 22.878906 16.019531 L 22.460938 16.015625 L 22.472656 14.65625 L 22.890625 14.660156 L 22.878906 16.019531 " fill-opacity="1" fill-rule="nonzero"/><path fill="rgb(14.118958%, 39.608765%, 30.979919%)" d="M 24.964844 14.714844 C 24.449219 14.683594 23.933594 14.6875 23.417969 14.683594 C 23.375 15.121094 23.347656 15.554688 23.335938 15.992188 C 23.539062 15.976562 23.742188 15.96875 23.945312 15.96875 C 24.351562 15.589844 24.722656 15.214844 24.964844 14.714844 " fill-opacity="1" fill-rule="nonzero"/><path fill="rgb(6.269836%, 5.879211%, 5.099487%)" d="M 16.808594 16.636719 C 16.300781 16.492188 15.773438 16.253906 15.140625 15.890625 C 14.730469 15.65625 14.328125 15.378906 14.140625 14.964844 C 14.023438 14.707031 14.007812 14.425781 14.003906 14.179688 C 13.996094 13.675781 14.09375 13.117188 14.3125 12.425781 C 13.210938 11.769531 12.035156 11.242188 10.808594 10.855469 C 10.472656 10.746094 10.074219 10.632812 9.667969 10.589844 L 9.679688 10.503906 C 10.089844 10.550781 10.496094 10.667969 10.835938 10.777344 C 12.074219 11.167969 13.269531 11.703125 14.382812 12.371094 L 14.414062 12.386719 L 14.402344 12.417969 C 14.179688 13.117188 14.082031 13.675781 14.085938 14.179688 C 14.089844 14.414062 14.109375 14.6875 14.214844 14.929688 C 14.402344 15.34375 14.8125 15.605469 15.183594 15.820312 C 15.808594 16.179688 16.332031 16.414062 16.832031 16.558594 L 16.808594 16.636719 " fill-opacity="1" fill-rule="nonzero"/><path fill="rgb(6.269836%, 5.879211%, 5.099487%)" d="M 19.945312 20.636719 C 19.933594 20.496094 19.859375 20.359375 19.796875 20.242188 C 19.488281 19.671875 19.160156 19.101562 18.820312 18.542969 C 18.804688 18.519531 18.785156 18.488281 18.761719 18.488281 L 18.765625 18.402344 C 18.835938 18.40625 18.875 18.472656 18.890625 18.5 C 19.230469 19.058594 19.5625 19.632812 19.871094 20.203125 C 19.933594 20.324219 20.015625 20.46875 20.03125 20.628906 L 19.945312 20.636719 " fill-opacity="1" fill-rule="nonzero"/><path fill="rgb(6.269836%, 5.879211%, 5.099487%)" d="M 24.722656 14.207031 C 23.304688 12.652344 21.59375 11.367188 20.105469 10.320312 C 19.503906 9.894531 18.789062 9.402344 18.042969 8.960938 C 16 7.753906 13.679688 6.914062 11.332031 6.53125 L 11.347656 6.449219 C 13.703125 6.832031 16.035156 7.675781 18.085938 8.890625 C 18.835938 9.332031 19.550781 9.828125 20.152344 10.25 C 21.644531 11.304688 23.363281 12.589844 24.785156 14.148438 L 24.722656 14.207031 " fill-opacity="1" fill-rule="nonzero"/><path fill="rgb(6.269836%, 5.879211%, 5.099487%)" d="M 26.964844 12.214844 C 24.855469 8.996094 21.824219 6.523438 18.429688 5.253906 C 17.636719 4.957031 16.808594 4.71875 15.960938 4.480469 C 14.6875 4.125 13.625 3.859375 12.511719 3.953125 L 12.503906 3.871094 C 13.722656 3.765625 14.976562 4.117188 15.984375 4.398438 C 16.835938 4.636719 17.664062 4.875 18.460938 5.175781 C 21.867188 6.449219 24.914062 8.933594 27.035156 12.171875 L 26.964844 12.214844 " fill-opacity="1" fill-rule="nonzero"/><path fill="rgb(6.269836%, 5.879211%, 5.099487%)" d="M 22.28125 16.625 C 21.960938 16.625 21.640625 16.609375 21.324219 16.589844 C 20.71875 16.554688 20.09375 16.515625 19.492188 16.613281 C 19.445312 16.621094 19.335938 16.640625 19.28125 16.5625 C 19.253906 16.527344 19.25 16.488281 19.25 16.457031 L 19.035156 13.773438 L 19.117188 13.765625 L 19.332031 16.449219 C 19.335938 16.472656 19.335938 16.5 19.347656 16.515625 C 19.371094 16.546875 19.429688 16.539062 19.480469 16.53125 C 20.089844 16.433594 20.71875 16.46875 21.332031 16.507812 C 22.03125 16.546875 22.753906 16.589844 23.441406 16.425781 L 23.460938 16.503906 C 23.074219 16.597656 22.679688 16.625 22.28125 16.625 " fill-opacity="1" fill-rule="nonzero"/><path fill="rgb(6.269836%, 5.879211%, 5.099487%)" d="M 24.269531 14.203125 C 23.335938 14.203125 22.398438 14.066406 21.488281 13.929688 C 20.695312 13.8125 19.878906 13.691406 19.066406 13.664062 L 19.070312 13.582031 C 19.886719 13.609375 20.707031 13.730469 21.5 13.847656 C 22.542969 14.003906 23.621094 14.160156 24.6875 14.113281 L 24.695312 14.195312 C 24.550781 14.203125 24.410156 14.203125 24.269531 14.203125 " fill-opacity="1" fill-rule="nonzero"/><path fill="rgb(6.269836%, 5.879211%, 5.099487%)" d="M 26.65625 9.933594 L 26.597656 9.871094 C 27.75 8.75 28.671875 7.371094 29.261719 5.882812 L 29.339844 5.914062 C 28.746094 7.414062 27.816406 8.804688 26.65625 9.933594 " fill-opacity="1" fill-rule="nonzero"/><path fill="rgb(6.269836%, 5.879211%, 5.099487%)" d="M 27.152344 10.484375 L 27.097656 10.421875 C 27.4375 10.117188 27.679688 9.714844 27.910156 9.328125 L 28.574219 8.21875 L 28.644531 8.261719 L 27.980469 9.371094 C 27.746094 9.765625 27.503906 10.167969 27.152344 10.484375 " fill-opacity="1" fill-rule="nonzero"/><path fill="rgb(6.269836%, 5.879211%, 5.099487%)" d="M 28.105469 10.355469 L 28.035156 10.3125 C 28.15625 10.105469 28.304688 9.910156 28.476562 9.738281 L 28.535156 9.796875 C 28.367188 9.964844 28.222656 10.152344 28.105469 10.355469 " fill-opacity="1" fill-rule="nonzero"/><path fill="rgb(6.269836%, 5.879211%, 5.099487%)" d="M 30.230469 8.015625 L 30.148438 7.988281 L 30.203125 7.824219 L 30.285156 7.847656 L 30.230469 8.015625 " fill-opacity="1" fill-rule="nonzero"/><path fill="rgb(6.269836%, 5.879211%, 5.099487%)" d="M 18.832031 1.386719 C 17.523438 0.925781 16.097656 0.742188 14.714844 0.863281 L 14.707031 0.78125 C 16.105469 0.660156 17.539062 0.84375 18.863281 1.308594 L 18.832031 1.386719 " fill-opacity="1" fill-rule="nonzero"/><path fill="rgb(6.269836%, 5.879211%, 5.099487%)" d="M 19.785156 1.804688 L 19.703125 1.78125 L 19.816406 1.394531 L 19.898438 1.414062 L 19.785156 1.804688 " fill-opacity="1" fill-rule="nonzero"/><path fill="rgb(6.269836%, 5.879211%, 5.099487%)" d="M 20.277344 1.859375 L 20.199219 1.832031 L 20.3125 1.5 L 20.390625 1.523438 L 20.277344 1.859375 " fill-opacity="1" fill-rule="nonzero"/><path fill="rgb(6.269836%, 5.879211%, 5.099487%)" d="M 21.070312 2.261719 L 20.996094 2.21875 L 21.164062 1.941406 L 21.238281 1.984375 L 21.070312 2.261719 " fill-opacity="1" fill-rule="nonzero"/><path fill="rgb(6.269836%, 5.879211%, 5.099487%)" d="M 12.277344 9.90625 C 11.855469 9.207031 11.632812 8.375 11.648438 7.558594 L 11.734375 7.558594 C 11.71875 8.359375 11.9375 9.179688 12.351562 9.863281 L 12.277344 9.90625 " fill-opacity="1" fill-rule="nonzero"/><path fill="rgb(6.269836%, 5.879211%, 5.099487%)" d="M 12.664062 9.015625 C 12.519531 8.65625 12.421875 8.28125 12.375 7.898438 L 12.460938 7.886719 C 12.503906 8.265625 12.597656 8.632812 12.742188 8.984375 L 12.664062 9.015625 " fill-opacity="1" fill-rule="nonzero"/><path fill="rgb(6.269836%, 5.879211%, 5.099487%)" d="M 13.222656 8.792969 C 13.109375 8.511719 13.046875 8.199219 13.050781 7.890625 L 13.132812 7.890625 C 13.132812 8.1875 13.191406 8.488281 13.300781 8.761719 L 13.222656 8.792969 " fill-opacity="1" fill-rule="nonzero"/><path fill="rgb(6.269836%, 5.879211%, 5.099487%)" d="M 12.679688 13.730469 L 12.605469 13.691406 C 12.707031 13.5 12.753906 13.269531 12.730469 13.050781 L 12.816406 13.042969 C 12.835938 13.277344 12.789062 13.523438 12.679688 13.730469 " fill-opacity="1" fill-rule="nonzero"/><path fill="rgb(6.269836%, 5.879211%, 5.099487%)" d="M 16.429688 14.328125 L 16.347656 14.320312 C 16.382812 14 16.527344 13.699219 16.75 13.464844 L 16.8125 13.523438 C 16.601562 13.742188 16.464844 14.027344 16.429688 14.328125 " fill-opacity="1" fill-rule="nonzero"/><path fill="rgb(6.269836%, 5.879211%, 5.099487%)" d="M 17.042969 14.28125 L 16.964844 14.257812 L 17.074219 13.921875 L 17.15625 13.949219 L 17.042969 14.28125 " fill-opacity="1" fill-rule="nonzero"/><path fill="rgb(6.269836%, 5.879211%, 5.099487%)" d="M 18.554688 12.773438 L 18.46875 12.773438 L 18.46875 12.496094 L 18.554688 12.496094 L 18.554688 12.773438 " fill-opacity="1" fill-rule="nonzero"/><path fill="rgb(6.269836%, 5.879211%, 5.099487%)" d="M 20.554688 18.667969 L 20.480469 18.628906 L 20.59375 18.40625 L 20.667969 18.445312 L 20.554688 18.667969 " fill-opacity="1" fill-rule="nonzero"/><path fill="rgb(6.269836%, 5.879211%, 5.099487%)" d="M 15.089844 30.128906 L 15.007812 30.128906 L 15.007812 29.796875 L 15.089844 29.796875 L 15.089844 30.128906 " fill-opacity="1" fill-rule="nonzero"/><path fill="rgb(6.269836%, 5.879211%, 5.099487%)" d="M 15.921875 36.742188 L 15.84375 36.714844 C 16.164062 35.800781 16.289062 34.808594 16.199219 33.847656 L 16.285156 33.839844 C 16.371094 34.816406 16.246094 35.816406 15.921875 36.742188 " fill-opacity="1" fill-rule="nonzero"/><path fill="rgb(6.269836%, 5.879211%, 5.099487%)" d="M 17.058594 36.015625 L 16.972656 36.003906 C 17.03125 35.566406 17.042969 35.121094 17.015625 34.679688 L 17.097656 34.675781 C 17.128906 35.121094 17.113281 35.574219 17.058594 36.015625 " fill-opacity="1" fill-rule="nonzero"/><path fill="rgb(6.269836%, 5.879211%, 5.099487%)" d="M 17.828125 34.792969 L 17.746094 34.785156 L 17.800781 34.285156 L 17.882812 34.292969 L 17.828125 34.792969 " fill-opacity="1" fill-rule="nonzero"/><path fill="rgb(6.269836%, 5.879211%, 5.099487%)" d="M 19.113281 32.183594 L 19.027344 32.183594 L 19.027344 32.070312 L 19.113281 32.070312 L 19.113281 32.183594 " fill-opacity="1" fill-rule="nonzero"/><path fill="rgb(6.269836%, 5.879211%, 5.099487%)" d="M 21.011719 29.976562 L 20.929688 29.949219 L 20.988281 29.785156 L 21.066406 29.8125 L 21.011719 29.976562 " fill-opacity="1" fill-rule="nonzero"/><path fill="rgb(6.269836%, 5.879211%, 5.099487%)" d="M 15.277344 34.175781 C 15.082031 34.175781 14.882812 34.101562 14.71875 33.964844 C 14.503906 33.789062 14.378906 33.535156 14.390625 33.289062 L 14.476562 33.292969 C 14.464844 33.515625 14.574219 33.742188 14.769531 33.902344 C 14.964844 34.0625 15.210938 34.125 15.429688 34.074219 L 15.449219 34.15625 C 15.390625 34.167969 15.335938 34.175781 15.277344 34.175781 " fill-opacity="1" fill-rule="nonzero"/><path fill="rgb(6.269836%, 5.879211%, 5.099487%)" d="M 13.964844 36.460938 L 13.882812 36.4375 L 13.996094 36.050781 L 14.078125 36.074219 L 13.964844 36.460938 " fill-opacity="1" fill-rule="nonzero"/></svg>