<svg xmlns="http://www.w3.org/2000/svg" xmlns:xlink="http://www.w3.org/1999/xlink" width="50" zoomAndPan="magnify" viewBox="0 0 37.5 37.499999" height="50" preserveAspectRatio="xMidYMid meet" version="1.0"><defs><clipPath id="id1"><path d="M 4.5 8 L 8 8 L 8 14 L 4.5 14 Z M 4.5 8 " clip-rule="nonzero"/></clipPath></defs><path fill="rgb(18.818665%, 2.749634%, 2.349854%)" d="M 10.339844 9.683594 C 7.457031 12.730469 6.03125 17.519531 5.832031 21.425781 C 5.515625 27.796875 8.4375 37.507812 16.46875 36.816406 C 19.304688 36.570312 22.28125 34.933594 24.160156 32.878906 C 26.949219 29.828125 28.0625 25.589844 28.558594 21.535156 C 28.644531 20.824219 28.699219 20.109375 28.722656 19.394531 C 28.820312 15.832031 27.824219 12.007812 25.257812 9.414062 C 22.410156 6.535156 17.886719 5.714844 14.128906 7.132812 C 13.699219 7.296875 13.28125 7.488281 12.875 7.707031 C 11.929688 8.21875 11.085938 8.890625 10.339844 9.683594 Z M 10.339844 9.683594 " fill-opacity="1" fill-rule="nonzero"/><path fill="rgb(100%, 50.979614%, 9.408569%)" d="M 17.976562 7.523438 L 13.019531 29.226562 L 20.609375 29.226562 Z M 17.976562 7.523438 " fill-opacity="1" fill-rule="nonzero"/><path fill="rgb(98.81897%, 95.689392%, 74.119568%)" d="M 27.464844 18.414062 C 27.464844 18.769531 27.382812 19.109375 27.214844 19.433594 C 27.046875 19.761719 26.808594 20.046875 26.5 20.296875 C 26.1875 20.546875 25.832031 20.738281 25.425781 20.875 C 25.019531 21.011719 24.597656 21.078125 24.160156 21.078125 C 23.722656 21.078125 23.300781 21.011719 22.894531 20.875 C 22.492188 20.738281 22.132812 20.546875 21.824219 20.296875 C 21.511719 20.046875 21.273438 19.761719 21.105469 19.433594 C 20.9375 19.109375 20.855469 18.769531 20.855469 18.414062 C 20.855469 18.0625 20.9375 17.722656 21.105469 17.394531 C 21.273438 17.070312 21.511719 16.78125 21.824219 16.53125 C 22.132812 16.28125 22.492188 16.089844 22.894531 15.953125 C 23.300781 15.820312 23.722656 15.75 24.160156 15.75 C 24.597656 15.75 25.019531 15.820312 25.425781 15.953125 C 25.832031 16.089844 26.1875 16.28125 26.5 16.53125 C 26.808594 16.78125 27.046875 17.070312 27.214844 17.394531 C 27.382812 17.722656 27.464844 18.0625 27.464844 18.414062 Z M 27.464844 18.414062 " fill-opacity="1" fill-rule="nonzero"/><path fill="rgb(18.818665%, 2.749634%, 2.349854%)" d="M 26.335938 18.414062 C 26.335938 18.582031 26.277344 18.742188 26.167969 18.894531 C 26.058594 19.046875 25.902344 19.183594 25.699219 19.300781 C 25.492188 19.417969 25.257812 19.507812 24.992188 19.574219 C 24.726562 19.636719 24.449219 19.667969 24.160156 19.667969 C 23.871094 19.667969 23.59375 19.636719 23.328125 19.574219 C 23.0625 19.507812 22.828125 19.417969 22.625 19.300781 C 22.421875 19.183594 22.261719 19.046875 22.152344 18.894531 C 22.042969 18.742188 21.988281 18.582031 21.988281 18.414062 C 21.988281 18.25 22.042969 18.089844 22.152344 17.933594 C 22.261719 17.78125 22.421875 17.644531 22.625 17.527344 C 22.828125 17.410156 23.0625 17.320312 23.328125 17.257812 C 23.59375 17.191406 23.871094 17.160156 24.160156 17.160156 C 24.449219 17.160156 24.726562 17.191406 24.992188 17.257812 C 25.257812 17.320312 25.492188 17.410156 25.699219 17.527344 C 25.902344 17.644531 26.058594 17.78125 26.167969 17.933594 C 26.277344 18.089844 26.335938 18.25 26.335938 18.414062 Z M 26.335938 18.414062 " fill-opacity="1" fill-rule="nonzero"/><path fill="rgb(100%, 50.979614%, 9.408569%)" d="M 23.105469 32.097656 C 23.105469 32.21875 23.0625 32.339844 22.984375 32.457031 C 22.902344 32.574219 22.785156 32.691406 22.625 32.804688 C 22.46875 32.914062 22.273438 33.019531 22.042969 33.121094 C 21.816406 33.222656 21.554688 33.316406 21.261719 33.402344 C 20.96875 33.488281 20.652344 33.5625 20.308594 33.632812 C 19.964844 33.699219 19.601562 33.753906 19.222656 33.800781 C 18.839844 33.847656 18.445312 33.882812 18.042969 33.90625 C 17.636719 33.929688 17.226562 33.941406 16.8125 33.941406 C 16.402344 33.941406 15.992188 33.929688 15.585938 33.90625 C 15.179688 33.882812 14.789062 33.847656 14.40625 33.800781 C 14.023438 33.753906 13.664062 33.699219 13.320312 33.632812 C 12.976562 33.5625 12.65625 33.488281 12.367188 33.402344 C 12.074219 33.316406 11.8125 33.222656 11.582031 33.121094 C 11.355469 33.019531 11.160156 32.914062 11.003906 32.804688 C 10.84375 32.691406 10.726562 32.574219 10.644531 32.457031 C 10.5625 32.339844 10.523438 32.21875 10.523438 32.097656 C 10.523438 31.976562 10.5625 31.855469 10.644531 31.738281 C 10.726562 31.617188 10.84375 31.503906 11.003906 31.390625 C 11.160156 31.28125 11.355469 31.171875 11.582031 31.074219 C 11.8125 30.972656 12.074219 30.878906 12.367188 30.792969 C 12.65625 30.707031 12.976562 30.632812 13.320312 30.5625 C 13.664062 30.496094 14.023438 30.441406 14.40625 30.394531 C 14.789062 30.347656 15.179688 30.3125 15.585938 30.289062 C 15.992188 30.265625 16.402344 30.253906 16.8125 30.253906 C 17.226562 30.253906 17.636719 30.265625 18.042969 30.289062 C 18.445312 30.3125 18.839844 30.347656 19.222656 30.394531 C 19.601562 30.441406 19.964844 30.496094 20.308594 30.5625 C 20.652344 30.632812 20.96875 30.707031 21.261719 30.792969 C 21.554688 30.878906 21.816406 30.972656 22.042969 31.074219 C 22.273438 31.171875 22.46875 31.28125 22.625 31.390625 C 22.785156 31.503906 22.902344 31.617188 22.984375 31.738281 C 23.0625 31.855469 23.105469 31.976562 23.105469 32.097656 Z M 23.105469 32.097656 " fill-opacity="1" fill-rule="nonzero"/><path fill="rgb(96.859741%, 15.689087%, 12.159729%)" d="M 20.949219 32.097656 C 20.949219 32.199219 20.84375 32.300781 20.632812 32.394531 C 20.425781 32.492188 20.125 32.578125 19.738281 32.648438 C 19.351562 32.722656 18.902344 32.78125 18.398438 32.820312 C 17.890625 32.859375 17.363281 32.878906 16.8125 32.878906 C 16.265625 32.878906 15.738281 32.859375 15.230469 32.820312 C 14.726562 32.78125 14.277344 32.722656 13.890625 32.648438 C 13.5 32.578125 13.203125 32.492188 12.992188 32.394531 C 12.785156 32.300781 12.679688 32.199219 12.679688 32.097656 C 12.679688 31.992188 12.785156 31.894531 12.992188 31.796875 C 13.203125 31.703125 13.5 31.617188 13.890625 31.542969 C 14.277344 31.472656 14.726562 31.414062 15.230469 31.375 C 15.738281 31.335938 16.265625 31.316406 16.8125 31.316406 C 17.363281 31.316406 17.890625 31.335938 18.398438 31.375 C 18.902344 31.414062 19.351562 31.472656 19.738281 31.542969 C 20.125 31.617188 20.425781 31.703125 20.632812 31.796875 C 20.84375 31.894531 20.949219 31.992188 20.949219 32.097656 Z M 20.949219 32.097656 " fill-opacity="1" fill-rule="nonzero"/><path fill="rgb(96.859741%, 15.689087%, 12.159729%)" d="M 11.265625 24.148438 C 10.996094 23.527344 10.179688 23.40625 9.503906 23.375 C 8.996094 23.351562 8.484375 23.328125 7.976562 23.300781 C 7.738281 23.292969 7.496094 23.28125 7.273438 23.347656 C 6.703125 23.523438 6.386719 24.164062 6.398438 24.757812 C 6.40625 25.347656 6.667969 25.90625 6.921875 26.441406 C 7.109375 26.828125 7.296875 27.214844 7.480469 27.605469 C 7.738281 28.140625 8.007812 28.695312 8.460938 29.082031 C 8.660156 29.253906 8.90625 29.390625 9.171875 29.386719 C 9.683594 29.378906 10.027344 28.875 10.257812 28.414062 C 10.789062 27.347656 11.800781 25.382812 11.265625 24.148438 Z M 11.265625 24.148438 " fill-opacity="1" fill-rule="nonzero"/><path fill="rgb(1.959229%, 54.508972%, 33.329773%)" d="M 22.820312 29.363281 C 23.132812 30.113281 23.585938 30.625 24.226562 30.480469 C 24.4375 30.433594 24.613281 30.289062 24.773438 30.140625 C 26.035156 28.957031 26.917969 26.933594 27.332031 25.28125 C 27.40625 24.988281 27.457031 24.675781 27.359375 24.394531 C 26.832031 22.847656 22.449219 23.996094 22.25 25.519531 C 22.167969 26.160156 22.292969 28.101562 22.820312 29.363281 Z M 22.820312 29.363281 " fill-opacity="1" fill-rule="nonzero"/><path fill="rgb(96.859741%, 15.689087%, 12.159729%)" d="M 14.550781 15.453125 C 13.882812 14.910156 12.960938 14.574219 11.894531 14.480469 C 10.898438 14.390625 9.871094 14.515625 8.902344 14.648438 L 8.804688 13.933594 C 9.8125 13.796875 10.886719 13.667969 11.957031 13.761719 C 13.167969 13.867188 14.222656 14.261719 15.003906 14.894531 Z M 14.550781 15.453125 " fill-opacity="1" fill-rule="nonzero"/><path fill="rgb(100%, 50.979614%, 9.408569%)" d="M 14.785156 13.0625 C 13.339844 12.433594 11.691406 12.230469 10.136719 12.488281 L 10.019531 11.78125 C 11.707031 11.5 13.5 11.71875 15.070312 12.402344 Z M 14.785156 13.0625 " fill-opacity="1" fill-rule="nonzero"/><path fill="rgb(1.959229%, 54.508972%, 33.329773%)" d="M 20.40625 15.53125 L 19.996094 14.941406 C 21.796875 13.695312 24.207031 13.335938 26.292969 14.007812 L 26.070312 14.691406 C 24.195312 14.089844 22.023438 14.410156 20.40625 15.53125 Z M 20.40625 15.53125 " fill-opacity="1" fill-rule="nonzero"/><path fill="rgb(100%, 50.979614%, 9.408569%)" d="M 20.050781 13.363281 L 19.734375 12.71875 C 21.40625 11.894531 23.34375 11.574219 25.191406 11.824219 L 25.097656 12.535156 C 23.390625 12.308594 21.597656 12.601562 20.050781 13.363281 Z M 20.050781 13.363281 " fill-opacity="1" fill-rule="nonzero"/><path fill="rgb(98.81897%, 95.689392%, 74.119568%)" d="M 20.492188 11.15625 L 19.785156 11.042969 C 19.914062 10.222656 20.601562 9.539062 21.421875 9.410156 C 22.238281 9.28125 23.105469 9.726562 23.476562 10.46875 L 22.835938 10.789062 C 22.601562 10.328125 22.042969 10.039062 21.53125 10.121094 C 21.019531 10.199219 20.574219 10.644531 20.492188 11.15625 Z M 20.492188 11.15625 " fill-opacity="1" fill-rule="nonzero"/><path fill="rgb(98.81897%, 95.689392%, 74.119568%)" d="M 15.273438 11.304688 L 14.570312 11.160156 C 14.675781 10.644531 14.65625 10.105469 14.511719 9.601562 C 14.480469 9.496094 14.441406 9.371094 14.371094 9.308594 C 14.300781 9.246094 14.152344 9.234375 14.023438 9.28125 C 13.84375 9.34375 13.6875 9.496094 13.554688 9.632812 C 13.203125 10 12.902344 10.429688 12.609375 10.847656 L 12.019531 10.433594 C 12.328125 9.996094 12.648438 9.539062 13.035156 9.136719 C 13.222656 8.9375 13.460938 8.71875 13.777344 8.605469 C 14.160156 8.464844 14.585938 8.53125 14.855469 8.777344 C 15.058594 8.957031 15.148438 9.207031 15.203125 9.40625 C 15.378906 10.019531 15.402344 10.675781 15.273438 11.304688 Z M 15.273438 11.304688 " fill-opacity="1" fill-rule="nonzero"/><path fill="rgb(98.81897%, 95.689392%, 74.119568%)" d="M 14.152344 18.878906 C 14.152344 19.15625 14.066406 19.421875 13.898438 19.675781 C 13.730469 19.933594 13.492188 20.15625 13.183594 20.351562 C 12.871094 20.546875 12.515625 20.699219 12.109375 20.804688 C 11.703125 20.910156 11.28125 20.960938 10.84375 20.960938 C 10.40625 20.960938 9.984375 20.910156 9.578125 20.804688 C 9.175781 20.699219 8.816406 20.546875 8.507812 20.351562 C 8.195312 20.15625 7.957031 19.933594 7.789062 19.675781 C 7.621094 19.421875 7.539062 19.15625 7.539062 18.878906 C 7.539062 18.605469 7.621094 18.339844 7.789062 18.085938 C 7.957031 17.828125 8.195312 17.605469 8.507812 17.410156 C 8.816406 17.214844 9.175781 17.0625 9.578125 16.957031 C 9.984375 16.851562 10.40625 16.800781 10.84375 16.800781 C 11.28125 16.800781 11.703125 16.851562 12.109375 16.957031 C 12.515625 17.0625 12.871094 17.214844 13.183594 17.410156 C 13.492188 17.605469 13.730469 17.828125 13.898438 18.085938 C 14.066406 18.339844 14.152344 18.605469 14.152344 18.878906 Z M 14.152344 18.878906 " fill-opacity="1" fill-rule="nonzero"/><path fill="rgb(18.818665%, 2.749634%, 2.349854%)" d="M 13.019531 18.878906 C 13.019531 19.011719 12.964844 19.136719 12.851562 19.253906 C 12.742188 19.375 12.585938 19.480469 12.382812 19.574219 C 12.179688 19.664062 11.941406 19.734375 11.675781 19.785156 C 11.410156 19.835938 11.132812 19.859375 10.84375 19.859375 C 10.554688 19.859375 10.277344 19.835938 10.011719 19.785156 C 9.746094 19.734375 9.511719 19.664062 9.308594 19.574219 C 9.105469 19.480469 8.945312 19.375 8.835938 19.253906 C 8.726562 19.136719 8.671875 19.011719 8.671875 18.878906 C 8.671875 18.75 8.726562 18.625 8.835938 18.507812 C 8.945312 18.386719 9.105469 18.28125 9.308594 18.1875 C 9.511719 18.097656 9.746094 18.027344 10.011719 17.976562 C 10.277344 17.925781 10.554688 17.902344 10.84375 17.902344 C 11.132812 17.902344 11.410156 17.925781 11.675781 17.976562 C 11.941406 18.027344 12.179688 18.097656 12.382812 18.1875 C 12.585938 18.28125 12.742188 18.386719 12.851562 18.507812 C 12.964844 18.625 13.019531 18.75 13.019531 18.878906 Z M 13.019531 18.878906 " fill-opacity="1" fill-rule="nonzero"/><path fill="rgb(100%, 50.979614%, 9.408569%)" d="M 7.214844 20.617188 C 7.027344 20.496094 6.742188 20.570312 6.640625 20.765625 C 6.632812 20.777344 6.628906 20.792969 6.621094 20.804688 C 6.601562 20.839844 6.578125 20.875 6.566406 20.917969 C 6.425781 21.289062 6.683594 21.683594 7.035156 21.804688 C 7.261719 21.878906 7.480469 21.714844 7.550781 21.511719 C 7.667969 21.171875 7.503906 20.800781 7.214844 20.617188 Z M 7.214844 20.617188 " fill-opacity="1" fill-rule="nonzero"/><path fill="rgb(100%, 50.979614%, 9.408569%)" d="M 9.574219 21.632812 C 9.5625 21.617188 9.550781 21.601562 9.539062 21.589844 C 9.535156 21.585938 9.53125 21.585938 9.53125 21.582031 C 9.480469 21.53125 9.425781 21.484375 9.355469 21.445312 C 9.351562 21.445312 9.347656 21.441406 9.34375 21.4375 C 9.3125 21.421875 9.277344 21.410156 9.242188 21.394531 C 9.144531 21.359375 9.039062 21.375 8.949219 21.421875 C 8.921875 21.425781 8.894531 21.429688 8.867188 21.4375 C 8.636719 21.511719 8.527344 21.722656 8.574219 21.953125 C 8.636719 22.285156 8.925781 22.570312 9.25 22.640625 C 9.535156 22.699219 9.761719 22.519531 9.78125 22.234375 C 9.800781 22.015625 9.714844 21.796875 9.574219 21.632812 Z M 9.574219 21.632812 " fill-opacity="1" fill-rule="nonzero"/><path fill="rgb(100%, 50.979614%, 9.408569%)" d="M 12.71875 21.839844 C 12.71875 21.769531 12.703125 21.699219 12.664062 21.640625 C 12.53125 21.4375 12.304688 21.390625 12.089844 21.488281 C 11.914062 21.574219 11.746094 21.691406 11.65625 21.875 C 11.539062 22.121094 11.582031 22.410156 11.777344 22.601562 C 11.988281 22.816406 12.347656 22.792969 12.554688 22.585938 C 12.703125 22.433594 12.753906 22.210938 12.757812 22.007812 C 12.757812 21.949219 12.742188 21.890625 12.71875 21.839844 Z M 12.71875 21.839844 " fill-opacity="1" fill-rule="nonzero"/><path fill="rgb(100%, 50.979614%, 9.408569%)" d="M 21.890625 21.484375 C 21.777344 21.296875 21.507812 21.210938 21.316406 21.335938 C 21.316406 21.335938 21.3125 21.335938 21.3125 21.335938 C 21.179688 21.378906 21.0625 21.472656 21.039062 21.617188 C 21.007812 21.828125 20.988281 22.023438 21.09375 22.222656 C 21.199219 22.425781 21.394531 22.527344 21.613281 22.546875 C 21.777344 22.5625 21.992188 22.40625 22.019531 22.238281 C 22.058594 21.972656 22.035156 21.71875 21.890625 21.484375 Z M 21.890625 21.484375 " fill-opacity="1" fill-rule="nonzero"/><path fill="rgb(100%, 50.979614%, 9.408569%)" d="M 24.335938 21.992188 C 24.320312 21.925781 24.28125 21.871094 24.234375 21.820312 C 24.199219 21.726562 24.140625 21.648438 24.054688 21.601562 C 23.84375 21.492188 23.613281 21.558594 23.480469 21.753906 C 23.386719 21.894531 23.316406 22.0625 23.292969 22.230469 C 23.269531 22.375 23.273438 22.507812 23.355469 22.636719 C 23.421875 22.746094 23.535156 22.828125 23.660156 22.859375 C 23.890625 22.917969 24.15625 22.820312 24.28125 22.613281 C 24.398438 22.421875 24.386719 22.207031 24.335938 21.992188 Z M 24.335938 21.992188 " fill-opacity="1" fill-rule="nonzero"/><path fill="rgb(100%, 50.979614%, 9.408569%)" d="M 26.832031 21.617188 C 26.832031 21.613281 26.828125 21.609375 26.828125 21.609375 C 26.820312 21.578125 26.808594 21.546875 26.789062 21.519531 C 26.65625 21.316406 26.429688 21.269531 26.214844 21.371094 C 25.933594 21.503906 25.742188 21.839844 25.761719 22.152344 C 25.777344 22.34375 25.886719 22.496094 26.070312 22.554688 C 26.300781 22.628906 26.585938 22.558594 26.742188 22.378906 C 26.9375 22.152344 26.953125 21.878906 26.832031 21.617188 Z M 26.832031 21.617188 " fill-opacity="1" fill-rule="nonzero"/><g clip-path="url(#id1)"><path fill="rgb(1.959229%, 54.508972%, 33.329773%)" d="M 7.539062 11.132812 C 7.539062 11.476562 7.5 11.808594 7.421875 12.125 C 7.347656 12.445312 7.238281 12.726562 7.09375 12.96875 C 6.953125 13.210938 6.789062 13.398438 6.601562 13.53125 C 6.417969 13.664062 6.222656 13.730469 6.023438 13.730469 C 5.824219 13.730469 5.628906 13.664062 5.445312 13.53125 C 5.257812 13.398438 5.09375 13.210938 4.953125 12.96875 C 4.808594 12.726562 4.699219 12.445312 4.625 12.125 C 4.546875 11.808594 4.507812 11.476562 4.507812 11.132812 C 4.507812 10.785156 4.546875 10.453125 4.625 10.136719 C 4.699219 9.816406 4.808594 9.539062 4.953125 9.292969 C 5.09375 9.050781 5.257812 8.863281 5.445312 8.730469 C 5.628906 8.597656 5.824219 8.53125 6.023438 8.53125 C 6.222656 8.53125 6.417969 8.597656 6.601562 8.730469 C 6.789062 8.863281 6.953125 9.050781 7.09375 9.292969 C 7.238281 9.539062 7.347656 9.816406 7.421875 10.136719 C 7.5 10.453125 7.539062 10.785156 7.539062 11.132812 Z M 7.539062 11.132812 " fill-opacity="1" fill-rule="nonzero"/></g><path fill="rgb(96.859741%, 15.689087%, 12.159729%)" d="M 11.136719 5.574219 C 11.277344 5.886719 11.371094 6.207031 11.417969 6.535156 C 11.464844 6.867188 11.457031 7.175781 11.402344 7.46875 C 11.34375 7.761719 11.238281 8.015625 11.089844 8.226562 C 10.9375 8.4375 10.75 8.59375 10.53125 8.695312 C 10.308594 8.792969 10.066406 8.828125 9.808594 8.800781 C 9.550781 8.773438 9.292969 8.683594 9.035156 8.53125 C 8.777344 8.378906 8.542969 8.175781 8.328125 7.925781 C 8.113281 7.671875 7.933594 7.390625 7.792969 7.074219 C 7.652344 6.761719 7.558594 6.441406 7.511719 6.109375 C 7.464844 5.78125 7.472656 5.472656 7.527344 5.179688 C 7.585938 4.886719 7.691406 4.632812 7.839844 4.421875 C 7.992188 4.210938 8.179688 4.054688 8.398438 3.953125 C 8.621094 3.855469 8.863281 3.816406 9.121094 3.847656 C 9.378906 3.875 9.636719 3.964844 9.894531 4.117188 C 10.152344 4.269531 10.386719 4.46875 10.601562 4.722656 C 10.816406 4.976562 10.996094 5.257812 11.136719 5.574219 Z M 11.136719 5.574219 " fill-opacity="1" fill-rule="nonzero"/><path fill="rgb(1.959229%, 54.508972%, 33.329773%)" d="M 15.621094 3.832031 C 15.65625 4.148438 15.644531 4.457031 15.585938 4.757812 C 15.523438 5.058594 15.417969 5.328125 15.273438 5.570312 C 15.125 5.8125 14.945312 6.003906 14.734375 6.152344 C 14.523438 6.296875 14.296875 6.382812 14.050781 6.410156 C 13.808594 6.4375 13.566406 6.402344 13.328125 6.308594 C 13.089844 6.214844 12.875 6.0625 12.675781 5.859375 C 12.480469 5.65625 12.320312 5.417969 12.191406 5.136719 C 12.066406 4.855469 11.988281 4.558594 11.953125 4.246094 C 11.917969 3.929688 11.929688 3.621094 11.988281 3.320312 C 12.050781 3.019531 12.15625 2.75 12.300781 2.507812 C 12.449219 2.265625 12.628906 2.070312 12.839844 1.925781 C 13.050781 1.78125 13.277344 1.695312 13.523438 1.667969 C 13.765625 1.640625 14.007812 1.675781 14.246094 1.769531 C 14.484375 1.863281 14.699219 2.015625 14.898438 2.21875 C 15.09375 2.421875 15.253906 2.660156 15.382812 2.941406 C 15.507812 3.222656 15.585938 3.519531 15.621094 3.832031 Z M 15.621094 3.832031 " fill-opacity="1" fill-rule="nonzero"/><path fill="rgb(96.859741%, 15.689087%, 12.159729%)" d="M 19.199219 0.335938 C 19.441406 0.382812 19.660156 0.492188 19.855469 0.671875 C 20.054688 0.851562 20.214844 1.085938 20.335938 1.375 C 20.460938 1.664062 20.539062 1.984375 20.570312 2.339844 C 20.597656 2.691406 20.582031 3.050781 20.515625 3.414062 C 20.449219 3.777344 20.335938 4.121094 20.183594 4.441406 C 20.03125 4.761719 19.84375 5.03125 19.628906 5.257812 C 19.410156 5.484375 19.175781 5.648438 18.929688 5.746094 C 18.679688 5.84375 18.4375 5.871094 18.195312 5.828125 C 17.953125 5.785156 17.734375 5.671875 17.539062 5.492188 C 17.339844 5.3125 17.179688 5.078125 17.058594 4.789062 C 16.933594 4.5 16.859375 4.179688 16.828125 3.828125 C 16.796875 3.472656 16.816406 3.113281 16.882812 2.75 C 16.949219 2.386719 17.058594 2.042969 17.210938 1.726562 C 17.367188 1.40625 17.550781 1.132812 17.769531 0.90625 C 17.984375 0.679688 18.21875 0.515625 18.464844 0.417969 C 18.714844 0.320312 18.960938 0.292969 19.199219 0.335938 Z M 19.199219 0.335938 " fill-opacity="1" fill-rule="nonzero"/><path fill="rgb(1.959229%, 54.508972%, 33.329773%)" d="M 24.1875 3.085938 C 24.5 3.144531 24.789062 3.246094 25.058594 3.394531 C 25.324219 3.542969 25.554688 3.726562 25.742188 3.945312 C 25.925781 4.164062 26.058594 4.398438 26.132812 4.652344 C 26.210938 4.90625 26.226562 5.160156 26.179688 5.410156 C 26.132812 5.664062 26.03125 5.894531 25.867188 6.105469 C 25.707031 6.316406 25.5 6.488281 25.25 6.625 C 25 6.765625 24.71875 6.855469 24.417969 6.898438 C 24.113281 6.941406 23.804688 6.9375 23.496094 6.878906 C 23.1875 6.824219 22.894531 6.71875 22.628906 6.570312 C 22.359375 6.421875 22.132812 6.238281 21.945312 6.023438 C 21.757812 5.804688 21.625 5.570312 21.550781 5.316406 C 21.472656 5.058594 21.457031 4.808594 21.503906 4.554688 C 21.550781 4.304688 21.65625 4.074219 21.816406 3.863281 C 21.976562 3.652344 22.183594 3.476562 22.433594 3.339844 C 22.6875 3.203125 22.964844 3.113281 23.269531 3.070312 C 23.570312 3.023438 23.878906 3.03125 24.1875 3.085938 Z M 24.1875 3.085938 " fill-opacity="1" fill-rule="nonzero"/><path fill="rgb(96.859741%, 15.689087%, 12.159729%)" d="M 28.527344 5.824219 C 28.761719 5.867188 28.976562 5.96875 29.175781 6.121094 C 29.371094 6.273438 29.535156 6.472656 29.660156 6.714844 C 29.789062 6.957031 29.875 7.222656 29.914062 7.515625 C 29.953125 7.808594 29.945312 8.101562 29.890625 8.402344 C 29.835938 8.699219 29.738281 8.976562 29.597656 9.238281 C 29.457031 9.496094 29.285156 9.714844 29.078125 9.894531 C 28.875 10.078125 28.652344 10.203125 28.414062 10.277344 C 28.175781 10.351562 27.9375 10.367188 27.703125 10.324219 C 27.46875 10.28125 27.25 10.183594 27.054688 10.03125 C 26.859375 9.875 26.695312 9.679688 26.566406 9.4375 C 26.441406 9.195312 26.355469 8.929688 26.316406 8.636719 C 26.277344 8.34375 26.285156 8.050781 26.339844 7.75 C 26.394531 7.453125 26.492188 7.171875 26.632812 6.914062 C 26.773438 6.65625 26.945312 6.433594 27.148438 6.253906 C 27.355469 6.074219 27.578125 5.945312 27.816406 5.871094 C 28.054688 5.796875 28.289062 5.78125 28.527344 5.824219 Z M 28.527344 5.824219 " fill-opacity="1" fill-rule="nonzero"/><path fill="rgb(1.959229%, 54.508972%, 33.329773%)" d="M 32.113281 10.8125 C 32.226562 10.941406 32.296875 11.101562 32.320312 11.300781 C 32.34375 11.496094 32.316406 11.710938 32.242188 11.945312 C 32.167969 12.183594 32.050781 12.417969 31.886719 12.65625 C 31.726562 12.894531 31.535156 13.117188 31.308594 13.324219 C 31.085938 13.527344 30.847656 13.699219 30.597656 13.839844 C 30.347656 13.980469 30.101562 14.078125 29.859375 14.136719 C 29.617188 14.191406 29.402344 14.199219 29.207031 14.15625 C 29.015625 14.117188 28.859375 14.035156 28.742188 13.90625 C 28.625 13.78125 28.554688 13.617188 28.53125 13.421875 C 28.507812 13.226562 28.535156 13.007812 28.609375 12.773438 C 28.6875 12.539062 28.804688 12.300781 28.964844 12.0625 C 29.128906 11.824219 29.320312 11.605469 29.542969 11.398438 C 29.765625 11.195312 30.003906 11.019531 30.253906 10.878906 C 30.507812 10.738281 30.753906 10.640625 30.992188 10.585938 C 31.234375 10.53125 31.453125 10.523438 31.644531 10.5625 C 31.839844 10.601562 31.996094 10.6875 32.113281 10.8125 Z M 32.113281 10.8125 " fill-opacity="1" fill-rule="nonzero"/></svg>